<?xml version="1.0" standalone="no"?>
<!DOCTYPE svg PUBLIC "-//W3C//DTD SVG 1.1//EN" "http://www.w3.org/Graphics/SVG/1.1/DTD/svg11.dtd" >
<svg xmlns="http://www.w3.org/2000/svg" xmlns:xlink="http://www.w3.org/1999/xlink" version="1.1">
<metadata>
Created by FontForge 20230101 at Thu Feb  5 03:01:05 2015
 By Unknown
Copyright (c) 2006-2010, Nick Curtis. All Rights Reserved. Unauthorized duplication or redistribution is expressly prohibited.
</metadata>
<defs>
<font id="DecimosextoNFW01-Italic" horiz-adv-x="2191" >
  <font-face 
    font-family="DecimosextoNFW01-Italic"
    font-weight="400"
    font-style="italic"
    font-stretch="normal"
    units-per-em="2048"
    panose-1="1 0 0 0 0 0 0 0 0 0"
    ascent="1638"
    descent="-410"
    x-height="750"
    cap-height="1255"
    bbox="-492 -895 2660 1873"
    underline-thickness="102"
    underline-position="-358"
    slope="-12"
    unicode-range="U+000D-2122"
  />
<missing-glyph horiz-adv-x="717" 
 />
    <glyph glyph-name=".notdef" horiz-adv-x="717" 
 />
    <glyph glyph-name="glyph1" horiz-adv-x="0" 
 />
    <glyph glyph-name="uni000D" unicode="&#xd;" horiz-adv-x="554" 
 />
    <glyph glyph-name="space" unicode=" " horiz-adv-x="554" 
 />
    <glyph glyph-name="exclam" unicode="!" horiz-adv-x="520" 
d="M520 1235l-272 -918h-70l135 1008zM287 207l-43 -205l-178 76l43 205z" />
    <glyph glyph-name="quotedbl" unicode="&#x22;" horiz-adv-x="911" 
d="M135 838h-69l266 544h252zM463 838h-70l266 544h252z" />
    <glyph glyph-name="numbersign" unicode="#" horiz-adv-x="1047" 
d="M774 874l-84 -206l244 -52l-29 -67l-243 51l-242 -594h-70l248 606l-199 41l-264 -647h-69l268 660l-252 53l27 67l253 -53l84 207l-253 53l28 68l252 -53l119 290h72l-125 -303l198 -41l142 344h69l-145 -356l244 -51l-29 -68zM512 928l-86 -207l199 -41l84 207z" />
    <glyph glyph-name="dollar" unicode="$" horiz-adv-x="907" 
d="M150 88q21 -73 98 -111l198 494q-86 103 -86 186q0 109 82 185q39 35 85 56t102 26l53 131h70l-54 -131l37 -6l56 137h71l-65 -160q110 -53 110 -166q0 -57 -30 -96q-35 -47 -86 -47q-64 0 -64 65q0 81 90 127q-19 26 -51 41l-129 -321q92 -115 92 -222q0 -143 -102 -268
q-103 -121 -246 -145l-82 -205h-72l82 201l-39 2l-82 -203h-69l88 219q-71 29 -106 86q-35 58 -35 143q0 28 6 60t20 58t37 44q23 17 57 17q64 0 64 -66zM424 -31q66 28 113 105q45 76 45 153q0 45 -19 86zM309 -43q8 -2 18 -2h21l172 428q-5 8 -11 16q-7 7 -15 17zM705 836
q-7 2 -12 2h-27l-103 -254l27 -31zM588 819q-78 -34 -78 -114q0 -13 3 -25q2 -13 7 -27z" />
    <glyph glyph-name="percent" unicode="%" horiz-adv-x="1442" 
d="M1186 616q55 0 102 -19t81 -52q34 -34 54 -81q19 -47 19 -102q0 -145 -121 -266q-119 -116 -270 -116q-56 0 -103 19t-81 53q-35 33 -54 79q-20 46 -20 100q0 149 120 267q62 60 130 89zM1157 483q-88 0 -158 -69q-69 -66 -69 -154q0 -32 11 -58q11 -27 31 -47
q19 -20 47 -31q27 -11 60 -11q86 0 156 67q72 72 72 156q0 31 -11 58t-31 47t-47 31zM457 1081q82 0 176 -57q49 -29 95 -43t91 -14q186 0 324 147h92l-748 -1108q-27 -39 -61 -39h-141q-33 0 -33 29q0 9 4 19q4 9 12 20l746 909q-51 -23 -103 -34t-106 -11t-103 12
q13 -38 13 -82q0 -149 -123 -266q-120 -117 -270 -117q-56 0 -102 19q-47 18 -81 52q-35 33 -54 80q-19 46 -19 101q0 148 120 265zM428 948q-43 0 -83 -17t-75 -52q-69 -66 -69 -154q0 -32 12 -58q11 -27 31 -46t47 -30t59 -11q86 0 156 67q72 69 72 154q0 33 -11 60
t-31 47q-20 19 -47 30z" />
    <glyph glyph-name="ampersand" unicode="&#x26;" horiz-adv-x="1378" 
d="M1212 938q-20 26 -20 68q0 22 8 43q7 20 21 36q13 15 32 24t41 9q84 0 84 -98q0 -139 -133 -254q53 -53 53 -129q0 -117 -110 -260q-45 -59 -97 -109t-112 -92q-253 -182 -518 -182q-168 0 -277 86q-118 93 -118 258q0 192 129 360q138 181 325 181q75 0 123 -54
q59 59 100 131q26 45 40 83q14 37 14 69q0 70 -52 70q-6 0 -12 -1t-12 -3q-3 -25 -14 -47q-12 -22 -30 -39t-40 -27q-23 -10 -47 -10q-82 0 -82 86q0 87 94 145q42 26 85 39q43 12 89 12q38 0 70 -13t56 -36q23 -23 37 -54q13 -32 13 -69q0 -24 -6 -45q-49 -226 -284 -395
q-185 -132 -453 -209q-2 -8 -2 -16v-15q0 -148 117 -250q110 -98 260 -98q186 0 344 117q159 120 198 297q2 11 3 20t1 19q0 73 -71 73q-98 0 -168 -84q20 -23 20 -59q0 -24 -9 -48q-10 -25 -26 -44q-17 -20 -38 -32q-21 -13 -45 -13q-78 0 -78 92q0 98 108 201q47 45 97 76
t104 51zM453 700q0 25 -29 25q-31 0 -60 -11q-30 -11 -56 -30t-47 -44q-21 -26 -34 -54q29 8 61 20q32 11 66 25z" />
    <glyph glyph-name="quotesingle" unicode="'" horiz-adv-x="584" 
d="M135 838h-69l266 544h252z" />
    <glyph glyph-name="parenleft" unicode="(" horiz-adv-x="737" 
d="M422 -211q-84 1 -150 39q-66 39 -111 106q-46 68 -70 162q-25 93 -25 205q0 114 24 229q24 114 68 220q44 105 106 199q61 93 136 165q74 71 160 118q85 46 177 58v-65q-61 -19 -120 -68q-60 -50 -114 -121t-100 -158q-46 -88 -79 -181q-34 -93 -53 -188t-19 -181
q0 -162 50 -281t153 -194z" />
    <glyph glyph-name="parenright" unicode=")" horiz-adv-x="743" 
d="M66 -147q112 63 203 162q91 98 156 221q64 122 99 261t35 283q0 83 -13 157t-38 133q-25 58 -61 99q-36 40 -82 56l28 65q82 -11 147 -54t110 -112q45 -70 69 -163q24 -94 24 -207q0 -94 -19 -191t-56 -201q-48 -132 -115 -237q-68 -105 -147 -179t-164 -115
q-86 -40 -170 -42z" />
    <glyph glyph-name="asterisk" unicode="*" horiz-adv-x="727" 
d="M365 1333q9 0 19 -8q9 -8 17 -19q7 -11 12 -23q5 -13 5 -23q0 -1 -3 -13t-8 -31t-10 -42q-6 -24 -11 -47q-5 -24 -8 -45t-3 -35q0 -13 10 -13q5 0 19 12t33 30t41 39t43 39t39 30q17 12 28 12q10 0 21 -2t21 -7q10 -6 17 -15q6 -10 6 -25q0 -8 -2 -19q-3 -11 -7 -21
q-5 -10 -12 -17t-16 -7q-5 0 -23 -4q-19 -4 -43 -10q-25 -7 -52 -15t-50 -16q-23 -9 -38 -17q-15 -9 -15 -15q0 -8 8 -11l152 -45q50 -14 73 -40t23 -60q0 -20 -19 -30q-19 -11 -42 -11q-11 0 -28 12q-18 11 -39 29q-21 17 -43 38q-22 20 -41 39q-20 18 -35 32
q-16 13 -23 16q-4 -4 -4 -8q0 -16 8 -46q7 -30 17 -63q9 -33 17 -63q7 -30 7 -47q0 -10 -6 -22q-6 -13 -15 -24q-10 -12 -20 -19q-11 -8 -20 -9q-56 18 -56 67q0 18 7 50q6 32 15 67q8 34 15 66q6 31 6 47q0 10 -4 10q-7 0 -41 -25q-37 -27 -64 -53t-48 -46q-21 -21 -38 -33
q-17 -13 -32 -13q-51 0 -51 53q0 25 26 47t78 39l148 45q6 3 6 6q0 6 -13 14q-14 7 -35 15t-45 16q-25 8 -46 15l-76 24q-43 28 -43 66q0 41 51 41q12 0 32 -11q19 -12 42 -29q23 -18 47 -38q23 -21 43 -39t35 -31t20 -14q6 0 6 12q0 17 -6 48q-7 31 -14 65q-8 34 -14 65
q-7 31 -7 48z" />
    <glyph glyph-name="plus" unicode="+" horiz-adv-x="932" 
d="M553 702h305v-172h-305v-307h-172v307h-307v172h307v306h172v-306z" />
    <glyph glyph-name="comma" unicode="," horiz-adv-x="391" 
d="M-66 -276q56 20 105 46q49 27 94 62q115 89 115 182q0 58 -58 70l-65 -68l-76 125l127 133q90 -6 148 -55q67 -52 67 -139q0 -25 -6 -49q-30 -152 -164 -254q-118 -95 -282 -119z" />
    <glyph glyph-name="hyphen" unicode="-" horiz-adv-x="707" 
d="M285 403q-36 0 -101 -41q-32 -20 -53 -30q-22 -10 -35 -10q-30 0 -30 32q0 25 110 187q37 51 72 51q7 0 19 -2q11 -3 24 -6q12 -4 24 -6q12 -3 19 -3h166q49 0 96 39q45 39 76 39q35 0 35 -28q0 -29 -101 -185q-34 -53 -74 -53q-9 0 -23 3q-14 2 -29 5q-16 3 -30 6
q-15 2 -24 2h-141z" />
    <glyph glyph-name="period" unicode="." horiz-adv-x="289" 
d="M289 176l-45 -205l-178 76l45 205z" />
    <glyph glyph-name="slash" unicode="/" horiz-adv-x="879" 
d="M997 1288l-934 -1804h-182l934 1804h182z" />
    <glyph glyph-name="zero" unicode="0" horiz-adv-x="965" 
d="M580 811q144 0 239 -92q96 -93 96 -238q0 -194 -159 -348q-158 -153 -353 -153q-72 0 -132 23q-61 22 -109 69q-96 91 -96 237q0 194 157 348zM547 655q-123 0 -223 -96q-99 -95 -99 -217q0 -45 16 -83q15 -38 43 -65q28 -28 67 -43q39 -16 85 -16q120 0 219 96
q51 48 76 103t25 115q0 45 -15 83q-16 38 -44 65t-66 43z" />
    <glyph glyph-name="one" unicode="1" horiz-adv-x="604" 
d="M424 160q0 -4 4 -8q49 -34 49 -60q0 -86 -94 -86q-77 0 -141 -6l-68 -12q-22 -5 -39 -7q-17 -1 -31 -1q-38 0 -38 40q0 59 67 74q29 9 74 41q23 17 36 31t15 27l66 309q2 6 3 11q1 4 1 9q0 31 -35 31q-5 0 -13 -1l-18 -2q-9 -1 -17 -2t-14 -1q-41 0 -41 39q0 35 48 63
l251 150q22 12 41 12q41 0 41 -37q0 -16 -16 -51q-11 -20 -16 -33q-5 -14 -7 -22z" />
    <glyph glyph-name="two" unicode="2" horiz-adv-x="801" 
d="M397 186q17 2 34 3t34 1q155 0 287 -30l-123 -160q-63 15 -127 23q-65 8 -131 8q-85 0 -158 -15q-74 -16 -137 -45l-27 58l205 141q74 53 131 100q56 47 94 90q105 114 105 207q0 44 -25 73q-26 28 -70 28q-111 0 -172 -138l-159 72q123 205 317 205q48 0 90 -15
q42 -16 73 -43q31 -28 49 -67t18 -86q0 -51 -28 -107q-29 -56 -85 -122z" />
    <glyph glyph-name="three" unicode="3" horiz-adv-x="733" 
d="M442 268q42 -16 77 -42q34 -27 58 -61t37 -75t13 -86q0 -62 -26 -125t-70 -121q-44 -57 -102 -107t-122 -87q-65 -36 -132 -57t-128 -21q-149 0 -149 53q0 25 19 42q19 18 44 18q5 0 19 -4q14 -3 32 -8q17 -4 35 -8q18 -3 31 -3q68 0 134 28t118 75t84 109t32 130
q0 40 -14 79t-39 70q-25 30 -59 49q-35 19 -76 19h-20l-9 64q58 28 117 76q59 47 107 101t78 108t30 94q0 42 -30 66t-72 24q-30 0 -58 -12q-29 -13 -53 -34q-25 -21 -44 -48q-20 -28 -32 -58l-166 74q108 217 338 217q49 0 93 -13q43 -14 76 -39t52 -60q19 -36 19 -81
q0 -75 -60 -162z" />
    <glyph glyph-name="four" unicode="4" horiz-adv-x="1034" 
d="M866 752q-60 -138 -104 -283t-70 -303q59 -6 89 -9q25 -3 26 -3q21 0 35 3t27 13q13 9 27 27t34 47l55 -31l-158 -221q-84 12 -157 18q-6 -63 -8 -128q-3 -64 -3 -132l-284 -147q42 117 75 220q33 104 56 195q-23 2 -45 2h-43q-116 0 -215 -7t-183 -21l-20 57l813 731z
M543 172q17 81 32 164q15 82 27 170l-383 -342q79 6 159 7z" />
    <glyph glyph-name="five" unicode="5" horiz-adv-x="903" 
d="M326 436q67 -13 123 -45q55 -32 95 -78q40 -47 63 -106q22 -60 22 -127q0 -214 -187 -404q-184 -190 -397 -190q-26 0 -54 3t-57 11q-81 22 -81 58q0 45 51 45q10 0 25 -3q16 -3 33 -7q17 -3 32 -6q16 -3 26 -3q165 0 297 129q136 129 136 291q0 100 -60 172
q-80 96 -301 117l451 504h297q18 0 34 8q15 7 28 17q13 9 24 17q11 7 20 7q31 0 31 -31q0 -23 -68 -100q-23 -25 -45 -49q-22 -25 -45 -48q-42 8 -81 12q-39 3 -76 3q-92 0 -177 -19z" />
    <glyph glyph-name="six" unicode="6" horiz-adv-x="1006" 
d="M1176 1221q-314 0 -586 -248q-277 -256 -277 -563q0 -131 58 -220q69 -102 190 -102q68 0 123 55q48 51 64 121q5 23 8 49q2 26 2 52q0 112 -49 184q-58 82 -166 82q-48 0 -88 -33l-39 47q120 111 258 111q61 0 110 -22q48 -23 82 -62t52 -92q18 -54 18 -115
q0 -188 -154 -338q-153 -147 -344 -147q-146 0 -233 106q-82 101 -82 250q0 53 12 104q37 178 132 327q95 148 251 273q312 250 672 250z" />
    <glyph glyph-name="seven" unicode="7" horiz-adv-x="967" 
d="M-123 -526l895 1142h-379q-93 0 -209 -104l-45 41l230 283q54 -45 98 -45h500l-877 -1317h-213z" />
    <glyph glyph-name="eight" unicode="8" horiz-adv-x="915" 
d="M387 651q-121 91 -121 221q0 82 34 153q33 71 99 134q131 125 295 125q108 0 187 -59q84 -66 84 -170q0 -108 -82 -205q-71 -83 -176 -135q176 -112 176 -271q0 -186 -154 -331q-154 -146 -340 -146q-127 0 -221 70q-102 76 -102 201q0 126 104 245zM637 758q34 19 63 48
t51 64q21 35 34 74q12 39 12 78q0 34 -10 64q-10 29 -28 52q-19 22 -45 35q-27 13 -61 13q-86 0 -157 -68q-70 -64 -70 -151q0 -39 23 -71q22 -33 67 -62zM461 604q-44 -22 -82 -56q-38 -35 -66 -76q-29 -42 -45 -88q-16 -47 -16 -93t16 -85q15 -39 43 -67q27 -29 66 -45
q38 -16 84 -16q103 0 178 82q80 83 80 184q0 47 -22 87q-23 40 -68 75q-10 8 -51 32z" />
    <glyph glyph-name="nine" unicode="9" horiz-adv-x="1010" 
d="M-109 -510q323 0 594 256q137 128 204 271q67 142 67 305q0 127 -49 213q-61 100 -181 100q-110 0 -182 -96q-34 -45 -51 -94q-17 -50 -17 -107q0 -46 14 -85q13 -39 39 -67q25 -28 62 -43q36 -16 82 -16q51 0 96 47l43 -45q-31 -29 -63 -64q-32 -36 -64 -81
q-46 -13 -88 -13q-59 0 -107 21q-49 22 -84 60t-54 90q-19 51 -19 110q0 187 154 332q156 147 342 147q145 0 233 -106q82 -100 82 -250q0 -53 -12 -105q-73 -350 -385 -600t-670 -250z" />
    <glyph glyph-name="colon" unicode=":" horiz-adv-x="412" 
d="M412 729l-45 -205l-179 76l43 205zM287 176l-43 -205l-178 76l43 205z" />
    <glyph glyph-name="semicolon" unicode=";" horiz-adv-x="467" 
d="M467 729l-43 -205l-180 76l45 205zM-31 -276q57 20 107 46q49 27 94 62q115 89 115 182q0 58 -58 70l-65 -68l-76 125l125 133q45 -3 85 -17q39 -15 68 -40t46 -59q16 -35 16 -78q0 -13 -1 -25t-3 -24q-35 -154 -166 -254q-119 -95 -283 -119z" />
    <glyph glyph-name="less" unicode="&#x3c;" horiz-adv-x="1118" 
d="M324 616l720 -315v-188l-970 424v157l970 424v-186z" />
    <glyph glyph-name="equal" unicode="=" horiz-adv-x="932" 
d="M858 866v-172h-784v172h784zM858 539v-174h-784v174h784z" />
    <glyph glyph-name="greater" unicode="&#x3e;" horiz-adv-x="1118" 
d="M795 616l-721 316v186l970 -424v-157l-970 -424v188z" />
    <glyph glyph-name="question" unicode="?" horiz-adv-x="723" 
d="M295 567q21 -99 151 -125l-190 -131q-111 84 -123 260q75 42 141 90q66 47 121 103q73 72 109 142q35 70 35 136q0 101 -90 160q-77 49 -185 49q-11 0 -36 -1q-26 -2 -64 -5l139 182h31q155 0 262 -67q127 -77 127 -225q0 -159 -145 -330q-57 -68 -127 -127zM289 207
l-45 -205l-178 76l43 205z" />
    <glyph glyph-name="at" unicode="@" horiz-adv-x="1343" 
d="M1020 862l47 -35q-184 -358 -184 -378q0 -31 28 -31q65 0 154 98q117 132 117 305q0 153 -115 242q-103 80 -262 80q-225 0 -406 -180q-180 -179 -180 -404q0 -183 141 -303q132 -113 320 -113q81 0 164 19q82 19 164 57l24 -57q-253 -156 -512 -156q-207 0 -332 131
q-122 131 -122 340q0 320 262 565q261 246 583 246q185 0 303 -94q129 -105 129 -285q0 -242 -194 -436q-161 -156 -315 -156q-100 0 -103 105q-116 -98 -219 -98q-56 0 -88 37q-33 37 -33 94q0 146 156 305q156 162 305 162q93 0 121 -95zM608 467q42 0 84 26q41 26 86 78
q45 53 67 101q21 47 21 90q0 72 -55 72q-73 0 -162 -113q-45 -57 -67 -103q-23 -47 -23 -86z" />
    <glyph glyph-name="A" unicode="A" 
d="M1731 571q-78 0 -154 -79l-119 -140q-371 -368 -803 -368q-222 0 -397 129q-192 140 -192 356q0 193 161 324q152 122 351 122q95 0 161 -34q80 -46 80 -138q0 -96 -78 -184q-78 -90 -174 -90q-37 0 -64 25q-28 24 -28 61q0 18 7 34q6 16 17 28t26 19q14 7 30 7
q44 0 66 -37q41 16 41 58q0 21 -10 39q-11 17 -27 30q-17 12 -38 19q-22 6 -44 6q-132 0 -236 -84q-108 -91 -108 -221q0 -155 112 -258q115 -103 267 -103q696 0 1259 942q77 131 146 234t131 180l77 -55q-49 -97 -80 -250l-188 -914q-2 -9 -3 -18t-1 -18q0 -26 10 -45
q9 -20 29 -31q2 0 74 -23q39 -12 39 -43q0 -51 -54 -51h-487q-49 0 -49 43q0 35 57 55q46 17 75 28t40 19q69 42 90 134q6 30 15 73q8 37 19 92q10 54 25 127h-71zM1772 662q32 0 49 22q5 8 8 22q3 13 8 33l47 224q-155 -247 -155 -261z" />
    <glyph glyph-name="B" unicode="B" horiz-adv-x="1567" 
d="M1307 758q55 -17 100 -42q45 -26 80 -61q40 -42 60 -88t20 -100q0 -185 -189 -336q-167 -131 -397 -131h-526q-49 0 -49 45q0 34 63 55q104 29 129 43q75 43 96 138l219 1009q-89 15 -172 15q-218 0 -370 -91q-69 -43 -104 -90q-36 -48 -36 -102q0 -37 27 -80
q27 -44 27 -68q0 -81 -76 -81q-63 0 -107 59q-36 52 -36 123q0 175 229 297q214 114 520 114q717 0 717 -354zM868 217q-2 -8 -3 -15q-1 -8 -1 -16q0 -50 56 -59h96q96 0 166 21q69 20 114 58q45 37 67 90q21 52 21 116q0 60 -20 111t-60 88q-41 36 -102 57q-62 20 -145 20
h-84zM995 788q11 -2 23 -2h24q121 0 224 56q123 67 123 178q0 90 -78 156q-76 67 -168 67q-48 0 -62 -59z" />
    <glyph glyph-name="C" unicode="C" horiz-adv-x="1153" 
d="M963 1270q-102 0 -193 -32q-92 -33 -169 -92q-77 -60 -138 -143q-62 -83 -104 -184q-43 -101 -66 -217q-23 -117 -23 -242q0 -142 31 -261q30 -120 85 -207q55 -86 131 -135q76 -48 167 -48q253 0 342 127q24 34 40 53q15 19 27 28q12 10 24 12q12 3 30 3q38 0 55 -16
q17 -15 17 -47q0 -31 -21 -63q-21 -31 -58 -61q-37 -29 -88 -55t-111 -46q-61 -19 -128 -30q-68 -11 -137 -11q-130 0 -241 53q-112 54 -194 149q-82 96 -128 229q-47 133 -47 292q0 150 31 286t88 252q56 116 137 210q80 93 179 159t214 102q115 35 241 35q51 0 99 -12
q47 -13 84 -36q36 -24 58 -57q22 -34 22 -75q0 -16 -7 -30t-18 -24t-26 -16t-31 -6q-23 0 -37 12q-15 11 -25 29q-10 17 -18 37q-9 20 -20 38q-12 17 -29 29z" />
    <glyph glyph-name="D" unicode="D" horiz-adv-x="1583" 
d="M1583 682q0 -290 -225 -492q-217 -192 -512 -192h-520q-50 0 -50 45q0 34 58 55q46 17 75 28t40 19q35 22 57 56q22 33 33 80l196 837q-157 49 -362 49q-47 0 -88 -22q-23 -14 -35 -31q-12 -18 -12 -41q0 -11 3 -30q3 -20 3 -31q0 -22 -7 -42q-7 -21 -19 -36
q-13 -16 -30 -25q-17 -10 -38 -10q-19 0 -34 8q-16 7 -27 20q-11 12 -17 28t-6 34q0 117 96 197q92 74 211 74q15 0 103 -6q87 -7 249 -19q48 -5 101 -6q53 -2 112 -2q131 0 242 -34t202 -103zM825 109q239 0 412 176q87 88 130 192q42 103 42 223q0 184 -117 297
q-113 115 -299 115q-68 0 -88 -78l-184 -796q-6 -35 -6 -66z" />
    <glyph glyph-name="E" unicode="E" horiz-adv-x="1577" 
d="M1061 96q190 0 323 172l54 80q16 23 35 23q40 0 40 -41q0 -15 -120 -234q-56 -98 -140 -98h-876q-49 0 -49 43q0 39 45 51q63 14 103 27t59 24q75 40 98 133l219 877q-102 18 -211 18q-75 0 -145 -17q-71 -17 -136 -52q-155 -82 -155 -219q0 -30 37 -64t37 -65
q0 -16 -7 -30q-7 -15 -19 -25q-13 -11 -29 -17t-34 -6q-56 0 -92 51q-32 45 -32 104q0 201 172 318q74 51 164 76q90 24 196 24q62 0 119 -2q56 -3 108 -8q56 -5 85 -9q23 -3 24 -3h416q51 0 98 18q20 8 34 13q13 4 21 4q74 0 74 -68v-12q0 -6 -2 -11l-72 -282
q-9 -35 -41 -35q-41 0 -41 47v197q0 57 -57 57h-322l-112 -444h258q73 0 121 28q28 17 57 56q25 28 39 28q33 0 33 -32q0 -8 -9 -48q-10 -40 -28 -114q-17 -75 -28 -118q-12 -44 -17 -58t-13 -20q-9 -7 -20 -7q-33 0 -33 55q0 125 -133 125h-254l-127 -510h285z" />
    <glyph glyph-name="F" unicode="F" horiz-adv-x="1595" 
d="M946 711h86q73 0 123 30q14 10 29 25t30 37q26 31 39 31q27 0 27 -37q0 -20 -35 -166q-17 -72 -28 -115q-12 -44 -17 -59q-9 -31 -35 -31q-32 0 -32 45q0 137 -152 137h-13q-7 0 -18 -2h-28l-97 -379q-6 -18 -6 -34q0 -55 51 -76q23 -6 48 -12q24 -7 47 -15
q49 -12 49 -47q0 -45 -51 -45h-572q-49 0 -49 41t47 53q128 29 164 49q74 44 98 135l217 877q-101 18 -211 18q-151 0 -290 -86q-162 -97 -162 -237q0 -61 41 -88t41 -62q0 -18 -7 -32q-8 -14 -20 -24t-27 -15q-16 -6 -32 -6q-59 0 -99 61q-36 55 -36 115q0 201 178 333
q158 119 370 119q29 0 71 -2q42 -3 97 -8q114 -12 168 -12h418q13 0 34 6q20 5 42 12q22 6 43 12q20 5 33 5q75 0 75 -68q0 -6 -1 -12t-3 -11l-71 -282q-5 -17 -14 -26q-10 -9 -27 -9q-41 0 -41 47v197q0 57 -56 57h-323z" />
    <glyph glyph-name="G" unicode="G" horiz-adv-x="1386" 
d="M1184 1053q45 0 88 55q18 22 31 45q12 23 20 49q-98 34 -98 129q0 24 9 46q9 21 25 37q15 15 36 25q20 9 44 9q25 0 46 -11q20 -12 35 -31t24 -43q8 -25 8 -50q0 -124 -74 -213q-24 -28 -69 -63q-45 -36 -111 -81q-119 -79 -133 -79q-55 0 -55 57q0 6 3 15q3 8 7 17
q4 8 7 17q3 8 3 14q0 57 -74 97q-63 34 -122 34q-257 0 -428 -237q-154 -214 -154 -481q0 -165 72 -285q86 -139 239 -139q190 0 309 127q121 127 121 317q0 74 -35 121q-39 55 -110 55q-85 0 -160 -63q-74 -62 -74 -146q0 -29 27 -32q27 106 109 106q19 0 36 -7
q17 -8 30 -20q12 -13 19 -30t7 -35q0 -31 -12 -58t-33 -47t-48 -31q-28 -12 -59 -12t-58 12q-28 11 -48 31q-21 20 -33 47t-12 58q0 125 92 211q91 88 217 88q125 0 217 -86q94 -85 94 -209q0 -219 -190 -360q-88 -63 -187 -95q-100 -32 -215 -32q-201 0 -352 145
q-75 72 -112 159t-37 187q0 330 243 582t574 252q139 0 225 -93q8 -9 19 -23q10 -14 24 -34z" />
    <glyph glyph-name="H" unicode="H" horiz-adv-x="1696" 
d="M1171 680l31 145q37 170 121 289q106 148 258 148q22 0 43 -9t37 -24q16 -16 26 -36q9 -20 9 -42q0 -19 -7 -37q-8 -18 -21 -32t-30 -22q-17 -9 -36 -9q-38 0 -66 34q-27 37 -41 37q-36 0 -76 -186l-153 -709q-2 -11 -3 -20t-1 -17q0 -26 9 -45t29 -30q6 -4 76 -25
q39 -12 39 -43q0 -49 -55 -49h-486q-49 0 -49 43q0 34 58 55q48 17 77 28q28 11 39 19q70 45 88 133l70 334h-350q-43 -162 -83 -269q-40 -108 -77 -165q-132 -196 -393 -196q-39 0 -73 13q-35 14 -60 38q-26 24 -40 57q-15 32 -15 70q0 30 11 57t31 48q19 20 46 32
q26 12 57 12q16 0 31 -6t27 -16t19 -24t7 -30q0 -35 -37 -59t-37 -45q0 -23 22 -38q21 -15 46 -15q120 0 190 106q23 37 50 114t59 195l80 289q58 212 215 357q-34 2 -60 2h-43q-202 0 -319 -93q-115 -89 -115 -215q0 -6 1 -15q0 -10 1 -20q1 -11 2 -20v-16q0 -117 -82 -117
q-18 0 -32 9q-15 9 -25 24t-15 34q-6 18 -6 37q0 97 42 179q41 81 122 147q163 135 391 135q88 0 184 12t201 35q5 -11 9 -26q3 -16 8 -39q-148 -35 -227 -203q-14 -32 -38 -108q-25 -76 -57 -197h346z" />
    <glyph glyph-name="I" unicode="I" horiz-adv-x="934" 
d="M502 190q0 -26 11 -45q10 -19 30 -30q5 -5 73 -25q39 -12 39 -43q0 -49 -55 -49h-485q-49 0 -49 43q0 35 57 55q96 35 117 49q35 22 57 54q21 32 31 77l149 701q5 20 7 35q1 15 1 26q0 67 -71 76q-35 5 -53 18q-19 13 -19 33q0 60 74 60h84q28 -2 48 -2h34q52 0 95 2
q43 1 77 6l67 14q22 5 39 8q17 2 31 2q43 0 43 -43q0 -33 -60 -55q-48 -17 -77 -28t-41 -19q-71 -47 -92 -143l-158 -740q-2 -11 -3 -20z" />
    <glyph glyph-name="J" unicode="J" horiz-adv-x="1094" 
d="M1159 1221q-109 -29 -194 -151q-86 -122 -146 -337l-209 -753q-28 -102 -77 -176t-112 -122q-64 -48 -140 -71t-158 -23q-39 0 -73 13q-35 14 -61 37q-25 24 -40 56t-15 70q0 31 11 58q12 28 31 49q20 21 47 33q26 12 57 12q16 0 31 -6t27 -16t19 -24t7 -30
q0 -38 -37 -59q-35 -26 -35 -47q0 -25 21 -44q20 -18 45 -18q91 0 173 104q81 104 138 316l115 426q34 128 71 231q36 102 74 183q74 151 164 235q-31 2 -56 2h-44q-202 0 -318 -92q-115 -89 -115 -213v-37q2 -12 2 -21v-13q0 -119 -81 -119q-19 0 -33 9q-15 9 -25 24
t-15 34q-5 18 -5 37q0 207 180 338q163 123 377 123q88 0 184 12t199 37z" />
    <glyph glyph-name="K" unicode="K" horiz-adv-x="1714" 
d="M1044 637q35 -151 84 -288t108 -253q59 -117 128 -211q68 -94 143 -160t155 -102q79 -35 161 -35q112 0 199 42q87 43 141 132q-20 3 -38 12t-32 21q-14 13 -22 29q-9 17 -9 35q0 21 11 38q11 18 28 30q17 13 38 20q21 8 42 8q53 0 79 -29q26 -28 26 -73q0 -33 -14 -72
q-15 -38 -43 -76t-71 -74t-99 -63t-126 -44q-71 -16 -155 -16q-649 0 -883 998l-133 -119q-29 -99 -43 -152q-14 -54 -14 -65q0 -29 22 -45t49 -27q26 -11 48 -21q22 -11 22 -30q0 -49 -55 -49h-465q-50 0 -50 43q0 15 14 30q14 14 40 23q56 20 91 37t58 38q22 20 35 46
t25 64l206 704q13 39 13 68q0 69 -115 69q-83 0 -159 -18q-77 -19 -136 -49q-59 -31 -94 -69q-35 -39 -35 -79q0 -12 6 -26t14 -29q7 -15 13 -29q6 -15 6 -28q0 -21 -7 -39q-7 -19 -19 -32q-13 -14 -30 -22t-36 -8q-23 0 -41 13q-19 12 -32 33t-20 49q-7 27 -7 57
q0 72 48 137q47 65 129 114t193 78q110 29 236 29h434q49 0 49 -45q0 -15 -10 -26t-25 -19t-32 -13q-18 -6 -33 -12q-104 -49 -137 -167l-107 -367l422 365q80 68 80 129q0 23 -17 37q-18 13 -39 23q-22 10 -39 20q-18 10 -18 26q0 49 51 49h453q43 0 43 -41q0 -45 -49 -45
q-23 0 -58 -12q-35 -13 -75 -35t-82 -51q-43 -29 -80 -62z" />
    <glyph glyph-name="L" unicode="L" horiz-adv-x="1184" 
d="M367 98q86 -11 182 -38t203 -70q32 -14 124 -56q91 -41 240 -110q90 -42 152 -69q61 -27 96 -40q72 -26 138 -40q66 -13 126 -13q57 0 103 9q46 10 84 30q61 35 61 72q0 8 -2 10q-94 6 -94 63q0 62 108 62q48 0 82 -28q33 -28 33 -73q0 -121 -139 -192q-110 -55 -248 -55
q-139 0 -305 59q-45 17 -115 49q-71 32 -170 80q-140 68 -242 113q-103 46 -166 69q-242 93 -432 93q-24 0 -48 -2q-25 -2 -48 -5l-24 62q35 26 89 49q53 22 126 39q314 76 378 391l86 420q5 20 7 35t2 26q0 67 -72 76q-35 5 -52 18q-18 13 -18 33q0 60 74 60h82
q28 -2 49 -2h35q54 0 96 2q42 1 74 6l70 14q21 5 38 8q17 2 29 2q45 0 45 -43q0 -34 -59 -55q-48 -17 -78 -28q-31 -11 -43 -19q-35 -23 -57 -59t-33 -84l-84 -412q-34 -174 -170 -301q-68 -63 -146 -101z" />
    <glyph glyph-name="M" unicode="M" horiz-adv-x="2329" 
d="M1389 868q-91 -180 -190 -324q-100 -144 -212 -255q-290 -297 -612 -297q-139 0 -225 98q-84 99 -84 240q0 66 21 127q21 60 65 114q85 111 217 111q37 0 70 -13q32 -13 56 -36t38 -54t14 -67q0 -31 -10 -57q-11 -26 -29 -44q-19 -19 -44 -29q-26 -11 -56 -11
q-31 0 -52 21q-22 21 -22 52q0 37 35 60q34 25 34 41q0 26 -45 26q-93 0 -151 -73q-60 -72 -60 -166q0 -96 82 -160q76 -57 179 -57q263 0 565 305q137 139 250 312q113 172 202 382h-411q-92 0 -150 -37q-51 -32 -51 -65q0 -6 7 -14q6 -8 14 -18q7 -11 14 -23q6 -12 6 -25
q0 -16 -7 -31t-19 -27t-28 -19t-34 -7q-19 0 -36 10q-17 9 -30 25q-13 15 -20 35q-8 19 -8 40q0 107 116 172q48 26 101 40t110 14h590q-23 -26 -36 -45q-14 -20 -19 -31q-18 -35 -18 -90q0 -26 2 -57q1 -31 6 -68l12 -90q4 -31 4 -33q405 457 631 457q54 0 100 -23
q58 -27 58 -78q0 -19 -7 -35q-8 -17 -21 -29t-30 -19q-18 -7 -37 -7q-46 0 -80 45q-30 47 -43 47q-79 0 -155 -184q-96 -227 -96 -467q0 -346 198 -346q113 0 113 45q0 5 -2 14q-2 8 -5 18q-3 9 -5 18q-2 8 -2 14q0 32 22 57q21 25 53 25q31 0 52 -24q20 -24 20 -56
q0 -53 -21 -94q-21 -42 -63 -74q-82 -64 -188 -64q-152 0 -238 152q-35 63 -53 135q-19 72 -19 154q0 247 140 510q-53 -45 -130 -127q-78 -82 -184 -201l2 -96q0 -99 -15 -180q-16 -82 -42 -150q-82 -215 -276 -215q-20 0 -36 9q-17 8 -29 23q-12 14 -19 33q-7 18 -7 39
q0 100 71 230q70 130 210 292zM1411 473q-78 -99 -118 -172t-40 -123q0 -67 35 -67z" />
    <glyph glyph-name="N" unicode="N" horiz-adv-x="1987" 
d="M1399 301q24 177 75 327q50 150 121 260t159 172q87 62 185 62q22 0 44 -8q21 -8 37 -21q16 -14 26 -33t10 -40q0 -42 -28 -69t-70 -27q-55 0 -82 47q-53 -21 -102 -65t-93 -104q-44 -61 -81 -136q-38 -75 -67 -159q-29 -85 -49 -176q-21 -91 -30 -184q250 -630 692 -630
q58 0 110 16q51 16 91 45q39 30 66 71q27 42 38 93q-96 15 -96 94q0 42 34 70t87 28q27 0 50 -11q23 -10 40 -28q16 -17 26 -41q9 -24 9 -51q0 -72 -39 -140t-111 -121q-72 -52 -174 -84q-102 -31 -227 -31q-192 0 -346 85q-154 86 -272 263q-119 177 -203 449
q-85 272 -137 644l-258 -458q-118 -209 -240 -312q-122 -104 -256 -104q-52 0 -101 18q-49 17 -87 49q-38 31 -61 75t-23 97q0 46 19 85t51 68q31 28 73 44t88 16q96 0 96 -81q0 -21 -8 -38t-21 -29q-13 -13 -30 -19q-18 -7 -37 -7q-59 0 -80 52q-47 -38 -47 -93
q0 -30 15 -55q14 -25 38 -44t54 -29q30 -11 61 -11q186 0 403 316q51 72 119 192q67 120 154 291q39 76 39 106q0 50 -156 50q-78 0 -154 -12q-76 -13 -136 -34t-97 -49q-37 -29 -37 -61q0 -13 13 -26q13 -14 29 -28t29 -29t13 -30q0 -63 -78 -63q-27 0 -52 9q-26 9 -45 26
q-19 16 -30 39q-12 22 -12 49q0 66 45 124t123 102q78 43 185 68q106 25 229 25q121 0 297 -24q42 -269 87 -475z" />
    <glyph glyph-name="O" unicode="O" horiz-adv-x="1253" 
d="M803 1235q100 0 183 -35q82 -36 142 -99q59 -63 92 -149t33 -186q0 -95 -28 -189q-29 -94 -80 -179q-51 -86 -120 -159q-70 -73 -152 -126q-82 -54 -173 -84q-91 -31 -184 -31q-98 0 -180 36q-83 35 -143 98q-60 62 -93 149q-34 86 -34 188q0 94 29 188q28 93 79 178
q50 85 119 158t151 127t174 85zM266 547q0 -87 26 -163q25 -77 70 -134t108 -90q62 -33 136 -33q90 0 169 45t138 121q59 75 93 173t34 204q0 87 -25 164q-25 76 -70 133t-107 90q-63 33 -138 33q-59 0 -114 -21q-56 -21 -104 -58t-88 -88t-68 -111q-29 -61 -44 -128z" />
    <glyph glyph-name="P" unicode="P" horiz-adv-x="1817" 
d="M1176 1145q-32 3 -65 5q-33 1 -69 1q-85 0 -170 -7q-85 -8 -165 -22q-81 -14 -156 -33q-75 -20 -139 -45q-203 -76 -203 -172q0 -51 113 -81q114 -32 114 -91q0 -46 -53 -73q-22 -11 -46 -16t-50 -5q-92 0 -156 64q-65 65 -65 155q0 164 241 283q82 40 180 71
q97 30 209 52q97 18 197 28q99 9 203 9q260 0 446 -64q275 -92 275 -297q0 -158 -136 -248q-116 -77 -284 -77q-38 0 -76 4q-39 4 -74 12l-80 -371q-6 -21 -6 -39q0 -65 78 -88q78 -21 78 -53q0 -49 -55 -49h-488q-49 0 -49 43q0 34 59 55q47 17 76 28q28 11 39 19
q70 46 88 133zM1264 676q21 -5 44 -7q23 -3 46 -3q57 0 106 13q48 12 86 38q94 60 94 168q0 168 -280 233z" />
    <glyph glyph-name="Q" unicode="Q" horiz-adv-x="1329" 
d="M731 20q51 -60 131 -116q79 -55 178 -103t213 -88q114 -39 235 -67q121 -27 245 -43q123 -15 241 -15q96 0 190 14t173 38q78 25 134 58q55 33 75 71q-58 9 -58 59q0 61 74 61q19 0 37 -8q18 -7 32 -20q13 -13 21 -30t8 -36q0 -59 -54 -112q-54 -52 -150 -92
q-96 -39 -227 -62t-285 -23q-254 0 -482 36q-228 37 -413 102q-186 65 -318 156q-133 91 -196 200q-92 7 -167 45q-76 38 -130 100q-55 62 -85 145q-30 82 -30 179q0 94 29 188q28 93 79 178q50 85 119 158t151 127t174 85q91 30 185 30q100 0 183 -35q83 -36 143 -99
q59 -63 92 -149t33 -186q0 -81 -21 -161q-21 -81 -59 -156t-91 -143t-117 -124q-65 -56 -139 -97zM324 547q0 -86 25 -162q25 -77 70 -134t107 -90q62 -34 136 -34q88 0 168 46q79 45 139 121q60 75 96 173q35 97 35 201q0 86 -26 163q-26 76 -71 134q-46 58 -109 92
q-63 33 -136 33q-92 0 -171 -46q-79 -47 -137 -123q-59 -77 -92 -174z" />
    <glyph glyph-name="R" unicode="R" horiz-adv-x="1505" 
d="M2277 -240q-49 8 -73 31q-25 23 -25 64q0 22 11 40q10 18 28 31q17 13 39 20q21 7 43 7q27 0 50 -11q23 -10 41 -28q17 -17 27 -41q9 -24 9 -51q0 -170 -162 -277q-75 -51 -172 -76q-98 -24 -217 -24q-387 0 -627 362q-97 147 -170 333t-121 413q-18 -2 -38 -2h-43
l-99 -334q-6 -24 -6 -43q0 -55 70 -74q69 -15 69 -49q0 -51 -55 -51h-463q-51 0 -51 45q0 32 55 53q45 16 73 28q28 11 40 19q34 23 58 57t38 81l258 884q-35 5 -69 7t-68 2q-97 0 -179 -17q-83 -18 -149 -53q-123 -62 -123 -139q0 -12 6 -26t14 -29q7 -15 13 -30t6 -30
q0 -21 -7 -39q-7 -19 -19 -33q-13 -14 -30 -22t-36 -8q-50 0 -78 57q-11 23 -16 48q-6 24 -6 52q0 153 186 256q175 99 424 99q335 0 547 -99q221 -104 221 -274q0 -133 -135 -221q-104 -69 -256 -97q53 -202 124 -368q70 -167 161 -301q250 -367 577 -367q52 0 102 16
q49 17 91 46q41 30 71 71zM903 645q198 0 311 74q115 74 115 168q0 158 -285 243z" />
    <glyph glyph-name="S" unicode="S" horiz-adv-x="981" 
d="M797 1208q9 0 24 6t32 13l34 12q16 6 28 6q66 0 66 -59q0 -16 -15 -76q-16 -60 -48 -166q-13 -45 -48 -45q-44 0 -53 37q-2 5 -2 23v51q0 118 -182 118q-201 0 -201 -127q0 -108 162 -208q195 -121 250 -179q114 -113 114 -274q0 -186 -143 -287q-127 -92 -317 -92
q-37 0 -74 3t-72 11l-28 7q-20 5 -54 16q-29 8 -46 12q-18 4 -23 4q-6 0 -16 -1q-10 -2 -20 -3q-11 -2 -20 -3q-10 -1 -16 -1q-63 0 -63 51q0 17 18 41q43 61 66 119q23 57 43 119q17 45 57 45q53 0 53 -53q0 -6 -1 -15q-2 -10 -3 -20q-2 -10 -3 -19q-1 -10 -1 -16
q0 -43 18 -79q18 -37 48 -63q30 -27 70 -42q39 -15 83 -15q111 0 182 39q95 49 95 150q0 143 -177 258q-97 65 -154 105q-58 39 -75 55q-117 106 -117 241q0 152 131 238q116 78 271 78q11 0 29 -2q17 -3 36 -5q18 -3 35 -5z" />
    <glyph glyph-name="T" unicode="T" horiz-adv-x="1729" 
d="M936 227q-2 -11 -3 -20t-1 -19q0 -52 41 -73q8 -4 27 -8q18 -4 37 -10q19 -7 34 -18q14 -12 14 -32q0 -49 -55 -49h-485q-49 0 -49 43q0 35 57 55q58 22 95 39q36 17 58 36q21 19 32 44q11 24 20 61l188 857h-137q-122 0 -224 -18q-103 -18 -177 -47t-115 -64
q-41 -36 -41 -70q0 -20 19 -40q19 -21 42 -41q22 -20 41 -38q19 -19 19 -35q0 -18 -9 -36q-9 -19 -24 -34q-15 -16 -33 -26q-19 -10 -37 -10q-42 0 -79 22t-65 54q-28 31 -44 67q-16 35 -16 62q0 64 56 125q55 61 150 109q94 48 220 77q125 29 264 29h876q15 0 31 12
q15 12 30 27q15 14 30 26q14 12 26 12q53 0 53 -51q0 -8 -2 -16q-3 -8 -8 -19q-4 -8 -18 -34q-15 -27 -35 -62t-44 -74q-25 -40 -48 -73q-24 -33 -45 -54q-22 -22 -37 -22q-43 0 -43 47q0 11 7 33q6 21 15 44q8 23 15 45q6 21 6 32q0 41 -39 41h-391z" />
    <glyph glyph-name="U" unicode="U" horiz-adv-x="1591" 
d="M240 668q27 30 65 30q19 0 36 -8t30 -21q13 -14 21 -32q7 -18 7 -37q0 -52 -51 -86q-44 -27 -100 -27q-79 0 -131 64q-51 63 -51 143q0 242 204 404q189 149 439 149h82q172 0 274 39l55 -41l-198 -313q-66 -103 -100 -233q-34 -131 -34 -293q0 -45 13 -89q12 -44 35 -86
q26 -51 61 -75q34 -25 76 -25q198 0 373 254q174 255 174 561q0 76 -74 105q-72 28 -72 77q0 24 12 44q11 20 29 35q18 14 41 22t47 8q31 0 56 -12t43 -32q18 -21 28 -48t10 -58q0 -395 -213 -731q-91 -146 -208 -245q-76 -63 -147 -95t-140 -32q-137 0 -225 110
q-84 102 -84 240q0 391 323 788h-332q-80 0 -150 -24q-70 -25 -130 -76q-129 -108 -129 -264z" />
    <glyph glyph-name="V" unicode="V" horiz-adv-x="1319" 
d="M983 1092q37 53 37 82q0 20 -41 32q-39 12 -39 43q0 39 41 39h373q39 0 39 -39t-39 -39q-35 0 -75 -14q-41 -14 -87 -43q-84 -56 -129 -119l-739 -1059l-12 -51q-5 -16 -5 -18q-15 -43 -47 -43q-39 0 -39 43v1206q0 19 -10 37t-26 32q-16 13 -36 21q-21 8 -43 8
q-40 0 -40 39t43 39h432q47 0 47 -39q0 -30 -41 -43q-123 -33 -123 -135v-790z" />
    <glyph glyph-name="W" unicode="W" horiz-adv-x="2234" 
d="M1896 1092q39 52 39 82q0 20 -41 32q-41 13 -41 43q0 39 41 39h373q41 0 41 -39t-41 -39q-35 0 -76 -14t-86 -43q-42 -26 -73 -56q-31 -31 -54 -63l-735 -1052q-2 -2 -20 -70q-16 -49 -49 -49q-37 0 -37 43v586l-357 -510q-2 -2 -20 -72q-12 -47 -49 -47t-37 43v1149
q0 121 -84 121q-146 0 -262 -95q-123 -101 -123 -245q0 -52 33 -84q27 30 65 30q18 0 35 -7q17 -8 30 -21q12 -13 20 -30q7 -17 7 -36q0 -50 -51 -78q-44 -24 -98 -24q-38 0 -71 16q-33 15 -57 41t-38 61t-14 74q0 229 213 379q189 131 432 131h1067q41 0 41 -39t-41 -39
q-68 0 -148 -59q-35 -25 -63 -54t-51 -63l-179 -252v-501zM1434 1092q36 51 36 86q0 28 -32 28q-24 0 -43 -12t-31 -31q-13 -19 -20 -43t-7 -49v-119zM1137 659v435q0 25 -11 46q-11 20 -29 35t-42 23t-51 8q-56 0 -93 -30q-37 -31 -37 -82v-813z" />
    <glyph glyph-name="X" unicode="X" horiz-adv-x="1479" 
d="M737 438q-109 -221 -228 -329q-119 -109 -247 -109q-63 0 -110 37q-56 39 -56 98q0 25 12 46q11 20 30 35t44 24q24 8 49 8q19 0 37 -5q17 -5 31 -14q14 -10 23 -24q8 -15 8 -33t-11 -37h11q100 0 225 162q85 111 156 252l-99 389q-56 215 -145 215q-102 0 -172 -76
q-35 -38 -54 -82q-20 -45 -22 -96q14 -20 21 -44q6 -24 6 -52q0 -98 -70 -98q-52 0 -86 61q-24 49 -24 108q0 147 159 261q149 104 301 104q101 0 158 -72q42 -52 70 -166l69 -270q265 465 490 465q31 0 61 -9q29 -10 53 -27q23 -18 38 -42q14 -25 14 -55q0 -25 -11 -45
q-12 -21 -31 -36q-20 -15 -44 -23q-25 -9 -50 -9q-18 0 -36 5t-31 15q-14 9 -22 23q-9 13 -9 31q0 16 10 39h-10q-95 0 -227 -172q-20 -28 -62 -92q-43 -65 -106 -168l55 -213q14 -54 34 -101q19 -48 42 -90q66 -118 147 -118q35 0 70 13q34 13 64 36q29 22 51 52
q21 30 30 64l68 -2q5 -17 7 -33q1 -17 1 -34q0 -121 -104 -195q-48 -32 -102 -49q-54 -16 -117 -16q-116 0 -203 94q-38 42 -64 94q-27 51 -43 111z" />
    <glyph glyph-name="Y" unicode="Y" horiz-adv-x="2513" 
d="M1804 94q-38 56 -63 125q-25 68 -33 152q-3 26 -3 101q-1 74 -1 198q0 58 -12 118q-12 59 -34 115q-23 55 -53 103q-31 48 -68 84t-79 57q-42 20 -86 20q-39 0 -82 -17q-43 -18 -79 -47q-36 -30 -59 -68q-24 -38 -24 -79q0 -36 14 -54t35 -26q21 -9 46 -13q24 -4 45 -12
t35 -24q14 -17 14 -51q0 -28 -15 -53t-38 -43q-24 -19 -52 -30q-29 -11 -57 -11q-37 0 -67 17q-31 16 -53 43q-23 27 -35 62q-13 35 -13 73q0 90 39 169t103 139q64 59 147 94q82 34 170 34q94 0 169 -42t128 -116q52 -74 80 -175t28 -220v-78q0 -128 17 -225
q17 -98 49 -164l510 842q-27 -7 -53 -7q-20 0 -49 9q-30 9 -59 20t-54 20t-37 9q-84 0 -102 -103q24 -3 46 -12t39 -23t27 -32q10 -19 10 -41q0 -78 -69 -78q-26 0 -49 13q-23 12 -40 33t-26 49q-10 28 -10 59q0 47 18 91q17 44 48 78q30 33 71 54q41 20 88 20q13 0 39 -5
q25 -5 53 -11q27 -6 52 -11t38 -5q76 0 115 71l64 -16q0 -23 -6 -43q-6 -21 -17 -44q-12 -23 -30 -52t-42 -68l-483 -799q-254 -418 -612 -625q-358 -206 -817 -206q-103 0 -196 19q-94 20 -164 55q-71 35 -112 83q-42 49 -42 107q0 40 18 74q17 35 48 60q31 26 72 41t89 15
q32 0 63 -9q31 -8 55 -23t39 -36q15 -20 15 -44q0 -31 -22 -52q-23 -20 -54 -20q-19 0 -33 8q-14 9 -25 19q-12 11 -22 19q-11 9 -24 9q-29 0 -51 -21q-23 -21 -23 -50q0 -39 33 -73q32 -34 85 -59q52 -25 118 -39t133 -14z" />
    <glyph glyph-name="Z" unicode="Z" horiz-adv-x="1292" 
d="M842 1102q-28 0 -64 3q-37 2 -84 5q-55 5 -96 8q-42 2 -68 2q-68 0 -127 -20t-110 -62q-109 -89 -109 -219q0 -37 31 -37q4 0 12 4t19 9q11 4 23 8t24 4q18 0 35 -6t30 -17t21 -26t8 -33q0 -28 -13 -50q-14 -23 -35 -39q-22 -16 -50 -25t-56 -9q-35 0 -65 14t-53 38
t-36 56t-13 68q0 198 163 334q79 63 169 95q89 32 192 32q25 0 62 -2q36 -3 87 -8t88 -6q37 -2 62 -2q121 0 201 43q20 11 35 16q15 4 26 4q55 0 55 -57q0 -25 -14 -45l-799 -1073h649q41 0 72 14q41 18 41 51q0 11 -45 43q-43 34 -43 80q0 21 9 38t24 30q14 12 34 19
q19 7 40 7q24 0 46 -9q21 -9 37 -25t26 -37q9 -21 9 -46q0 -60 -23 -110t-71 -88q-96 -78 -217 -78h-715q-60 0 -98 -14q-9 -3 -16 -5q-8 -2 -13 -2q-55 0 -55 56q0 22 14 43l766 1026h-22z" />
    <glyph glyph-name="bracketleft" unicode="[" horiz-adv-x="778" 
d="M301 -193q-2 -11 -3 -20t-1 -18q0 -63 76 -84q63 -20 63 -50q0 -2 -1 -4t-1 -4q-9 -43 -61 -43h-307l360 1700h307q45 0 45 -33q0 -3 -1 -6t-1 -6q-6 -34 -55 -49q-38 -11 -60 -18q-23 -8 -28 -11q-26 -15 -42 -41t-24 -61z" />
    <glyph glyph-name="backslash" unicode="\" horiz-adv-x="797" 
d="M797 -522h-183l-548 1806h182z" />
    <glyph glyph-name="bracketright" unicode="]" horiz-adv-x="780" 
d="M545 1059q2 11 3 21t1 18q0 59 -74 82q-63 18 -63 51v8q9 45 61 45h307l-362 -1700h-307q-45 0 -45 31q0 3 1 6t1 6q9 34 55 49q38 13 61 20q23 8 29 11q49 28 66 100z" />
    <glyph glyph-name="asciicircum" unicode="^" horiz-adv-x="993" 
d="M410 1284h174l336 -764h-189l-233 537l-236 -537h-188z" />
    <glyph glyph-name="underscore" unicode="_" horiz-adv-x="1024" 
d="M1024 -49v-86h-1024v86h1024z" />
    <glyph glyph-name="grave" unicode="`" horiz-adv-x="618" 
d="M399 901l-258 193q-37 28 -37 73q0 18 7 34t19 28t28 19t35 7q21 0 41 -10q19 -11 34 -31l246 -313h-115z" />
    <glyph glyph-name="a" unicode="a" horiz-adv-x="913" 
d="M666 154q0 -54 49 -54q34 0 66 34t67 91q14 21 31 21q34 0 34 -33q0 -5 -1 -9t-3 -9q-39 -87 -116 -158q-92 -84 -170 -84q-55 0 -84 51q-29 44 -29 98q0 8 1 17t3 20q-88 -78 -165 -117q-77 -40 -146 -40q-137 0 -137 180q0 221 206 379q88 66 193 108q105 41 227 58
q70 57 90 57q47 0 47 -47v-9q0 -3 -2 -8l-149 -479zM657 532q0 58 -57 58q-105 0 -238 -148t-133 -254q0 -79 68 -79q82 0 221 163z" />
    <glyph glyph-name="b" unicode="b" horiz-adv-x="725" 
d="M332 682q92 80 203 80q79 0 135 -74q55 -70 55 -153q0 -200 -152 -375q-157 -183 -352 -183q-155 0 -155 207q0 51 12 101l215 862q2 8 3 16q1 7 1 15q0 42 -49 75q-47 35 -47 68q0 52 55 55q91 8 136 13q44 4 46 4q51 0 51 -62v-11q0 -5 -2 -11zM217 195q0 -82 96 -82
q113 0 195 161q74 143 74 265q0 22 -5 43t-15 37q-11 16 -26 26t-36 10q-106 0 -183 -104l-26 -39q0 -1 -68 -281z" />
    <glyph glyph-name="c" unicode="c" horiz-adv-x="588" 
d="M231 -12q-35 0 -65 15q-30 14 -52 38t-35 57q-13 32 -13 68q0 93 26 186t80 189q123 217 295 217q22 0 44 -6q21 -7 39 -19q17 -12 28 -29q10 -17 10 -38q0 -64 -80 -64q-16 0 -32 8q-16 7 -30 17q-15 9 -27 17q-13 7 -22 7q-67 0 -118 -121q-58 -128 -58 -329
q0 -105 76 -105q26 0 50 12q23 12 46 35q47 50 56 50q34 0 34 -33q0 -10 -6 -19q-16 -34 -42 -62q-27 -28 -59 -48q-33 -21 -70 -32z" />
    <glyph glyph-name="d" unicode="d" horiz-adv-x="909" 
d="M733 1198q0 47 -51 78q-51 29 -51 49q0 48 57 51q46 4 78 7q31 3 51 5q19 2 28 4q8 1 9 1q55 0 55 -62q0 -5 -1 -10q-1 -6 -3 -12l-278 -1135q-2 -4 -2 -12q0 -37 28 -37q20 0 43 17q22 16 45 51q23 34 41 50q17 15 25 15q33 0 33 -33q0 -11 -6 -20q-23 -37 -51 -72
q-29 -35 -64 -70q-45 -42 -76 -60q-32 -19 -63 -19q-23 0 -41 10q-18 11 -29 37q-5 14 -8 40q-4 25 -6 62q-127 -127 -273 -127q-69 0 -114 57q-43 52 -43 123q0 175 129 357q141 196 307 196q31 0 60 -9q28 -10 54 -30l113 467q2 8 3 16zM594 604q-39 45 -90 45
q-136 0 -221 -147q-35 -63 -53 -130q-19 -68 -19 -141q0 -100 96 -100q119 0 207 137z" />
    <glyph glyph-name="e" unicode="e" horiz-adv-x="557" 
d="M455 774q43 0 73 -29q29 -30 29 -73q0 -133 -111 -238q-48 -45 -107 -78t-130 -53q-2 -17 -2 -35v-35q0 -43 24 -79q28 -43 68 -43q58 0 107 43t59 43q33 0 33 -33q0 -14 -9 -27q-98 -153 -270 -153q-33 0 -61 13q-28 14 -48 37q-21 22 -32 53q-12 30 -12 63
q0 223 120 423zM217 381q209 71 209 215q0 66 -53 66q-62 0 -109 -115q-17 -38 -28 -79z" />
    <glyph glyph-name="f" unicode="f" horiz-adv-x="952" 
d="M395 705q11 62 32 133q20 70 47 139q26 69 58 130q31 61 64 105q159 207 387 207q62 0 109 -18q32 -14 49 -33q16 -19 16 -45q0 -18 -8 -32t-21 -23q-14 -10 -30 -15q-17 -6 -35 -6q-43 0 -78 43q-33 43 -61 43q-148 0 -248 -162q-38 -63 -63 -137q-26 -74 -46 -157
l-37 -158l269 26q30 0 30 -32t-34 -35l-277 -31l-98 -575q-47 -265 -176 -447q-162 -225 -398 -225q-34 0 -63 6q-28 7 -51 21q-60 31 -60 92q0 43 26 70q27 28 69 28q41 0 94 -59q25 -29 43 -45q19 -15 33 -15q142 0 245 223q34 76 60 162q26 87 43 187l98 563l-203 -19
q-30 0 -30 35q0 32 32 35z" />
    <glyph glyph-name="g" unicode="g" horiz-adv-x="967" 
d="M662 760q85 141 225 141q31 0 56 -21q24 -22 24 -53q0 -16 -6 -31q-7 -15 -18 -27t-25 -19q-15 -7 -31 -7q-39 0 -64 33q-24 -5 -46 -17q-23 -12 -41 -29q-19 -17 -31 -38q-13 -21 -17 -43l-8 -80q-38 -191 -209 -264l-82 -26q-10 -4 -43 -29q-106 -81 -106 -178
q0 -53 86 -74l245 -59q146 -35 146 -183q0 -132 -160 -252q-139 -104 -317 -104q-57 0 -110 13q-53 14 -101 42q-111 64 -111 172q0 106 94 193q74 71 191 110q-80 44 -80 121q0 118 158 238q-28 12 -52 33q-24 20 -41 46q-18 25 -28 54q-10 28 -10 57q0 75 26 141
q26 65 80 123q108 117 252 117zM399 365q38 0 67 27t52 81q19 43 28 86q9 42 9 84q0 127 -80 127q-83 0 -139 -104q-49 -89 -49 -181zM326 -109q-258 -62 -258 -258q0 -58 67 -98q55 -33 119 -33q106 0 201 49q114 59 114 156q0 90 -84 135q-23 13 -62 25z" />
    <glyph glyph-name="h" unicode="h" horiz-adv-x="801" 
d="M336 1159q0 42 -60 80q-57 40 -57 64q0 44 57 47q104 8 150 12q45 4 47 4q55 0 55 -61q0 -7 -1 -12q-1 -6 -3 -11l-198 -711q150 160 309 160q166 0 166 -190q0 -133 -123 -338q-133 -226 -252 -226q-64 0 -64 64q0 13 6 26q5 12 14 22t21 16t25 6q8 0 23 -3q14 -4 20 -4
q83 0 133 166q17 60 25 119q8 58 8 117q0 117 -74 117q-149 0 -270 -213l-35 -72q-9 -36 -23 -85l-30 -105q-18 -63 -41 -148h-139l309 1139q2 5 2 10v10z" />
    <glyph glyph-name="i" unicode="i" horiz-adv-x="543" 
d="M422 1245q32 0 55 -23t23 -55q0 -31 -23 -53t-55 -22q-31 0 -53 22q-23 22 -23 53q0 16 6 31q6 14 17 25q10 10 24 16zM260 582q0 69 -61 69q-30 0 -60 -28q-14 -14 -24 -20q-11 -7 -17 -7q-32 0 -32 35q0 44 90 88q40 18 73 28q32 9 58 9q102 0 102 -99q0 -9 -5 -33
q-6 -25 -15 -63l-88 -356q-2 -9 -3 -17q-2 -8 -2 -16q0 -45 37 -45q72 0 168 90q12 12 27 12q35 0 35 -32q0 -41 -131 -123q-65 -42 -111 -62t-74 -20q-82 0 -82 94q0 29 21 113l90 356q2 8 3 14z" />
    <glyph glyph-name="j" unicode="j" horiz-adv-x="522" 
d="M444 1260q16 0 31 -6q14 -7 25 -17q10 -11 16 -25q6 -15 6 -30q0 -32 -23 -55t-55 -23q-31 0 -53 23t-22 55q0 31 22 55zM293 537q0 13 -43 34q-43 25 -43 58q0 13 10 26q10 12 26 25t36 26q19 12 38 25q58 37 82 37q54 0 54 -53v-8l-177 -773q-51 -224 -200 -370
q-163 -160 -381 -160q-36 0 -70 11q-33 12 -60 33q-26 21 -42 50q-15 29 -15 64q0 27 9 52t24 44q16 20 37 31q22 12 47 12q15 0 29 -7q14 -6 24 -17q11 -11 17 -26q6 -14 6 -30q0 -12 -5 -25q-5 -12 -11 -23q-5 -10 -10 -18t-5 -12q0 -53 62 -53q169 0 282 133
q96 111 136 291z" />
    <glyph glyph-name="k" unicode="k" horiz-adv-x="1018" 
d="M805 94q44 0 100 51q58 52 70 52q31 0 31 -33q0 -15 -13 -31q-21 -28 -49 -52t-63 -44q-39 -23 -73 -34q-35 -11 -67 -11q-45 0 -93 38t-99 115l-131 234l-131 -117l-74 -260h-147l292 1077q2 5 2 9v10q0 38 -53 76q-53 39 -53 69q0 52 55 55q100 8 150 13q49 4 51 4
q53 0 53 -62q0 -5 -1 -10t-3 -10l-233 -836l268 246q10 10 10 25q0 6 -8 12q-9 6 -18 13q-10 7 -18 16q-9 8 -9 20q0 39 53 39h180q54 0 54 -43q0 -41 -45 -41q-41 0 -125 -78l-138 -129l119 -221q45 -85 86 -123z" />
    <glyph glyph-name="l" unicode="l" horiz-adv-x="459" 
d="M205 225q0 -75 59 -75q56 0 129 98q15 18 33 18q33 0 33 -33q0 -11 -8 -24q-20 -34 -48 -67q-28 -34 -63 -66q-87 -78 -145 -78q-28 0 -51 12q-24 11 -41 30q-18 19 -27 44q-10 25 -10 53t4 58q4 29 12 61l203 856q2 8 3 15q1 6 1 14q0 40 -47 71q-47 32 -47 56
q0 41 55 47l108 12q35 4 37 4q54 0 54 -61v-9q-1 -5 -3 -10l-239 -993q-2 -8 -2 -17v-16z" />
    <glyph glyph-name="m" unicode="m" horiz-adv-x="1335" 
d="M1067 154q0 -29 27 -29q49 0 108 47t68 47q33 0 33 -33q0 -41 -117 -114q-118 -74 -166 -74q-80 0 -80 90q0 20 5 46q5 25 16 54l100 291q24 70 24 113q0 57 -51 57q-82 0 -217 -194q-117 -167 -153 -277l-52 -158q-9 -24 -71 -24q-33 0 -33 35v10l131 418q12 39 12 71
q0 88 -59 88q-152 0 -342 -471q-8 -21 -19 -53t-28 -74q-9 -24 -72 -24q-33 0 -33 35v10l148 471q5 14 8 28q2 13 2 27q0 47 -35 47q-29 0 -69 -34q-36 -33 -48 -33q-38 0 -38 37q0 14 8 22q83 109 178 109q24 0 44 -12t34 -32q13 -20 21 -45q7 -26 7 -53q0 -17 -3 -36
t-9 -39q181 252 342 252q103 0 103 -123q0 -28 -5 -57t-14 -60q187 240 328 240q104 0 104 -123q0 -59 -24 -129l-107 -312z" />
    <glyph glyph-name="n" unicode="n" horiz-adv-x="881" 
d="M645 154q0 -31 27 -31q49 0 108 47t68 47q33 0 33 -33q0 -43 -117 -116q-117 -72 -166 -72q-80 0 -80 90q0 20 5 45q5 24 16 55l96 289q8 25 12 47q4 21 4 41q0 68 -49 68q-54 0 -192 -217q-89 -140 -160 -277q-26 -50 -53 -121q-11 -24 -70 -24q-35 0 -35 37v4q0 2 2 4
l152 487q5 16 8 30q2 13 2 26q0 47 -35 47q-28 0 -69 -35q-36 -33 -50 -33q-36 0 -36 39q0 5 2 10q1 5 6 10q83 109 178 109q24 0 44 -12t34 -32q13 -20 21 -45q7 -25 7 -52q0 -19 -8 -57q-9 -38 -26 -97q218 330 383 330q102 0 102 -96q0 -26 -11 -69t-34 -103l-113 -310z
" />
    <glyph glyph-name="o" unicode="o" horiz-adv-x="647" 
d="M217 -12q-35 0 -63 17q-28 16 -47 43q-20 27 -30 63q-11 36 -11 75q0 109 30 214q29 104 82 186q53 81 125 131q72 49 158 49q42 0 77 -15q34 -15 58 -42t38 -64q13 -37 13 -80q0 -76 -17 -148t-46 -136q-30 -64 -70 -118q-41 -54 -89 -93t-101 -60zM369 618
q-43 0 -79 -27t-61 -72q-26 -46 -40 -107q-15 -61 -15 -129q0 -36 10 -67q9 -31 26 -54t40 -36t49 -13q48 0 91 30q43 29 76 76q32 47 52 105q19 57 19 114z" />
    <glyph glyph-name="p" unicode="p" horiz-adv-x="797" 
d="M389 614q82 70 152 105q69 35 129 35q62 0 96 -58q31 -47 31 -114q0 -242 -125 -404q-138 -182 -330 -182q-66 0 -117 45l-141 -485q-2 -8 -3 -13t-1 -10q0 -63 63 -63h80q37 0 37 -35t-37 -35h-493q-37 0 -37 35t57 35h66q124 0 151 96l309 1042q-30 -11 -47 -16
q-17 -6 -22 -6q-43 0 -43 45q0 20 18 43l42 42q25 25 57 60q14 17 37 43q22 26 53 58q14 14 32 14q50 0 50 -47q0 -5 -16 -62zM266 186q67 -82 146 -82q112 0 190 134q32 58 49 118q17 59 17 121q0 150 -90 150q-116 0 -216 -154q-6 -8 -13 -21t-15 -30z" />
    <glyph glyph-name="q" unicode="q" horiz-adv-x="739" 
d="M414 78q-45 -38 -92 -58q-48 -20 -99 -20q-41 0 -74 15t-56 41q-24 26 -37 61t-13 76q0 189 109 360q121 190 303 190q42 0 75 -24l129 139q13 14 33 14q47 0 47 -49v-8q0 -3 -2 -8l-358 -1251q-2 -8 -3 -13t-1 -10q0 -63 63 -63h58q36 -3 36 -35q0 -35 -36 -35h-459
q-37 0 -37 35t59 35h54q122 0 149 96zM309 119q94 0 146 119q20 46 31 96q10 50 10 104q0 57 -31 105q-34 55 -88 55q-96 0 -166 -111q-59 -95 -59 -198z" />
    <glyph glyph-name="r" unicode="r" horiz-adv-x="729" 
d="M381 614q123 187 270 187q15 0 30 -6q14 -6 25 -16q10 -11 17 -25q6 -15 6 -31q0 -92 -98 -92q-6 0 -17 3q-12 2 -24 5t-23 6q-11 2 -18 2q-161 0 -334 -667h-113l162 573q5 17 8 32q2 15 2 29q0 56 -41 56q-32 0 -77 -39q-42 -39 -56 -39q-34 0 -34 37q0 11 12 26
q88 117 190 117q28 0 49 -14t35 -36q14 -23 22 -51z" />
    <glyph glyph-name="s" unicode="s" horiz-adv-x="625" 
d="M506 297q0 -72 -98 -188q-96 -117 -166 -117q-26 0 -53 6q-28 6 -56 20q-67 34 -67 78q0 15 9 33q8 18 21 34q12 15 28 26q15 10 30 10q35 0 63 -41q27 -39 53 -39q19 0 37 9t31 24t21 34q8 18 8 37q0 33 -74 137q-72 107 -72 170q0 94 98 168q91 68 189 68
q117 0 117 -90q0 -72 -66 -72q-22 0 -49 29q-25 31 -53 31q-21 0 -38 -9q-18 -10 -30 -25q-13 -15 -20 -34q-7 -20 -7 -41q0 -42 72 -123z" />
    <glyph glyph-name="t" unicode="t" horiz-adv-x="569" 
d="M102 664q-36 0 -36 32q0 35 36 35h160l76 309q15 56 70 136q17 26 43 26q36 0 36 -41v-8q0 -3 -2 -8l-98 -414h145q37 0 37 -35q0 -32 -37 -32h-161l-101 -418q-2 -8 -3 -15q-1 -8 -1 -16q0 -76 51 -76q50 0 97 62q14 20 61 106q12 23 33 23q35 0 35 -35q0 -9 -6 -19
q-20 -45 -51 -90q-32 -45 -74 -92q-103 -108 -183 -108q-102 0 -102 141q0 26 4 57q4 30 12 62l103 418h-144z" />
    <glyph glyph-name="u" unicode="u" horiz-adv-x="922" 
d="M301 623q0 30 -27 30q-64 0 -143 -80q-14 -14 -31 -14q-34 0 -34 33q0 37 116 110q59 39 101 58q41 18 67 18q78 0 78 -90q0 -9 -4 -33q-5 -25 -16 -65l-78 -311q-8 -29 -11 -54q-4 -25 -4 -45q0 -59 41 -59q56 0 193 209q75 112 129 224q54 111 86 220h110l-176 -577
q-5 -17 -6 -31q-2 -14 -2 -25q0 -49 33 -49q20 0 43 14t51 41q55 58 68 58q37 0 37 -39q0 -14 -9 -23q-112 -149 -221 -149q-48 0 -80 47q-26 39 -26 92q0 19 11 65t34 121q-206 -329 -367 -329q-92 0 -92 104q0 23 9 63q8 40 24 97l90 334z" />
    <glyph glyph-name="v" unicode="v" horiz-adv-x="989" 
d="M293 633q-23 0 -44 -8q-22 -8 -39 -22q-17 -15 -27 -33q-11 -19 -11 -40q0 -11 5 -30q5 -20 5 -31q0 -66 -57 -66q-59 0 -59 66q0 117 106 197q97 75 219 75h271q28 0 28 -20q0 -14 -10 -27l-76 -82q-137 -179 -137 -426q0 -92 88 -92q111 0 213 185q92 166 92 288
q0 10 -6 25q-7 14 -14 31q-8 16 -14 34q-7 17 -7 33q0 18 6 34t17 28t26 19t33 7q19 0 35 -8t28 -22t19 -32q6 -19 6 -40q0 -210 -151 -432q-169 -242 -369 -242q-30 0 -55 13t-42 35q-18 22 -28 51q-10 28 -10 59q0 62 14 125t43 129q58 131 152 219h-250z" />
    <glyph glyph-name="w" unicode="w" horiz-adv-x="1432" 
d="M895 207q0 -23 8 -43q7 -20 20 -36t32 -25q18 -9 40 -9q49 0 119 70q26 26 49 53q23 26 43 55q48 72 71 145t23 150q0 10 -6 25q-7 14 -14 31q-8 16 -14 34q-6 17 -6 33q0 18 7 34q6 16 17 28t26 19t33 7q19 0 35 -8t28 -22t19 -32q7 -19 7 -40q0 -207 -154 -432
q-169 -242 -369 -242q-31 0 -56 14t-42 37q-18 22 -27 52q-10 29 -10 61q-144 -164 -305 -164q-30 0 -55 13t-42 35q-18 22 -28 51q-10 28 -10 59q0 112 55 250q26 62 58 117q31 55 69 106h-223q-23 0 -44 -8q-22 -8 -39 -22q-17 -15 -27 -33q-11 -19 -11 -40q0 -11 5 -30
q5 -20 5 -31q0 -66 -57 -66q-59 0 -59 66q0 117 106 197q97 75 219 75h275q26 0 26 -18q0 -13 -12 -29q-14 -14 -32 -34q-19 -21 -44 -50q-133 -175 -133 -420q0 -96 84 -96q47 0 117 70q28 26 51 53q22 26 41 55q48 72 72 145t24 150q0 10 -6 25q-7 14 -14 31q-8 16 -14 34
q-7 17 -7 33q0 18 6 34t17 28t26 19t33 7q19 0 35 -8t28 -22t19 -32q6 -19 6 -40q0 -79 -47 -232z" />
    <glyph glyph-name="x" unicode="x" horiz-adv-x="981" 
d="M557 524q28 44 67 81t84 64q44 27 93 43q49 15 98 15q82 0 82 -65q0 -56 -66 -56q-7 0 -16 4q-10 3 -20 7q-11 3 -20 7q-10 3 -17 3q-125 0 -189 -117q-55 -98 -55 -231q0 -189 98 -189q51 0 109 43t65 43q31 0 31 -33q0 -8 -2 -14q-3 -6 -8 -14q-36 -45 -125 -90
q-43 -23 -78 -34t-63 -11q-111 0 -142 204q-113 -200 -299 -200q-80 0 -80 65q0 55 64 55q7 0 17 -3q9 -3 20 -7q10 -4 20 -7t17 -3q198 0 198 373q0 29 -5 55q-6 26 -17 51q-28 64 -78 64q-34 0 -62 -13q-28 -14 -48 -36q-21 -23 -33 -54q-13 -31 -15 -65q-3 -76 -59 -76
q-57 0 -57 72q0 96 120 194q119 101 222 101q60 0 98 -56z" />
    <glyph glyph-name="y" unicode="y" horiz-adv-x="881" 
d="M190 520q0 -11 3 -29q2 -19 2 -30q0 -60 -45 -60q-50 0 -50 72q0 53 21 104q21 50 63 101q96 117 187 117q62 0 102 -64q35 -53 35 -121v-233q0 -131 84 -131q58 0 106 141q20 56 31 105q11 48 14 90q-71 15 -71 71q0 50 47 103q46 55 96 55q66 0 66 -98
q0 -173 -113 -396q-48 -96 -105 -181q-58 -86 -124 -165q-300 -348 -600 -348q-29 0 -55 9t-46 26q-19 17 -31 40t-12 52q0 18 7 34q7 17 19 29q12 13 28 21t34 8q52 0 94 -47q41 -47 76 -47q65 0 137 32q72 33 150 99q60 51 114 112t103 130q-73 25 -113 100
q-36 70 -36 150v147q0 23 -5 42t-16 36q-24 41 -63 41q-26 0 -50 -9t-42 -25q-19 -16 -30 -37z" />
    <glyph glyph-name="z" unicode="z" horiz-adv-x="856" 
d="M432 674q-168 0 -252 -180q-11 -27 -33 -27q-34 0 -34 35q0 5 1 8t3 6q18 56 53 104t81 83q46 34 101 54q54 19 113 19h78q26 -2 45 -2h33q62 0 106 6l51 15q40 12 45 12q33 0 33 -35q0 -11 -6 -19q-6 -9 -19 -14q-18 -7 -36 -13q-19 -7 -36 -16q-18 -9 -34 -22
q-16 -14 -29 -33l-348 -495q-5 -8 -7 -14q-3 -7 -3 -15q0 -29 37 -29h151q134 0 174 66q10 14 16 46q6 31 9 79q6 67 53 67q53 0 53 -73q0 -122 -116 -207q-107 -76 -232 -76h-35q-21 0 -49 2q-26 2 -46 2h-34q-35 0 -63 -1q-28 -2 -51 -7q-8 -2 -23 -8q-15 -5 -35 -15
q-39 -18 -49 -18q-32 0 -32 35q0 18 20 31q31 18 63 37q31 18 50 44l399 568h-166z" />
    <glyph glyph-name="braceleft" unicode="{" horiz-adv-x="690" 
d="M133 561q159 0 186 133q7 27 7 56q0 20 -4 49q-5 29 -13 71t-12 75t-4 56q0 36 6 66q10 47 36 88q26 40 63 70q36 30 80 48q44 17 91 17h121l-14 -67h-58q-24 0 -47 -10t-41 -27q-19 -18 -33 -40q-14 -23 -20 -48q-6 -32 -6 -66q0 -21 4 -54q4 -34 12 -79q17 -91 17 -135
q0 -40 -6 -74q-11 -52 -39 -92q-29 -41 -74 -70q47 -42 47 -118q0 -89 -100 -250q-101 -162 -101 -232q0 -94 93 -94h57l-16 -70h-121q-40 0 -73 13t-56 36t-36 56t-13 72q0 88 79 213q45 72 71 123t34 83q2 8 2 15v16q0 103 -135 103z" />
    <glyph glyph-name="bar" unicode="|" horiz-adv-x="285" 
d="M74 1448h137v-2048h-137v2048z" />
    <glyph glyph-name="braceright" unicode="}" horiz-adv-x="690" 
d="M623 494q-160 0 -189 -134q-2 -14 -3 -27q-1 -14 -1 -28q0 -20 4 -50q4 -31 12 -73t13 -73q4 -31 4 -54q0 -17 -1 -33q-2 -17 -7 -34q-20 -95 -99 -158q-78 -66 -170 -66h-120l14 70h57q25 0 48 9q22 10 41 27t32 39t18 48q5 15 7 32t2 34q0 43 -19 131q-8 45 -12 80
q-4 34 -4 57q0 20 2 39q1 18 6 37q21 101 113 161q-49 43 -49 117q0 45 25 107q24 61 75 143q100 163 100 231q0 97 -90 97h-57l14 67h123q39 0 72 -13q32 -13 56 -36t37 -55t13 -70q0 -91 -80 -215q-45 -72 -70 -123q-26 -52 -34 -84q-2 -8 -3 -15t-1 -15q0 -103 135 -103z
" />
    <glyph glyph-name="asciitilde" unicode="~" horiz-adv-x="1225" 
d="M1151 637q-127 -148 -289 -148q-101 0 -260 70q-158 70 -231 70q-91 0 -168 -86l-129 112q126 146 299 146q95 0 254 -70q80 -35 138 -52t95 -17q87 0 162 88z" />
    <glyph glyph-name="uni00A0" unicode="&#xa0;" horiz-adv-x="717" 
 />
    <glyph glyph-name="exclamdown" unicode="&#xa1;" horiz-adv-x="520" 
d="M66 -401l272 919h68l-134 -1007zM299 627l43 207l178 -76l-43 -207z" />
    <glyph glyph-name="cent" unicode="&#xa2;" horiz-adv-x="762" 
d="M610 711q11 5 22 8q11 2 23 2q41 0 41 -41q0 -3 -7 -38q-7 -36 -21 -105q-13 -52 -64 -52q-32 0 -51 54q-27 69 -33 79l-196 -483q15 -8 34 -11q18 -3 39 -3q68 0 150 43q42 23 65 34q22 11 25 11q35 0 35 -39q0 -12 -6 -24q-7 -12 -21 -23q-164 -143 -326 -143
q-29 0 -57 6l-100 -246l-66 14l105 254q-135 70 -135 242q0 36 6 69q18 85 54 157q35 71 89 128q120 126 283 129l198 492l66 -15l-199 -485q13 -2 25 -5zM459 639q-95 -9 -160 -135q-29 -54 -43 -107q-14 -54 -14 -106q0 -66 28 -111z" />
    <glyph glyph-name="sterling" unicode="&#xa3;" horiz-adv-x="1462" 
d="M131 -14q-65 0 -65 47q0 78 135 125q51 17 101 25t101 10q135 87 269 290h-164l14 68h195l192 328q56 94 119 165q62 71 127 125q136 115 266 115q19 0 39 -5q19 -5 34 -14q15 -10 25 -24q9 -15 9 -33q0 -21 -10 -40t-26 -33q-16 -15 -36 -24t-41 -9q-29 0 -59 35
q-32 34 -60 34q-63 0 -145 -161l-154 -297q-21 -42 -45 -83q-25 -41 -51 -79h162l-14 -68h-197q-151 -197 -330 -301q48 -8 119 -24q70 -17 166 -45q106 -29 175 -44q69 -16 103 -16q15 0 30 5q15 4 27 13q11 8 18 20q7 11 7 26q0 8 -4 23q-4 14 -4 22q0 18 8 36q7 17 20 31
q12 13 28 21t34 8q66 0 66 -72q0 -121 -166 -194q-66 -31 -132 -47q-67 -15 -136 -15q-175 0 -336 76q-153 70 -174 70q-11 0 -17 -1q-7 -1 -12 -3l-35 -27z" />
    <glyph glyph-name="currency" unicode="&#xa4;" horiz-adv-x="1098" 
d="M778 952q-235 0 -340 -321h480l-39 -68h-459q-9 -39 -12 -76h436l-39 -67h-399q2 -64 21 -116q18 -52 51 -89t82 -57q48 -21 110 -21q102 0 266 105l-31 -150q-180 -86 -330 -86q-173 0 -276 121q-48 57 -70 127t-22 166h-141l38 67h107q3 20 6 39t8 37h-131l41 68h113
q71 183 225 307q84 66 171 100q87 33 181 33q50 0 94 -11t82 -34q97 -53 97 -141q0 -22 -5 -41q-6 -20 -17 -35t-27 -24t-37 -9q-18 0 -29 8t-18 20t-11 27q-4 14 -8 27q-10 21 -28 38t-41 30q-23 12 -48 19z" />
    <glyph glyph-name="yen" unicode="&#xa5;" horiz-adv-x="1167" 
d="M569 303q-11 -56 -16 -86q-6 -31 -6 -37q0 -60 69 -94q72 -35 72 -55q0 -54 -53 -54q-17 0 -44 3q-28 4 -63 10q-71 12 -108 12h-154q-51 0 -51 41q0 29 24 45q23 16 52 16q59 0 88 74q5 9 12 40q6 31 17 85h-330l14 68h332l14 73h-329l14 70h299l-117 313
q-50 134 -207 134q-32 0 -32 30q0 45 49 45h428q39 0 39 -30q0 -28 -52 -50q-51 -21 -51 -61q0 -5 4 -17q3 -12 11 -32l94 -273l164 215q20 26 31 48q10 21 10 38q0 44 -60 66q-29 11 -44 23q-15 11 -15 22q0 51 57 51h402q34 0 34 -30q0 -52 -53 -52q-52 0 -117 -41
q-63 -38 -100 -84l-250 -315h309l-14 -70h-342l-16 -73h342l-15 -68h-342z" />
    <glyph glyph-name="brokenbar" unicode="&#xa6;" horiz-adv-x="285" 
d="M74 377h137v-977h-137v977zM74 1448h137v-977h-137v977z" />
    <glyph glyph-name="section" unicode="&#xa7;" horiz-adv-x="2238" 
d="M346 596q193 88 332 144q138 56 225 85q152 50 300 76q148 25 294 25q88 0 172 -19q83 -20 158 -56q74 -36 136 -86q62 -51 107 -113t70 -134t25 -151q0 -66 -27 -124q-27 -59 -73 -102q-47 -44 -108 -69t-128 -25t-127 17q-61 16 -107 52q-47 35 -74 90q-28 55 -28 132
q0 37 18 69q18 31 47 54q28 23 65 36q36 13 73 13q27 0 51 -9q23 -10 41 -27q17 -17 27 -39q10 -23 10 -48q0 -22 -7 -43t-19 -37q-13 -17 -31 -27t-39 -10q-36 0 -57 27q-21 26 -21 63q0 29 12 52q-57 -22 -57 -95q0 -32 13 -58q13 -27 36 -46q22 -19 52 -30q29 -11 62 -11
q52 0 96 22q44 21 77 58q32 36 51 84q18 47 18 98q0 155 -117 250q-193 -88 -331 -146q-139 -58 -226 -85q-152 -51 -299 -76q-148 -25 -295 -25q-87 0 -171 20q-84 19 -158 55q-74 35 -136 86q-63 50 -108 112t-70 135q-26 72 -26 151q0 68 28 127q27 58 74 102
q46 43 107 68t127 25q67 0 128 -22q60 -23 106 -62q46 -40 74 -93q27 -53 27 -114q0 -38 -17 -69q-17 -32 -45 -54q-29 -23 -65 -36t-73 -13q-27 0 -51 10q-24 9 -41 25q-18 16 -28 38q-11 22 -11 48q0 22 7 43t20 38q12 16 30 26t39 10q37 0 59 -26q21 -27 21 -64
q0 -14 -3 -27q-4 -14 -12 -25q60 23 60 95q0 31 -14 58q-14 26 -36 46q-23 19 -53 30t-61 11q-51 0 -95 -21q-45 -22 -78 -58t-52 -83q-19 -48 -19 -100zM1688 772q-29 5 -59 8q-30 2 -62 2q-79 0 -153 -5q-75 -6 -150 -19t-153 -34t-164 -51q-87 -31 -184 -71
q-98 -41 -212 -94q58 -12 123 -12q118 0 228 13t228 45t254 85z" />
    <glyph glyph-name="dieresis" unicode="&#xa8;" horiz-adv-x="553" 
d="M387 1077q19 0 36 -7t30 -19q12 -13 19 -29q7 -17 7 -35q0 -19 -7 -36t-19 -29q-13 -13 -30 -20t-36 -7q-18 0 -34 7q-17 7 -29 20q-13 12 -20 29t-7 36q0 37 27 64zM166 1077q37 0 64 -26q26 -27 26 -64q0 -19 -7 -36t-19 -29q-13 -13 -29 -20q-17 -7 -35 -7
q-19 0 -36 7t-29 20q-13 12 -20 29t-7 36q0 18 7 35q7 16 20 29q12 12 29 19z" />
    <glyph glyph-name="copyright" unicode="&#xa9;" horiz-adv-x="1430" 
d="M715 1288q264 0 452 -188q189 -189 189 -453q0 -265 -189 -452q-189 -189 -452 -189q-264 0 -453 189q-188 186 -188 452q0 265 188 453zM715 1221q-119 0 -219 -42q-100 -43 -185 -128t-126 -185q-42 -100 -42 -219q0 -235 168 -403t404 -168t403 168q170 168 170 403
q0 119 -42 219q-43 100 -128 185zM874 952q-77 90 -178 90q-136 0 -204 -127q-26 -51 -40 -113q-14 -63 -14 -138q0 -153 78 -263q90 -120 236 -120q45 0 88 13q42 13 80 37q37 23 67 56t51 74q6 12 12 25q5 13 12 24q6 11 16 18q9 7 22 7q47 0 47 -72q0 -61 -17 -86
q-35 -49 -85 -88q-51 -39 -110 -66q-60 -27 -124 -41q-65 -14 -127 -14q-189 0 -309 154q-107 137 -107 335q0 194 129 338q129 146 320 146q102 0 186 -49q101 -58 101 -152q0 -59 -58 -59z" />
    <glyph glyph-name="ordfeminine" unicode="&#xaa;" horiz-adv-x="680" 
d="M514 881q0 -37 33 -37q34 0 67 49q34 49 43 49q23 0 23 -22q0 -9 -2 -13q-14 -29 -33 -55t-45 -51q-62 -56 -115 -56q-43 0 -61 43q-8 19 -10 39q-2 19 -2 43q-113 -106 -209 -106q-90 0 -90 121q0 148 139 254q116 88 280 112q46 37 60 37q33 0 33 -31q0 -8 -2 -12
l-101 -319q-5 -14 -6 -25zM508 1133q0 38 -37 38q-73 0 -162 -98q-88 -97 -88 -170q0 -53 45 -53q60 0 150 111zM195 580q-22 0 -56 -27q-34 -25 -49 -25q-24 0 -24 27q0 5 11 32t34 75q15 32 34 32q11 0 30 -5q18 -5 26 -5h329q18 0 33 8q15 7 27 16q12 8 22 16q10 7 19 7
q24 0 24 -26q0 -18 -37 -105q-16 -31 -38 -31q-6 0 -15 2q-9 1 -18 4q-10 2 -19 4q-9 1 -14 1h-319z" />
    <glyph glyph-name="guillemotleft" unicode="&#xab;" horiz-adv-x="725" 
d="M438 748q-58 -157 -159 -277q21 -53 32 -112t11 -128v-36l-72 -17q-9 166 -184 293q225 125 309 291zM725 748q-59 -158 -160 -277q43 -104 43 -240v-36l-71 -17q-11 168 -185 293q226 125 310 291z" />
    <glyph glyph-name="logicalnot" unicode="&#xac;" horiz-adv-x="963" 
d="M717 530h-643v172h815v-383h-172v211z" />
    <glyph glyph-name="registered" unicode="&#xae;" horiz-adv-x="893" 
d="M446 1288q76 0 144 -29q68 -30 119 -81t81 -119q29 -68 29 -144q0 -75 -29 -142q-29 -68 -79 -119q-51 -51 -119 -81t-146 -30q-77 0 -144 30q-68 29 -118 80q-51 50 -80 118q-30 67 -30 144q0 78 30 146t81 119q51 50 119 79zM446 1235q-65 0 -123 -25q-58 -26 -101 -69
q-44 -44 -69 -102q-26 -58 -26 -124q0 -65 26 -123q25 -58 69 -101q43 -44 101 -69q58 -26 123 -26q66 0 124 26q58 25 102 69q43 43 69 101q25 58 25 123q0 66 -25 124q-26 58 -69 102q-44 43 -102 69zM410 801q0 -18 14 -25q14 -8 31 -12t31 -7t14 -12q0 -12 -15 -12h-194
q-17 0 -17 12q0 6 11 10q10 4 23 9t24 14q10 8 10 23v270q0 12 -13 19q-14 7 -30 12t-29 11q-14 5 -14 13q0 19 20 19h150q35 0 68 -8t59 -22q25 -14 40 -35t15 -46q0 -67 -78 -94q17 -54 45 -107t70 -104q8 -8 8 -16q0 -13 -14 -13q-8 0 -16 7q-109 87 -162 221
q-14 0 -26 1q-13 1 -25 3v-131zM410 963q22 -7 45 -7q86 0 86 70q0 37 -28 60q-28 22 -67 22q-36 0 -36 -51v-94z" />
    <glyph glyph-name="macron" unicode="&#xaf;" horiz-adv-x="662" 
d="M588 1006v-113h-514v113h514z" />
    <glyph glyph-name="degree" unicode="&#xb0;" horiz-adv-x="618" 
d="M309 1280q47 0 90 -18q42 -19 75 -51q32 -32 52 -74q19 -42 19 -90t-18 -91q-19 -43 -51 -75q-33 -33 -76 -51q-43 -19 -91 -19t-91 19q-43 18 -75 51q-32 32 -50 75q-19 43 -19 91t19 90t52 74q32 32 75 51zM309 1167q-25 0 -47 -9q-23 -10 -39 -26q-17 -17 -27 -39
t-10 -46q0 -26 10 -48t27 -39q16 -17 39 -26q22 -10 47 -10t47 10q22 9 39 26q16 17 26 39q9 22 9 48q0 24 -9 46q-10 22 -26 39q-17 16 -39 26z" />
    <glyph glyph-name="plusminus" unicode="&#xb1;" horiz-adv-x="932" 
d="M381 702v306h172v-306h305v-172h-305v-307h-172v307h-307v172h307zM858 172v-172h-784v172h784z" />
    <glyph glyph-name="uni00B2" unicode="&#xb2;" horiz-adv-x="459" 
d="M203 1081q8 2 15 2h15q36 0 70 -3q33 -3 62 -11l-56 -70q-29 8 -58 12q-29 3 -58 3q-39 0 -73 -6q-34 -7 -63 -21l-10 25q35 26 72 51q36 24 71 49q97 77 97 135q0 43 -43 43q-51 0 -78 -59l-72 33q52 88 144 88q21 0 40 -6q18 -7 33 -19q14 -12 23 -29q8 -17 8 -38z" />
    <glyph glyph-name="uni00B3" unicode="&#xb3;" horiz-adv-x="442" 
d="M268 1122q84 -30 84 -116q0 -41 -25 -81q-25 -41 -63 -73q-39 -32 -84 -52q-46 -20 -88 -20q-67 0 -67 23q0 26 28 26q8 0 25 -4t28 -4q31 0 61 12q29 11 53 31q23 20 38 47q14 27 14 58q0 23 -8 41q-8 17 -21 29q-14 12 -31 18q-18 6 -36 6l-4 29q26 13 53 34t49 45
q21 23 35 46q13 22 13 40q0 39 -48 39q-55 0 -84 -65l-75 31q49 96 151 96q22 0 42 -5q20 -6 36 -17q15 -11 24 -27t9 -37z" />
    <glyph glyph-name="acute" unicode="&#xb4;" horiz-adv-x="618" 
d="M104 901l246 313q32 41 76 41q18 0 34 -7t28 -19t19 -28t7 -34q0 -46 -37 -73l-258 -193h-115z" />
    <glyph glyph-name="mu" unicode="&#xb5;" horiz-adv-x="1049" 
d="M647 133q-161 -137 -301 -137h-21q-9 0 -18 2q-6 -27 -6 -59q0 -9 1 -22q0 -13 1 -28q1 -14 2 -27v-22q0 -38 -11 -73q-12 -35 -32 -63q-21 -27 -49 -44q-29 -16 -63 -16q-93 0 -93 106q0 14 7 39q6 25 17 55q10 30 22 62t23 59q11 28 19 49q7 20 9 27l106 506
q0 7 -14 12q-15 5 -33 12q-18 6 -32 17q-15 10 -15 28q0 55 61 70q104 23 162 35t74 12q39 0 39 -41q0 -14 -10 -28q-11 -15 -23 -28q-13 -14 -24 -25q-12 -12 -13 -19l-65 -307q-5 -22 -7 -40q-2 -19 -2 -34q0 -88 84 -88q27 0 59 11q31 10 63 29q31 18 60 43t50 54l63 295
q-65 21 -65 57q0 68 102 86q167 31 178 31q47 0 47 -41q0 -18 -12 -32q-13 -15 -28 -30q-16 -15 -31 -33t-21 -44l-65 -307q-2 -5 -2 -9v-8q0 -28 30 -28q11 0 30 5t30 5q39 0 39 -39q0 -13 -17 -32q-17 -20 -43 -42q-27 -22 -59 -44t-62 -39q-31 -18 -55 -29
q-25 -11 -37 -11q-65 0 -65 68q0 11 4 35z" />
    <glyph glyph-name="paragraph" unicode="&#xb6;" horiz-adv-x="2071" 
d="M907 -309q-373 0 -604 219q-115 109 -172 257t-57 335q0 347 256 571q242 215 594 215h55q210 0 330 -24q195 -40 276 -156q5 -8 8 -14q2 -6 2 -13q0 -41 -43 -41q-17 0 -36 25q-72 92 -154 92q-55 0 -55 -80v-1071q0 -121 102 -121q28 0 71 9q42 10 99 28q115 37 182 37
q52 0 96 -16q43 -16 75 -46q31 -29 48 -71t17 -94q0 -32 -9 -61q-9 -28 -26 -51q-17 -22 -41 -35t-55 -13q-26 0 -48 9q-22 10 -39 27t-26 39q-10 22 -10 48q0 72 61 108q-27 56 -116 56q-102 0 -273 -68zM1114 -59q0 -38 14 -70q17 -41 48 -41q30 0 47 41q14 32 14 70v1163
q0 102 -61 102q-62 0 -62 -102v-1163zM1047 973q0 45 -7 82q-8 37 -22 69q-37 86 -113 86q-243 0 -243 -712q0 -122 9 -228q9 -107 29 -200q64 -303 220 -303q127 0 127 174v1032z" />
    <glyph glyph-name="periodcentered" unicode="&#xb7;" horiz-adv-x="442" 
d="M74 621q0 30 12 57q11 27 31 47t47 32q26 11 57 11t58 -11q27 -12 47 -32t32 -47q11 -27 11 -57q0 -31 -11 -58q-12 -27 -32 -47t-47 -31q-27 -12 -58 -12t-57 12q-27 11 -47 31t-31 47z" />
    <glyph glyph-name="cedilla" unicode="&#xb8;" horiz-adv-x="537" 
d="M305 -131q34 -9 63 -29t50 -47q21 -26 33 -59q12 -32 12 -66q0 -86 -84 -149q-77 -56 -166 -56q-139 0 -139 84q0 29 23 48q22 20 53 20q15 0 31 -7q15 -7 30 -16q15 -8 28 -15q12 -7 21 -7q25 0 45 19q19 20 19 44q0 51 -56 78q-46 23 -96 23h-66l199 303h107z" />
    <glyph glyph-name="uni00B9" unicode="&#xb9;" horiz-adv-x="330" 
d="M203 1055q0 -5 4 -9q3 -5 8 -8q4 -4 8 -7q4 -4 4 -7q0 -35 -41 -35q-20 0 -35 -2t-29 -4t-29 -4q-16 -2 -36 -2q-18 0 -18 18q0 11 13 21q13 9 30 18q16 8 30 17q13 9 15 18q14 71 22 106q7 35 7 37q0 15 -15 15q-5 0 -14 -2t-14 -2q-19 0 -19 18q0 15 23 27
q124 71 131 71q18 0 18 -16q0 -4 -2 -10l-6 -14q-3 -7 -5 -13q-3 -7 -3 -10z" />
    <glyph glyph-name="ordmasculine" unicode="&#xba;" horiz-adv-x="571" 
d="M283 768q-24 0 -43 12q-19 11 -31 30q-13 18 -20 42t-7 49q0 134 64 250q76 137 200 137q28 0 52 -10q23 -11 39 -29t25 -42t9 -52q0 -134 -75 -252zM385 1190q-65 0 -102 -84q-29 -66 -29 -141q0 -45 20 -76q25 -39 66 -39q68 0 115 78q43 72 43 141zM195 580
q-24 0 -58 -27q-34 -25 -47 -25q-24 0 -24 27q0 5 11 32t34 75q15 32 34 32q11 0 30 -5q18 -5 26 -5h178q18 0 33 8q14 7 27 16q12 8 22 16q10 7 18 7q25 0 25 -26q0 -18 -37 -105q-16 -31 -39 -31q-12 0 -33 6q-22 5 -35 5h-165z" />
    <glyph glyph-name="guillemotright" unicode="&#xbb;" horiz-adv-x="725" 
d="M66 195q29 78 69 147q39 69 90 129q-43 107 -43 238v18q0 10 2 21l70 14q9 -164 184 -291q-228 -127 -307 -293zM352 195q59 157 160 276q-43 104 -43 238v18q0 10 2 21l70 14q9 -165 184 -291q-227 -125 -307 -293z" />
    <glyph glyph-name="onequarter" unicode="&#xbc;" horiz-adv-x="1030" 
d="M954 614q-37 -86 -64 -177q-27 -92 -44 -191q35 -5 56 -7q16 -1 17 -1q38 0 76 57l35 -19l-100 -141q-53 9 -99 12q-3 -29 -5 -59q-3 -30 -3 -61q0 -11 1 -21q1 -11 1 -22l-180 -93q26 75 47 141q21 65 35 122h-53q-75 0 -137 -5t-115 -14l-12 37l512 461zM752 250
q12 59 21 111t15 100l-239 -217q48 5 97 6h106zM1024 1124l-801 -1108q-27 -39 -73 -39q-84 0 -84 29q0 18 18 39l891 1079h49zM465 715q0 -5 6 -11q5 -6 12 -12q6 -7 12 -13q5 -7 5 -11q0 -50 -60 -50q-26 0 -47 -3t-41 -6t-41 -6t-47 -3q-24 0 -24 27q0 22 18 33t40 20
t41 21q19 11 21 34q22 102 33 154q10 51 10 53q0 21 -20 21q-6 0 -19 -2q-14 -3 -20 -3q-25 0 -25 25q0 23 29 39q172 102 184 102q27 0 27 -22q0 -6 -4 -15l-8 -20q-5 -11 -9 -20q-5 -9 -6 -13z" />
    <glyph glyph-name="onehalf" unicode="&#xbd;" horiz-adv-x="1022" 
d="M1022 1124l-801 -1108q-27 -39 -74 -39q-81 0 -81 29q0 17 16 39l893 1079h47zM743 129q11 2 20 2h21q51 0 96 -4q45 -5 87 -16l-78 -101q-40 11 -81 16t-83 5q-105 0 -184 -39l-19 37l205 147q66 56 100 104q33 47 33 89q0 63 -59 63q-69 0 -109 -88l-100 47
q77 127 201 127q30 0 56 -10t46 -27q19 -17 30 -41q11 -25 11 -53zM465 715q17 -16 25 -27t8 -20q0 -50 -60 -50q-24 0 -46 -1t-42 -3q-5 -1 -16 -3t-24 -4q-13 -3 -26 -5t-22 -2q-24 0 -24 27q0 38 43 47q9 2 22 9q12 7 24 16q12 8 22 18q9 10 11 18q22 102 33 154
q10 51 10 53q0 21 -20 21q-8 0 -20 -2q-13 -3 -21 -3q-25 0 -25 25q0 23 31 39q172 102 182 102q27 0 27 -22q0 -6 -3 -15l-8 -20q-5 -11 -9 -20t-5 -13z" />
    <glyph glyph-name="threequarters" unicode="&#xbe;" horiz-adv-x="1145" 
d="M1059 614q-37 -86 -64 -177q-28 -92 -45 -191q35 -5 56 -7q16 -1 17 -1q38 0 77 57l35 -19l-99 -141q-28 5 -52 8q-25 2 -48 4q-3 -29 -5 -59q-3 -30 -3 -61q0 -11 1 -21q1 -11 1 -22l-180 -93q26 75 47 141q20 65 34 122h-53q-74 0 -136 -5q-63 -5 -116 -14l-12 37
l512 461zM856 250q12 59 22 111q9 52 15 100l-240 -217q48 5 97 6h106zM1145 1124l-801 -1108q-27 -39 -74 -39q-82 0 -82 29q0 9 5 19q4 9 12 20l891 1079h49zM408 784q116 -42 116 -166q0 -39 -16 -78q-16 -40 -43 -76q-28 -36 -64 -67q-36 -32 -76 -55q-41 -23 -83 -36
q-43 -13 -82 -13q-94 0 -94 33q0 36 38 36q6 0 17 -2q10 -2 21 -5q10 -3 20 -5t16 -2q44 0 86 17q41 17 74 47q32 29 52 69q20 39 20 84q0 31 -10 56q-11 25 -29 43q-18 17 -41 27q-24 9 -51 9l-7 41q37 19 75 50q37 30 68 64q30 34 49 67t19 59q0 55 -65 55q-77 0 -117 -94
l-104 45q67 137 213 137q30 0 57 -8t48 -23q21 -16 34 -38q12 -23 12 -51z" />
    <glyph glyph-name="questiondown" unicode="&#xbf;" horiz-adv-x="723" 
d="M494 371q-22 99 -152 125l190 131q111 -84 123 -260q-152 -85 -262 -195q-143 -143 -143 -276q0 -101 90 -160q76 -49 184 -49q23 0 101 6l-140 -182h-30q-155 0 -262 65q-127 80 -127 225q0 159 145 330zM500 731l43 205l180 -76l-45 -207z" />
    <glyph glyph-name="Agrave" unicode="&#xc0;" 
d="M1731 571q-78 0 -154 -79l-119 -140q-371 -368 -803 -368q-222 0 -397 129q-192 140 -192 356q0 193 161 324q152 122 351 122q95 0 161 -34q80 -46 80 -138q0 -96 -78 -184q-78 -90 -174 -90q-37 0 -64 25q-28 24 -28 61q0 18 7 34q6 16 17 28t26 19q14 7 30 7
q44 0 66 -37q41 16 41 58q0 21 -10 39q-11 17 -27 30q-17 12 -38 19q-22 6 -44 6q-132 0 -236 -84q-108 -91 -108 -221q0 -155 112 -258q115 -103 267 -103q696 0 1259 942q77 131 146 234t131 180l77 -55q-49 -97 -80 -250l-188 -914q-2 -9 -3 -18t-1 -18q0 -26 10 -45
q9 -20 29 -31q2 0 74 -23q39 -12 39 -43q0 -51 -54 -51h-487q-49 0 -49 43q0 35 57 55q46 17 75 28t40 19q69 42 90 134q6 30 15 73q8 37 19 92q10 54 25 127h-71zM1772 662q32 0 49 22q5 8 8 22q3 13 8 33l47 224q-155 -247 -155 -261zM2005 1519l-258 193q-37 28 -37 73
q0 18 7 34t19 28t28 19t35 7q21 0 41 -10q19 -11 34 -31l246 -313h-115z" />
    <glyph glyph-name="Aacute" unicode="&#xc1;" 
d="M1731 571q-78 0 -154 -79l-119 -140q-371 -368 -803 -368q-222 0 -397 129q-192 140 -192 356q0 193 161 324q152 122 351 122q95 0 161 -34q80 -46 80 -138q0 -96 -78 -184q-78 -90 -174 -90q-37 0 -64 25q-28 24 -28 61q0 18 7 34q6 16 17 28t26 19q14 7 30 7
q44 0 66 -37q41 16 41 58q0 21 -10 39q-11 17 -27 30q-17 12 -38 19q-22 6 -44 6q-132 0 -236 -84q-108 -91 -108 -221q0 -155 112 -258q115 -103 267 -103q696 0 1259 942q77 131 146 234t131 180l77 -55q-49 -97 -80 -250l-188 -914q-2 -9 -3 -18t-1 -18q0 -26 10 -45
q9 -20 29 -31q2 0 74 -23q39 -12 39 -43q0 -51 -54 -51h-487q-49 0 -49 43q0 35 57 55q46 17 75 28t40 19q69 42 90 134q6 30 15 73q8 37 19 92q10 54 25 127h-71zM1772 662q32 0 49 22q5 8 8 22q3 13 8 33l47 224q-155 -247 -155 -261zM1882 1483l246 313q32 41 76 41
q18 0 34 -7t28 -19t19 -28t7 -34q0 -46 -37 -73l-258 -193h-115z" />
    <glyph glyph-name="Acircumflex" unicode="&#xc2;" 
d="M1731 571q-78 0 -154 -79l-119 -140q-371 -368 -803 -368q-222 0 -397 129q-192 140 -192 356q0 193 161 324q152 122 351 122q95 0 161 -34q80 -46 80 -138q0 -96 -78 -184q-78 -90 -174 -90q-37 0 -64 25q-28 24 -28 61q0 18 7 34q6 16 17 28t26 19q14 7 30 7
q44 0 66 -37q41 16 41 58q0 21 -10 39q-11 17 -27 30q-17 12 -38 19q-22 6 -44 6q-132 0 -236 -84q-108 -91 -108 -221q0 -155 112 -258q115 -103 267 -103q696 0 1259 942q77 131 146 234t131 180l77 -55q-49 -97 -80 -250l-188 -914q-2 -9 -3 -18t-1 -18q0 -26 10 -45
q9 -20 29 -31q2 0 74 -23q39 -12 39 -43q0 -51 -54 -51h-487q-49 0 -49 43q0 35 57 55q46 17 75 28t40 19q69 42 90 134q6 30 15 73q8 37 19 92q10 54 25 127h-71zM1772 662q32 0 49 22q5 8 8 22q3 13 8 33l47 224q-155 -247 -155 -261zM2040 1778h65l191 -303h-91l-174 113
l-223 -113h-90z" />
    <glyph glyph-name="Atilde" unicode="&#xc3;" 
d="M1731 571q-78 0 -154 -79l-119 -140q-371 -368 -803 -368q-222 0 -397 129q-192 140 -192 356q0 193 161 324q152 122 351 122q95 0 161 -34q80 -46 80 -138q0 -96 -78 -184q-78 -90 -174 -90q-37 0 -64 25q-28 24 -28 61q0 18 7 34q6 16 17 28t26 19q14 7 30 7
q44 0 66 -37q41 16 41 58q0 21 -10 39q-11 17 -27 30q-17 12 -38 19q-22 6 -44 6q-132 0 -236 -84q-108 -91 -108 -221q0 -155 112 -258q115 -103 267 -103q696 0 1259 942q77 131 146 234t131 180l77 -55q-49 -97 -80 -250l-188 -914q-2 -9 -3 -18t-1 -18q0 -26 10 -45
q9 -20 29 -31q2 0 74 -23q39 -12 39 -43q0 -51 -54 -51h-487q-49 0 -49 43q0 35 57 55q46 17 75 28t40 19q69 42 90 134q6 30 15 73q8 37 19 92q10 54 25 127h-71zM1772 662q32 0 49 22q5 8 8 22q3 13 8 33l47 224q-155 -247 -155 -261zM1874 1716q27 0 61 -11t76 -34
q82 -43 121 -43q38 0 60 17t30 49h71q-9 -82 -73 -146q-65 -65 -146 -65q-54 0 -139 43q-84 43 -125 43q-73 0 -88 -64h-72q6 44 26 83q20 38 50 67q29 28 67 45z" />
    <glyph glyph-name="Adieresis" unicode="&#xc4;" 
d="M1731 571q-78 0 -154 -79l-119 -140q-371 -368 -803 -368q-222 0 -397 129q-192 140 -192 356q0 193 161 324q152 122 351 122q95 0 161 -34q80 -46 80 -138q0 -96 -78 -184q-78 -90 -174 -90q-37 0 -64 25q-28 24 -28 61q0 18 7 34q6 16 17 28t26 19q14 7 30 7
q44 0 66 -37q41 16 41 58q0 21 -10 39q-11 17 -27 30q-17 12 -38 19q-22 6 -44 6q-132 0 -236 -84q-108 -91 -108 -221q0 -155 112 -258q115 -103 267 -103q696 0 1259 942q77 131 146 234t131 180l77 -55q-49 -97 -80 -250l-188 -914q-2 -9 -3 -18t-1 -18q0 -26 10 -45
q9 -20 29 -31q2 0 74 -23q39 -12 39 -43q0 -51 -54 -51h-487q-49 0 -49 43q0 35 57 55q46 17 75 28t40 19q69 42 90 134q6 30 15 73q8 37 19 92q10 54 25 127h-71zM1772 662q32 0 49 22q5 8 8 22q3 13 8 33l47 224q-155 -247 -155 -261zM2089 1675q19 0 36 -7t30 -19
q12 -13 19 -29q7 -17 7 -35q0 -19 -7 -36t-19 -29q-13 -13 -30 -20t-36 -7q-18 0 -34 7q-17 7 -29 20q-13 12 -20 29t-7 36q0 37 27 64zM1868 1675q37 0 64 -26q26 -27 26 -64q0 -19 -7 -36t-19 -29q-13 -13 -29 -20q-17 -7 -35 -7q-19 0 -36 7t-29 20q-13 12 -20 29t-7 36
q0 18 7 35q7 16 20 29q12 12 29 19z" />
    <glyph glyph-name="Aring" unicode="&#xc5;" 
d="M1731 571q-78 0 -154 -79l-119 -140q-371 -368 -803 -368q-222 0 -397 129q-192 140 -192 356q0 193 161 324q152 122 351 122q95 0 161 -34q80 -46 80 -138q0 -96 -78 -184q-78 -90 -174 -90q-37 0 -64 25q-28 24 -28 61q0 18 7 34q6 16 17 28t26 19q14 7 30 7
q44 0 66 -37q41 16 41 58q0 21 -10 39q-11 17 -27 30q-17 12 -38 19q-22 6 -44 6q-132 0 -236 -84q-108 -91 -108 -221q0 -155 112 -258q115 -103 267 -103q696 0 1259 942q77 131 146 234t131 180l77 -55q-49 -97 -80 -250l-188 -914q-2 -9 -3 -18t-1 -18q0 -26 10 -45
q9 -20 29 -31q2 0 74 -23q39 -12 39 -43q0 -51 -54 -51h-487q-49 0 -49 43q0 35 57 55q46 17 75 28t40 19q69 42 90 134q6 30 15 73q8 37 19 92q10 54 25 127h-71zM1772 662q32 0 49 22q5 8 8 22q3 13 8 33l47 224q-155 -247 -155 -261zM2060 1766q30 0 57 -11
q26 -12 46 -32t32 -46q11 -27 11 -57t-11 -56q-12 -26 -32 -46t-46 -31q-27 -12 -57 -12t-56 12q-27 11 -46 31q-20 20 -31 46q-12 26 -12 56t12 57q11 26 31 46q19 20 46 32zM2060 1698q-15 0 -29 -6t-24 -16q-11 -11 -17 -25q-6 -15 -6 -31q0 -31 23 -53q22 -22 53 -22
q32 0 55 22t23 53q0 32 -23 55z" />
    <glyph glyph-name="AE" unicode="&#xc6;" horiz-adv-x="1907" 
d="M860 0q-49 0 -49 41q0 17 9 30t28 21l65 33q18 12 32 23q13 10 23 24t18 33q7 18 13 45l50 196h-353l-256 -270q-14 -15 -20 -28q-6 -14 -6 -25q0 -29 53 -41t53 -43q0 -41 -47 -41h-364q-43 0 -43 37q0 41 45 41q99 0 251 162l795 843q-17 3 -35 7q-18 3 -35 8
q-43 9 -43 47q0 59 74 59h416q93 0 195 51q22 11 45 11q63 0 63 -56v-9q0 -4 -2 -9l-53 -266q-5 -22 -16 -32q-12 -11 -29 -11q-33 0 -39 45q-29 159 -148 159h-151l-103 -411h160q133 0 184 119q16 32 39 32q29 0 29 -34v-11q0 -5 -2 -10l-88 -352q-9 -33 -37 -33
q-31 0 -31 49q0 101 -102 125q-19 5 -63 8q-44 2 -113 2l-115 -452h246q231 0 399 282q29 41 62 41q43 0 43 -45q0 -21 -13 -43l-149 -250q-19 -29 -30 -46q-12 -18 -17 -23q-27 -33 -76 -33h-762zM1176 956l-394 -417h289z" />
    <glyph glyph-name="Ccedilla" unicode="&#xc7;" horiz-adv-x="1153" 
d="M627 -489q34 -9 63 -29q28 -20 49 -47q21 -26 33 -59q12 -32 12 -66q0 -89 -84 -150q-76 -55 -165 -55q-140 0 -140 84q0 29 23 48q22 20 53 20q15 0 31 -7t31 -16q14 -8 27 -15t22 -7q24 0 44 19q19 19 19 44q0 50 -55 78q-23 11 -46 16q-24 6 -50 6h-66l154 236
q-112 18 -206 78q-95 60 -164 153q-69 94 -107 217q-39 123 -39 267q0 150 31 286t88 252q56 116 137 210q80 93 179 159t214 102q115 35 241 35q51 0 99 -12q47 -13 84 -36q36 -24 58 -57q22 -34 22 -75q0 -16 -7 -30t-18 -24t-26 -16t-31 -6q-23 0 -37 12q-15 11 -25 29
q-10 17 -18 37q-9 20 -20 38q-12 17 -29 29q-18 11 -45 11q-102 0 -193 -32q-92 -33 -169 -92q-77 -60 -138 -143q-62 -83 -104 -184q-43 -101 -66 -217q-23 -117 -23 -242q0 -142 31 -261q30 -120 85 -207q55 -86 131 -135q76 -48 167 -48q253 0 342 127q24 34 40 53
q15 19 27 28q12 10 24 12q12 3 30 3q38 0 55 -16q17 -15 17 -47q0 -45 -44 -92q-45 -47 -119 -85q-75 -38 -171 -63q-97 -25 -201 -26z" />
    <glyph glyph-name="Egrave" unicode="&#xc8;" horiz-adv-x="1577" 
d="M1061 96q190 0 323 172l54 80q16 23 35 23q40 0 40 -41q0 -15 -120 -234q-56 -98 -140 -98h-876q-49 0 -49 43q0 39 45 51q63 14 103 27t59 24q75 40 98 133l219 877q-102 18 -211 18q-75 0 -145 -17q-71 -17 -136 -52q-155 -82 -155 -219q0 -30 37 -64t37 -65
q0 -16 -7 -30q-7 -15 -19 -25q-13 -11 -29 -17t-34 -6q-56 0 -92 51q-32 45 -32 104q0 201 172 318q74 51 164 76q90 24 196 24q62 0 119 -2q56 -3 108 -8q56 -5 85 -9q23 -3 24 -3h416q51 0 98 18q20 8 34 13q13 4 21 4q74 0 74 -68v-12q0 -6 -2 -11l-72 -282
q-9 -35 -41 -35q-41 0 -41 47v197q0 57 -57 57h-322l-112 -444h258q73 0 121 28q28 17 57 56q25 28 39 28q33 0 33 -32q0 -8 -9 -48q-10 -40 -28 -114q-17 -75 -28 -118q-12 -44 -17 -58t-13 -20q-9 -7 -20 -7q-33 0 -33 55q0 125 -133 125h-254l-127 -510h285zM1118 1294
l-258 193q-37 28 -37 73q0 18 7 34t19 28t28 19t35 7q21 0 41 -10q19 -11 34 -31l246 -313h-115z" />
    <glyph glyph-name="Eacute" unicode="&#xc9;" horiz-adv-x="1577" 
d="M1061 96q190 0 323 172l54 80q16 23 35 23q40 0 40 -41q0 -15 -120 -234q-56 -98 -140 -98h-876q-49 0 -49 43q0 39 45 51q63 14 103 27t59 24q75 40 98 133l219 877q-102 18 -211 18q-75 0 -145 -17q-71 -17 -136 -52q-155 -82 -155 -219q0 -30 37 -64t37 -65
q0 -16 -7 -30q-7 -15 -19 -25q-13 -11 -29 -17t-34 -6q-56 0 -92 51q-32 45 -32 104q0 201 172 318q74 51 164 76q90 24 196 24q62 0 119 -2q56 -3 108 -8q56 -5 85 -9q23 -3 24 -3h416q51 0 98 18q20 8 34 13q13 4 21 4q74 0 74 -68v-12q0 -6 -2 -11l-72 -282
q-9 -35 -41 -35q-41 0 -41 47v197q0 57 -57 57h-322l-112 -444h258q73 0 121 28q28 17 57 56q25 28 39 28q33 0 33 -32q0 -8 -9 -48q-10 -40 -28 -114q-17 -75 -28 -118q-12 -44 -17 -58t-13 -20q-9 -7 -20 -7q-33 0 -33 55q0 125 -133 125h-254l-127 -510h285zM1103 1294
l246 313q32 41 76 41q18 0 34 -7t28 -19t19 -28t7 -34q0 -46 -37 -73l-258 -193h-115z" />
    <glyph glyph-name="Ecircumflex" unicode="&#xca;" horiz-adv-x="1577" 
d="M1061 96q190 0 323 172l54 80q16 23 35 23q40 0 40 -41q0 -15 -120 -234q-56 -98 -140 -98h-876q-49 0 -49 43q0 39 45 51q63 14 103 27t59 24q75 40 98 133l219 877q-102 18 -211 18q-75 0 -145 -17q-71 -17 -136 -52q-155 -82 -155 -219q0 -30 37 -64t37 -65
q0 -16 -7 -30q-7 -15 -19 -25q-13 -11 -29 -17t-34 -6q-56 0 -92 51q-32 45 -32 104q0 201 172 318q74 51 164 76q90 24 196 24q62 0 119 -2q56 -3 108 -8q56 -5 85 -9q23 -3 24 -3h416q51 0 98 18q20 8 34 13q13 4 21 4q74 0 74 -68v-12q0 -6 -2 -11l-72 -282
q-9 -35 -41 -35q-41 0 -41 47v197q0 57 -57 57h-322l-112 -444h258q73 0 121 28q28 17 57 56q25 28 39 28q33 0 33 -32q0 -8 -9 -48q-10 -40 -28 -114q-17 -75 -28 -118q-12 -44 -17 -58t-13 -20q-9 -7 -20 -7q-33 0 -33 55q0 125 -133 125h-254l-127 -510h285zM1174 1630
h65l191 -303h-91l-174 113l-223 -113h-90z" />
    <glyph glyph-name="Edieresis" unicode="&#xcb;" horiz-adv-x="1577" 
d="M1061 96q190 0 323 172l54 80q16 23 35 23q40 0 40 -41q0 -15 -120 -234q-56 -98 -140 -98h-876q-49 0 -49 43q0 39 45 51q63 14 103 27t59 24q75 40 98 133l219 877q-102 18 -211 18q-75 0 -145 -17q-71 -17 -136 -52q-155 -82 -155 -219q0 -30 37 -64t37 -65
q0 -16 -7 -30q-7 -15 -19 -25q-13 -11 -29 -17t-34 -6q-56 0 -92 51q-32 45 -32 104q0 201 172 318q74 51 164 76q90 24 196 24q62 0 119 -2q56 -3 108 -8q56 -5 85 -9q23 -3 24 -3h416q51 0 98 18q20 8 34 13q13 4 21 4q74 0 74 -68v-12q0 -6 -2 -11l-72 -282
q-9 -35 -41 -35q-41 0 -41 47v197q0 57 -57 57h-322l-112 -444h258q73 0 121 28q28 17 57 56q25 28 39 28q33 0 33 -32q0 -8 -9 -48q-10 -40 -28 -114q-17 -75 -28 -118q-12 -44 -17 -58t-13 -20q-9 -7 -20 -7q-33 0 -33 55q0 125 -133 125h-254l-127 -510h285zM1253 1497
q19 0 36 -7t30 -19q12 -13 19 -29q7 -17 7 -35q0 -19 -7 -36t-19 -29q-13 -13 -30 -20t-36 -7q-18 0 -34 7q-17 7 -29 20q-13 12 -20 29t-7 36q0 37 27 64zM1032 1497q37 0 64 -26q26 -27 26 -64q0 -19 -7 -36t-19 -29q-13 -13 -29 -20q-17 -7 -35 -7q-19 0 -36 7t-29 20
q-13 12 -20 29t-7 36q0 18 7 35q7 16 20 29q12 12 29 19z" />
    <glyph glyph-name="Igrave" unicode="&#xcc;" horiz-adv-x="934" 
d="M502 190q0 -26 11 -45q10 -19 30 -30q5 -5 73 -25q39 -12 39 -43q0 -49 -55 -49h-485q-49 0 -49 43q0 35 57 55q96 35 117 49q35 22 57 54q21 32 31 77l149 701q5 20 7 35q1 15 1 26q0 67 -71 76q-35 5 -53 18q-19 13 -19 33q0 60 74 60h84q28 -2 48 -2h34q52 0 95 2
q43 1 77 6l67 14q22 5 39 8q17 2 31 2q43 0 43 -43q0 -33 -60 -55q-48 -17 -77 -28t-41 -19q-71 -47 -92 -143l-158 -740q-2 -11 -3 -20zM583 1313l-258 193q-37 28 -37 73q0 18 7 34t19 28t28 19t35 7q21 0 41 -10q19 -11 34 -31l246 -313h-115z" />
    <glyph glyph-name="Iacute" unicode="&#xcd;" horiz-adv-x="934" 
d="M502 190q0 -26 11 -45q10 -19 30 -30q5 -5 73 -25q39 -12 39 -43q0 -49 -55 -49h-485q-49 0 -49 43q0 35 57 55q96 35 117 49q35 22 57 54q21 32 31 77l149 701q5 20 7 35q1 15 1 26q0 67 -71 76q-35 5 -53 18q-19 13 -19 33q0 60 74 60h84q28 -2 48 -2h34q52 0 95 2
q43 1 77 6l67 14q22 5 39 8q17 2 31 2q43 0 43 -43q0 -33 -60 -55q-48 -17 -77 -28t-41 -19q-71 -47 -92 -143l-158 -740q-2 -11 -3 -20zM610 1309l246 313q32 41 76 41q18 0 34 -7t28 -19t19 -28t7 -34q0 -46 -37 -73l-258 -193h-115z" />
    <glyph glyph-name="Icircumflex" unicode="&#xce;" horiz-adv-x="934" 
d="M502 190q0 -26 11 -45q10 -19 30 -30q5 -5 73 -25q39 -12 39 -43q0 -49 -55 -49h-485q-49 0 -49 43q0 35 57 55q96 35 117 49q35 22 57 54q21 32 31 77l149 701q5 20 7 35q1 15 1 26q0 67 -71 76q-35 5 -53 18q-19 13 -19 33q0 60 74 60h84q28 -2 48 -2h34q52 0 95 2
q43 1 77 6l67 14q22 5 39 8q17 2 31 2q43 0 43 -43q0 -33 -60 -55q-48 -17 -77 -28t-41 -19q-71 -47 -92 -143l-158 -740q-2 -11 -3 -20zM689 1647h65l191 -303h-91l-174 113l-223 -113h-90z" />
    <glyph glyph-name="Idieresis" unicode="&#xcf;" horiz-adv-x="934" 
d="M502 190q0 -26 11 -45q10 -19 30 -30q5 -5 73 -25q39 -12 39 -43q0 -49 -55 -49h-485q-49 0 -49 43q0 35 57 55q96 35 117 49q35 22 57 54q21 32 31 77l149 701q5 20 7 35q1 15 1 26q0 67 -71 76q-35 5 -53 18q-19 13 -19 33q0 60 74 60h84q28 -2 48 -2h34q52 0 95 2
q43 1 77 6l67 14q22 5 39 8q17 2 31 2q43 0 43 -43q0 -33 -60 -55q-48 -17 -77 -28t-41 -19q-71 -47 -92 -143l-158 -740q-2 -11 -3 -20zM786 1536q19 0 36 -7t30 -19q12 -13 19 -29q7 -17 7 -35q0 -19 -7 -36t-19 -29q-13 -13 -30 -20t-36 -7q-18 0 -34 7q-17 7 -29 20
q-13 12 -20 29t-7 36q0 37 27 64zM565 1536q37 0 64 -26q26 -27 26 -64q0 -19 -7 -36t-19 -29q-13 -13 -29 -20q-17 -7 -35 -7q-19 0 -36 7t-29 20q-13 12 -20 29t-7 36q0 18 7 35q7 16 20 29q12 12 29 19z" />
    <glyph glyph-name="Eth" unicode="&#xd0;" horiz-adv-x="1583" 
d="M1583 682q0 -290 -225 -492q-217 -192 -512 -192h-520q-50 0 -50 45q0 36 43 51q36 13 74 25q38 11 70 37q29 21 48 52q18 31 28 73l61 256h-250l25 92h246l114 489q-157 49 -362 49q-47 0 -88 -22q-23 -14 -35 -31q-12 -18 -12 -41q0 -11 3 -30q3 -20 3 -31
q0 -22 -7 -42q-7 -21 -19 -36q-13 -16 -30 -25q-17 -10 -38 -10q-38 0 -61 27q-23 26 -23 63q0 117 96 197q92 74 211 74q18 0 106 -6q87 -7 246 -19q48 -5 101 -6q52 -2 112 -2q131 0 242 -34t202 -103zM788 537l-67 -299l-1 -3q-5 -36 -5 -63q0 -63 110 -63q239 0 412 176
q87 88 130 192q42 103 42 223q0 184 -117 297q-113 115 -299 115q-68 0 -88 -78l-94 -405h223l-24 -92h-222z" />
    <glyph glyph-name="Ntilde" unicode="&#xd1;" horiz-adv-x="1987" 
d="M1399 301q24 177 75 327q50 150 121 260t159 172q87 62 185 62q22 0 44 -8q21 -8 37 -21q16 -14 26 -33t10 -40q0 -42 -28 -69t-70 -27q-55 0 -82 47q-53 -21 -102 -65t-93 -104q-44 -61 -81 -136q-38 -75 -67 -159q-29 -85 -49 -176q-21 -91 -30 -184q250 -630 692 -630
q58 0 110 16q51 16 91 45q39 30 66 71q27 42 38 93q-96 15 -96 94q0 42 34 70t87 28q27 0 50 -11q23 -10 40 -28q16 -17 26 -41q9 -24 9 -51q0 -72 -39 -140t-111 -121q-72 -52 -174 -84q-102 -31 -227 -31q-192 0 -346 85q-154 86 -272 263q-119 177 -203 449
q-85 272 -137 644l-258 -458q-118 -209 -240 -312q-122 -104 -256 -104q-52 0 -101 18q-49 17 -87 49q-38 31 -61 75t-23 97q0 46 19 85t51 68q31 28 73 44t88 16q96 0 96 -81q0 -21 -8 -38t-21 -29q-13 -13 -30 -19q-18 -7 -37 -7q-59 0 -80 52q-47 -38 -47 -93
q0 -30 15 -55q14 -25 38 -44t54 -29q30 -11 61 -11q186 0 403 316q51 72 119 192q67 120 154 291q39 76 39 106q0 50 -156 50q-78 0 -154 -12q-76 -13 -136 -34t-97 -49q-37 -29 -37 -61q0 -13 13 -26q13 -14 29 -28t29 -29t13 -30q0 -63 -78 -63q-27 0 -52 9q-26 9 -45 26
q-19 16 -30 39q-12 22 -12 49q0 66 45 124t123 102q78 43 185 68q106 25 229 25q121 0 297 -24q42 -269 87 -475zM1407 1413q27 0 61 -11t76 -34q82 -43 121 -43q38 0 60 17t30 49h71q-9 -82 -73 -146q-65 -65 -146 -65q-54 0 -139 43q-84 43 -125 43q-73 0 -88 -64h-72
q6 44 26 83q20 38 50 67q29 28 67 45z" />
    <glyph glyph-name="Ograve" unicode="&#xd2;" horiz-adv-x="1253" 
d="M803 1235q100 0 183 -35q82 -36 142 -99q59 -63 92 -149t33 -186q0 -95 -28 -189q-29 -94 -80 -179q-51 -86 -120 -159q-70 -73 -152 -126q-82 -54 -173 -84q-91 -31 -184 -31q-98 0 -180 36q-83 35 -143 98q-60 62 -93 149q-34 86 -34 188q0 94 29 188q28 93 79 178
q50 85 119 158t151 127t174 85zM266 547q0 -87 26 -163q25 -77 70 -134t108 -90q62 -33 136 -33q90 0 169 45t138 121q59 75 93 173t34 204q0 87 -25 164q-25 76 -70 133t-107 90q-63 33 -138 33q-59 0 -114 -21q-56 -21 -104 -58t-88 -88t-68 -111q-29 -61 -44 -128z
M805 1309l-258 193q-37 28 -37 73q0 18 7 34t19 28t28 19t35 7q21 0 41 -10q19 -11 34 -31l246 -313h-115z" />
    <glyph glyph-name="Oacute" unicode="&#xd3;" horiz-adv-x="1253" 
d="M803 1235q100 0 183 -35q82 -36 142 -99q59 -63 92 -149t33 -186q0 -95 -28 -189q-29 -94 -80 -179q-51 -86 -120 -159q-70 -73 -152 -126q-82 -54 -173 -84q-91 -31 -184 -31q-98 0 -180 36q-83 35 -143 98q-60 62 -93 149q-34 86 -34 188q0 94 29 188q28 93 79 178
q50 85 119 158t151 127t174 85zM266 547q0 -87 26 -163q25 -77 70 -134t108 -90q62 -33 136 -33q90 0 169 45t138 121q59 75 93 173t34 204q0 87 -25 164q-25 76 -70 133t-107 90q-63 33 -138 33q-59 0 -114 -21q-56 -21 -104 -58t-88 -88t-68 -111q-29 -61 -44 -128z
M796 1315l246 313q32 41 76 41q18 0 34 -7t28 -19t19 -28t7 -34q0 -46 -37 -73l-258 -193h-115z" />
    <glyph glyph-name="Ocircumflex" unicode="&#xd4;" horiz-adv-x="1253" 
d="M803 1235q100 0 183 -35q82 -36 142 -99q59 -63 92 -149t33 -186q0 -95 -28 -189q-29 -94 -80 -179q-51 -86 -120 -159q-70 -73 -152 -126q-82 -54 -173 -84q-91 -31 -184 -31q-98 0 -180 36q-83 35 -143 98q-60 62 -93 149q-34 86 -34 188q0 94 29 188q28 93 79 178
q50 85 119 158t151 127t174 85zM266 547q0 -87 26 -163q25 -77 70 -134t108 -90q62 -33 136 -33q90 0 169 45t138 121q59 75 93 173t34 204q0 87 -25 164q-25 76 -70 133t-107 90q-63 33 -138 33q-59 0 -114 -21q-56 -21 -104 -58t-88 -88t-68 -111q-29 -61 -44 -128z
M871 1601h65l191 -303h-91l-174 113l-223 -113h-90z" />
    <glyph glyph-name="Otilde" unicode="&#xd5;" horiz-adv-x="1253" 
d="M803 1235q100 0 183 -35q82 -36 142 -99q59 -63 92 -149t33 -186q0 -95 -28 -189q-29 -94 -80 -179q-51 -86 -120 -159q-70 -73 -152 -126q-82 -54 -173 -84q-91 -31 -184 -31q-98 0 -180 36q-83 35 -143 98q-60 62 -93 149q-34 86 -34 188q0 94 29 188q28 93 79 178
q50 85 119 158t151 127t174 85zM266 547q0 -87 26 -163q25 -77 70 -134t108 -90q62 -33 136 -33q90 0 169 45t138 121q59 75 93 173t34 204q0 87 -25 164q-25 76 -70 133t-107 90q-63 33 -138 33q-59 0 -114 -21q-56 -21 -104 -58t-88 -88t-68 -111q-29 -61 -44 -128z
M740 1546q27 0 61 -11t76 -34q82 -43 121 -43q38 0 60 17t30 49h71q-9 -82 -73 -146q-65 -65 -146 -65q-54 0 -139 43q-84 43 -125 43q-73 0 -88 -64h-72q6 44 26 83q20 38 50 67q29 28 67 45z" />
    <glyph glyph-name="Odieresis" unicode="&#xd6;" horiz-adv-x="1253" 
d="M803 1235q100 0 183 -35q82 -36 142 -99q59 -63 92 -149t33 -186q0 -95 -28 -189q-29 -94 -80 -179q-51 -86 -120 -159q-70 -73 -152 -126q-82 -54 -173 -84q-91 -31 -184 -31q-98 0 -180 36q-83 35 -143 98q-60 62 -93 149q-34 86 -34 188q0 94 29 188q28 93 79 178
q50 85 119 158t151 127t174 85zM266 547q0 -87 26 -163q25 -77 70 -134t108 -90q62 -33 136 -33q90 0 169 45t138 121q59 75 93 173t34 204q0 87 -25 164q-25 76 -70 133t-107 90q-63 33 -138 33q-59 0 -114 -21q-56 -21 -104 -58t-88 -88t-68 -111q-29 -61 -44 -128z
M956 1503q19 0 36 -7t30 -19q12 -13 19 -29q7 -17 7 -35q0 -19 -7 -36t-19 -29q-13 -13 -30 -20t-36 -7q-18 0 -34 7q-17 7 -29 20q-13 12 -20 29t-7 36q0 37 27 64zM735 1503q37 0 64 -26q26 -27 26 -64q0 -19 -7 -36t-19 -29q-13 -13 -29 -20q-17 -7 -35 -7q-19 0 -36 7
t-29 20q-13 12 -20 29t-7 36q0 18 7 35q7 16 20 29q12 12 29 19z" />
    <glyph glyph-name="multiply" unicode="&#xd7;" horiz-adv-x="881" 
d="M440 690l246 246l121 -123l-244 -244l244 -245l-121 -123l-246 245l-243 -245l-123 123l245 245l-245 244l123 123z" />
    <glyph glyph-name="Oslash" unicode="&#xd8;" horiz-adv-x="1452" 
d="M944 1196q198 0 328 -115l131 115l49 -57l-129 -113q45 -57 67 -125q21 -69 21 -147q0 -302 -268 -549q-267 -246 -570 -246q-201 0 -327 117l-131 -115l-49 55l129 115q-45 57 -67 126q-22 68 -22 146q0 299 271 549zM1085 918q-104 133 -268 133q-66 0 -128 -21
q-62 -22 -117 -60t-100 -90q-46 -53 -79 -114q-33 -62 -51 -131q-18 -70 -18 -141q0 -111 49 -205zM414 223q106 -137 272 -137q100 0 189 47t157 125q67 78 107 179q39 100 39 208q0 109 -50 209z" />
    <glyph glyph-name="Ugrave" unicode="&#xd9;" horiz-adv-x="1591" 
d="M240 668q27 30 65 30q19 0 36 -8t30 -21q13 -14 21 -32q7 -18 7 -37q0 -52 -51 -86q-44 -27 -100 -27q-79 0 -131 64q-51 63 -51 143q0 242 204 404q189 149 439 149h82q172 0 274 39l55 -41l-198 -313q-66 -103 -100 -233q-34 -131 -34 -293q0 -45 13 -89q12 -44 35 -86
q26 -51 61 -75q34 -25 76 -25q198 0 373 254q174 255 174 561q0 76 -74 105q-72 28 -72 77q0 24 12 44q11 20 29 35q18 14 41 22t47 8q31 0 56 -12t43 -32q18 -21 28 -48t10 -58q0 -395 -213 -731q-91 -146 -208 -245q-76 -63 -147 -95t-140 -32q-137 0 -225 110
q-84 102 -84 240q0 391 323 788h-332q-80 0 -150 -24q-70 -25 -130 -76q-129 -108 -129 -264zM1228 1335l-258 193q-37 28 -37 73q0 18 7 34t19 28t28 19t35 7q21 0 41 -10q19 -11 34 -31l246 -313h-115z" />
    <glyph glyph-name="Uacute" unicode="&#xda;" horiz-adv-x="1591" 
d="M240 668q27 30 65 30q19 0 36 -8t30 -21q13 -14 21 -32q7 -18 7 -37q0 -52 -51 -86q-44 -27 -100 -27q-79 0 -131 64q-51 63 -51 143q0 242 204 404q189 149 439 149h82q172 0 274 39l55 -41l-198 -313q-66 -103 -100 -233q-34 -131 -34 -293q0 -45 13 -89q12 -44 35 -86
q26 -51 61 -75q34 -25 76 -25q198 0 373 254q174 255 174 561q0 76 -74 105q-72 28 -72 77q0 24 12 44q11 20 29 35q18 14 41 22t47 8q31 0 56 -12t43 -32q18 -21 28 -48t10 -58q0 -395 -213 -731q-91 -146 -208 -245q-76 -63 -147 -95t-140 -32q-137 0 -225 110
q-84 102 -84 240q0 391 323 788h-332q-80 0 -150 -24q-70 -25 -130 -76q-129 -108 -129 -264zM1148 1350l246 313q32 41 76 41q18 0 34 -7t28 -19t19 -28t7 -34q0 -46 -37 -73l-258 -193h-115z" />
    <glyph glyph-name="Ucircumflex" unicode="&#xdb;" horiz-adv-x="1591" 
d="M240 668q27 30 65 30q19 0 36 -8t30 -21q13 -14 21 -32q7 -18 7 -37q0 -52 -51 -86q-44 -27 -100 -27q-79 0 -131 64q-51 63 -51 143q0 242 204 404q189 149 439 149h82q172 0 274 39l55 -41l-198 -313q-66 -103 -100 -233q-34 -131 -34 -293q0 -45 13 -89q12 -44 35 -86
q26 -51 61 -75q34 -25 76 -25q198 0 373 254q174 255 174 561q0 76 -74 105q-72 28 -72 77q0 24 12 44q11 20 29 35q18 14 41 22t47 8q31 0 56 -12t43 -32q18 -21 28 -48t10 -58q0 -395 -213 -731q-91 -146 -208 -245q-76 -63 -147 -95t-140 -32q-137 0 -225 110
q-84 102 -84 240q0 391 323 788h-332q-80 0 -150 -24q-70 -25 -130 -76q-129 -108 -129 -264zM1268 1632h65l191 -303h-91l-174 113l-223 -113h-90z" />
    <glyph glyph-name="Udieresis" unicode="&#xdc;" horiz-adv-x="1591" 
d="M240 668q27 30 65 30q19 0 36 -8t30 -21q13 -14 21 -32q7 -18 7 -37q0 -52 -51 -86q-44 -27 -100 -27q-79 0 -131 64q-51 63 -51 143q0 242 204 404q189 149 439 149h82q172 0 274 39l55 -41l-198 -313q-66 -103 -100 -233q-34 -131 -34 -293q0 -45 13 -89q12 -44 35 -86
q26 -51 61 -75q34 -25 76 -25q198 0 373 254q174 255 174 561q0 76 -74 105q-72 28 -72 77q0 24 12 44q11 20 29 35q18 14 41 22t47 8q31 0 56 -12t43 -32q18 -21 28 -48t10 -58q0 -395 -213 -731q-91 -146 -208 -245q-76 -63 -147 -95t-140 -32q-137 0 -225 110
q-84 102 -84 240q0 391 323 788h-332q-80 0 -150 -24q-70 -25 -130 -76q-129 -108 -129 -264zM1368 1548q19 0 36 -7t30 -19q12 -13 19 -29q7 -17 7 -35q0 -19 -7 -36t-19 -29q-13 -13 -30 -20t-36 -7q-18 0 -34 7q-17 7 -29 20q-13 12 -20 29t-7 36q0 37 27 64zM1147 1548
q37 0 64 -26q26 -27 26 -64q0 -19 -7 -36t-19 -29q-13 -13 -29 -20q-17 -7 -35 -7q-19 0 -36 7t-29 20q-13 12 -20 29t-7 36q0 18 7 35q7 16 20 29q12 12 29 19z" />
    <glyph glyph-name="Yacute" unicode="&#xdd;" horiz-adv-x="2513" 
d="M1804 94q-38 56 -63 125q-25 68 -33 152q-3 26 -3 101q-1 74 -1 198q0 58 -12 118q-12 59 -34 115q-23 55 -53 103q-31 48 -68 84t-79 57q-42 20 -86 20q-39 0 -82 -17q-43 -18 -79 -47q-36 -30 -59 -68q-24 -38 -24 -79q0 -36 14 -54t35 -26q21 -9 46 -13q24 -4 45 -12
t35 -24q14 -17 14 -51q0 -28 -15 -53t-38 -43q-24 -19 -52 -30q-29 -11 -57 -11q-37 0 -67 17q-31 16 -53 43q-23 27 -35 62q-13 35 -13 73q0 90 39 169t103 139q64 59 147 94q82 34 170 34q94 0 169 -42t128 -116q52 -74 80 -175t28 -220v-78q0 -128 17 -225
q17 -98 49 -164l510 842q-27 -7 -53 -7q-20 0 -49 9q-30 9 -59 20t-54 20t-37 9q-84 0 -102 -103q24 -3 46 -12t39 -23t27 -32q10 -19 10 -41q0 -78 -69 -78q-26 0 -49 13q-23 12 -40 33t-26 49q-10 28 -10 59q0 47 18 91q17 44 48 78q30 33 71 54q41 20 88 20q13 0 39 -5
q25 -5 53 -11q27 -6 52 -11t38 -5q76 0 115 71l64 -16q0 -23 -6 -43q-6 -21 -17 -44q-12 -23 -30 -52t-42 -68l-483 -799q-254 -418 -612 -625q-358 -206 -817 -206q-103 0 -196 19q-94 20 -164 55q-71 35 -112 83q-42 49 -42 107q0 40 18 74q17 35 48 60q31 26 72 41t89 15
q32 0 63 -9q31 -8 55 -23t39 -36q15 -20 15 -44q0 -31 -22 -52q-23 -20 -54 -20q-19 0 -33 8q-14 9 -25 19q-12 11 -22 19q-11 9 -24 9q-29 0 -51 -21q-23 -21 -23 -50q0 -39 33 -73q32 -34 85 -59q52 -25 118 -39t133 -14zM1884 1311l246 313q32 41 76 41q18 0 34 -7
t28 -19t19 -28t7 -34q0 -46 -37 -73l-258 -193h-115z" />
    <glyph glyph-name="Thorn" unicode="&#xde;" horiz-adv-x="1204" 
d="M707 1001q141 0 237 -13q95 -13 153 -40q57 -28 82 -72q25 -45 25 -108q0 -22 -3 -43q-4 -21 -9 -41q-26 -98 -80 -167q-54 -70 -136 -114t-191 -64q-110 -20 -248 -20l-26 -104q-9 -37 -9 -45q0 -24 12 -38q12 -15 30 -24q17 -9 38 -15t39 -12q17 -6 29 -15t12 -25
q0 -43 -46 -43h-507q-43 0 -43 39q0 22 18 33q17 11 59 14q27 2 53 14q26 11 48 29q22 17 38 41q16 23 23 49l221 887q2 8 3 15q1 6 1 14q0 14 -3 28q-4 14 -15 26t-31 21q-21 9 -55 13q-55 6 -55 41q0 45 47 45h508q41 0 41 -41t-78 -47q-29 -3 -55 -14q-27 -11 -48 -28
q-22 -18 -37 -40q-16 -23 -22 -50zM631 408q77 0 146 20t121 58q51 38 82 93q30 54 30 123q0 43 -16 79q-16 35 -44 60q-29 25 -67 39q-38 13 -82 13q-63 0 -102 -41q-40 -41 -60 -125l-80 -319h72z" />
    <glyph glyph-name="germandbls" unicode="&#xdf;" horiz-adv-x="1024" 
d="M446 55q0 32 29 35h53q25 0 49 8q24 7 42 21t29 34q11 19 11 44q0 6 -11 30q-12 23 -26 55q-15 32 -26 67q-12 34 -12 63q0 28 6 55q6 26 20 52q13 26 36 52q22 26 54 54q4 3 17 17q13 13 31 33t38 45q19 25 36 51q16 26 27 52q11 25 11 47q0 74 -69 74q-53 0 -101 -29
q-49 -29 -89 -79q-41 -51 -70 -118q-29 -68 -42 -145l-102 -593q-46 -265 -157 -396t-285 -131q-66 0 -108 28t-42 79q0 84 84 84q18 0 38 -16q20 -15 39 -34q20 -18 36 -34q17 -15 28 -15q84 0 146 108q61 109 98 327l92 538q18 105 68 200t121 168q71 72 157 115
q85 43 172 43q28 0 55 -9q27 -10 48 -26q21 -17 34 -40q13 -24 13 -51q0 -78 -109 -187l-174 -151q-29 -25 -42 -54q-13 -30 -13 -59q0 -22 16 -51q15 -30 34 -63q19 -34 35 -69q15 -35 15 -69q0 -47 -17 -87q-17 -41 -47 -70q-30 -30 -71 -47q-42 -17 -90 -17z" />
    <glyph glyph-name="agrave" unicode="&#xe0;" horiz-adv-x="913" 
d="M666 154q0 -54 49 -54q34 0 66 34t67 91q14 21 31 21q34 0 34 -33q0 -5 -1 -9t-3 -9q-39 -87 -116 -158q-92 -84 -170 -84q-55 0 -84 51q-29 44 -29 98q0 8 1 17t3 20q-88 -78 -165 -117q-77 -40 -146 -40q-137 0 -137 180q0 221 206 379q88 66 193 108q105 41 227 58
q70 57 90 57q47 0 47 -47v-9q0 -3 -2 -8l-149 -479zM657 532q0 58 -57 58q-105 0 -238 -148t-133 -254q0 -79 68 -79q82 0 221 163zM712 844l-258 193q-37 28 -37 73q0 18 7 34t19 28t28 19t35 7q21 0 41 -10q19 -11 34 -31l246 -313h-115z" />
    <glyph glyph-name="aacute" unicode="&#xe1;" horiz-adv-x="913" 
d="M666 154q0 -54 49 -54q34 0 66 34t67 91q14 21 31 21q34 0 34 -33q0 -5 -1 -9t-3 -9q-39 -87 -116 -158q-92 -84 -170 -84q-55 0 -84 51q-29 44 -29 98q0 8 1 17t3 20q-88 -78 -165 -117q-77 -40 -146 -40q-137 0 -137 180q0 221 206 379q88 66 193 108q105 41 227 58
q70 57 90 57q47 0 47 -47v-9q0 -3 -2 -8l-149 -479zM657 532q0 58 -57 58q-105 0 -238 -148t-133 -254q0 -79 68 -79q82 0 221 163zM516 864l246 313q32 41 76 41q18 0 34 -7t28 -19t19 -28t7 -34q0 -46 -37 -73l-258 -193h-115z" />
    <glyph glyph-name="acircumflex" unicode="&#xe2;" horiz-adv-x="913" 
d="M666 154q0 -54 49 -54q34 0 66 34t67 91q14 21 31 21q34 0 34 -33q0 -5 -1 -9t-3 -9q-39 -87 -116 -158q-92 -84 -170 -84q-55 0 -84 51q-29 44 -29 98q0 8 1 17t3 20q-88 -78 -165 -117q-77 -40 -146 -40q-137 0 -137 180q0 221 206 379q88 66 193 108q105 41 227 58
q70 57 90 57q47 0 47 -47v-9q0 -3 -2 -8l-149 -479zM657 532q0 58 -57 58q-105 0 -238 -148t-133 -254q0 -79 68 -79q82 0 221 163zM646 1159h65l191 -303h-91l-174 113l-223 -113h-90z" />
    <glyph glyph-name="atilde" unicode="&#xe3;" horiz-adv-x="913" 
d="M666 154q0 -54 49 -54q34 0 66 34t67 91q14 21 31 21q34 0 34 -33q0 -5 -1 -9t-3 -9q-39 -87 -116 -158q-92 -84 -170 -84q-55 0 -84 51q-29 44 -29 98q0 8 1 17t3 20q-88 -78 -165 -117q-77 -40 -146 -40q-137 0 -137 180q0 221 206 379q88 66 193 108q105 41 227 58
q70 57 90 57q47 0 47 -47v-9q0 -3 -2 -8l-149 -479zM657 532q0 58 -57 58q-105 0 -238 -148t-133 -254q0 -79 68 -79q82 0 221 163zM502 1106q27 0 61 -11t76 -34q82 -43 121 -43q38 0 60 17t30 49h71q-9 -82 -73 -146q-65 -65 -146 -65q-54 0 -139 43q-84 43 -125 43
q-73 0 -88 -64h-72q6 44 26 83q20 38 50 67q29 28 67 45z" />
    <glyph glyph-name="adieresis" unicode="&#xe4;" horiz-adv-x="913" 
d="M666 154q0 -54 49 -54q34 0 66 34t67 91q14 21 31 21q34 0 34 -33q0 -5 -1 -9t-3 -9q-39 -87 -116 -158q-92 -84 -170 -84q-55 0 -84 51q-29 44 -29 98q0 8 1 17t3 20q-88 -78 -165 -117q-77 -40 -146 -40q-137 0 -137 180q0 221 206 379q88 66 193 108q105 41 227 58
q70 57 90 57q47 0 47 -47v-9q0 -3 -2 -8l-149 -479zM657 532q0 58 -57 58q-105 0 -238 -148t-133 -254q0 -79 68 -79q82 0 221 163zM776 1071q19 0 36 -7t30 -19q12 -13 19 -29q7 -17 7 -35q0 -19 -7 -36t-19 -29q-13 -13 -30 -20t-36 -7q-18 0 -34 7q-17 7 -29 20
q-13 12 -20 29t-7 36q0 37 27 64zM555 1071q37 0 64 -26q26 -27 26 -64q0 -19 -7 -36t-19 -29q-13 -13 -29 -20q-17 -7 -35 -7q-19 0 -36 7t-29 20q-13 12 -20 29t-7 36q0 18 7 35q7 16 20 29q12 12 29 19z" />
    <glyph glyph-name="aring" unicode="&#xe5;" horiz-adv-x="913" 
d="M666 154q0 -54 49 -54q34 0 66 34t67 91q14 21 31 21q34 0 34 -33q0 -5 -1 -9t-3 -9q-39 -87 -116 -158q-92 -84 -170 -84q-55 0 -84 51q-29 44 -29 98q0 8 1 17t3 20q-88 -78 -165 -117q-77 -40 -146 -40q-137 0 -137 180q0 221 206 379q88 66 193 108q105 41 227 58
q70 57 90 57q47 0 47 -47v-9q0 -3 -2 -8l-149 -479zM657 532q0 58 -57 58q-105 0 -238 -148t-133 -254q0 -79 68 -79q82 0 221 163zM680 1108q30 0 57 -11q26 -12 46 -32t32 -46q11 -27 11 -57t-11 -56q-12 -26 -32 -46t-46 -31q-27 -12 -57 -12t-56 12q-27 11 -46 31
q-20 20 -31 46q-12 26 -12 56t12 57q11 26 31 46q19 20 46 32zM680 1040q-15 0 -29 -6t-24 -16q-11 -11 -17 -25q-6 -15 -6 -31q0 -31 23 -53q22 -22 53 -22q32 0 55 22t23 53q0 32 -23 55z" />
    <glyph glyph-name="ae" unicode="&#xe6;" horiz-adv-x="1069" 
d="M532 444q25 103 25 123q0 97 -106 97q-64 0 -99 -62l-22 -58q-12 -30 -25 -59q-26 -63 -74 -63q-49 0 -49 57q0 101 144 211q144 111 245 111q45 0 86 -41q34 -38 48 -84q81 69 174 69q54 0 85 -30t31 -84q0 -145 -184 -191l-154 -39q-39 -162 -39 -182q0 -84 66 -84
q56 0 104 64q48 63 70 63q37 0 37 -45q0 -85 -86 -162q-85 -73 -172 -73q-36 0 -66 12t-52 34q-23 22 -36 51q-14 29 -16 64q-161 -172 -305 -172q-42 0 -65 31q-23 30 -23 72q0 152 184 266q57 35 125 61zM801 510q63 15 63 88q0 31 -26 31q-39 0 -90 -58q-20 -23 -36 -46
q-17 -23 -28 -46zM510 360q-50 -14 -94 -31t-82 -40q-109 -65 -109 -137q0 -29 23 -29q65 0 155 84q45 42 72 80z" />
    <glyph glyph-name="ccedilla" unicode="&#xe7;" horiz-adv-x="588" 
d="M225 -80q28 -8 53 -25q24 -16 41 -39q17 -22 27 -49t10 -55q0 -74 -69 -125q-32 -23 -67 -35t-73 -12q-116 0 -116 70q0 25 19 41q18 16 44 16q13 0 27 -6q13 -6 25 -14q12 -7 22 -13t18 -6q22 0 38 16q16 17 16 37q0 45 -45 66q-20 9 -39 13q-20 5 -43 5h-54l123 191
q-25 8 -46 25q-22 16 -37 39q-16 22 -24 49q-9 27 -9 57q0 93 26 186t80 189q123 217 295 217q22 0 44 -6q21 -7 39 -19q17 -12 28 -29q10 -17 10 -38q0 -64 -80 -64q-16 0 -32 8q-16 7 -30 17q-15 9 -27 17q-13 7 -22 7q-67 0 -118 -121q-58 -128 -58 -329q0 -105 76 -105
q26 0 50 12q23 12 46 35q47 50 56 50q34 0 34 -33q0 -10 -6 -19q-15 -30 -37 -55q-22 -26 -49 -45t-58 -32t-63 -17z" />
    <glyph glyph-name="egrave" unicode="&#xe8;" horiz-adv-x="557" 
d="M455 774q43 0 73 -29q29 -30 29 -73q0 -133 -111 -238q-48 -45 -107 -78t-130 -53q-2 -17 -2 -35v-35q0 -43 24 -79q28 -43 68 -43q58 0 107 43t59 43q33 0 33 -33q0 -14 -9 -27q-98 -153 -270 -153q-33 0 -61 13q-28 14 -48 37q-21 22 -32 53q-12 30 -12 63
q0 223 120 423zM217 381q209 71 209 215q0 66 -53 66q-62 0 -109 -115q-17 -38 -28 -79zM520 885l-258 193q-37 28 -37 73q0 18 7 34t19 28t28 19t35 7q21 0 41 -10q19 -11 34 -31l246 -313h-115z" />
    <glyph glyph-name="eacute" unicode="&#xe9;" horiz-adv-x="557" 
d="M455 774q43 0 73 -29q29 -30 29 -73q0 -133 -111 -238q-48 -45 -107 -78t-130 -53q-2 -17 -2 -35v-35q0 -43 24 -79q28 -43 68 -43q58 0 107 43t59 43q33 0 33 -33q0 -14 -9 -27q-98 -153 -270 -153q-33 0 -61 13q-28 14 -48 37q-21 22 -32 53q-12 30 -12 63
q0 223 120 423zM217 381q209 71 209 215q0 66 -53 66q-62 0 -109 -115q-17 -38 -28 -79zM290 889l246 313q32 41 76 41q18 0 34 -7t28 -19t19 -28t7 -34q0 -46 -37 -73l-258 -193h-115z" />
    <glyph glyph-name="ecircumflex" unicode="&#xea;" horiz-adv-x="557" 
d="M455 774q43 0 73 -29q29 -30 29 -73q0 -133 -111 -238q-48 -45 -107 -78t-130 -53q-2 -17 -2 -35v-35q0 -43 24 -79q28 -43 68 -43q58 0 107 43t59 43q33 0 33 -33q0 -14 -9 -27q-98 -153 -270 -153q-33 0 -61 13q-28 14 -48 37q-21 22 -32 53q-12 30 -12 63
q0 223 120 423zM217 381q209 71 209 215q0 66 -53 66q-62 0 -109 -115q-17 -38 -28 -79zM435 1180h65l191 -303h-91l-174 113l-223 -113h-90z" />
    <glyph glyph-name="edieresis" unicode="&#xeb;" horiz-adv-x="557" 
d="M455 774q43 0 73 -29q29 -30 29 -73q0 -133 -111 -238q-48 -45 -107 -78t-130 -53q-2 -17 -2 -35v-35q0 -43 24 -79q28 -43 68 -43q58 0 107 43t59 43q33 0 33 -33q0 -14 -9 -27q-98 -153 -270 -153q-33 0 -61 13q-28 14 -48 37q-21 22 -32 53q-12 30 -12 63
q0 223 120 423zM217 381q209 71 209 215q0 66 -53 66q-62 0 -109 -115q-17 -38 -28 -79zM520 1061q19 0 36 -7t30 -19q12 -13 19 -29q7 -17 7 -35q0 -19 -7 -36t-19 -29q-13 -13 -30 -20t-36 -7q-18 0 -34 7q-17 7 -29 20q-13 12 -20 29t-7 36q0 37 27 64zM299 1061
q37 0 64 -26q26 -27 26 -64q0 -19 -7 -36t-19 -29q-13 -13 -29 -20q-17 -7 -35 -7q-19 0 -36 7t-29 20q-13 12 -20 29t-7 36q0 18 7 35q7 16 20 29q12 12 29 19z" />
    <glyph glyph-name="igrave" unicode="&#xec;" horiz-adv-x="543" 
d="M260 582q0 69 -61 69q-30 0 -60 -28q-14 -14 -24 -20q-11 -7 -17 -7q-32 0 -32 35q0 44 90 88q40 18 73 28q32 9 58 9q102 0 102 -99q0 -9 -5 -33q-6 -25 -15 -63l-88 -356q-2 -9 -3 -17q-2 -8 -2 -16q0 -45 37 -45q72 0 168 90q12 12 27 12q35 0 35 -32q0 -41 -131 -123
q-65 -42 -111 -62t-74 -20q-82 0 -82 94q0 29 21 113l90 356q2 8 3 14zM426 876l-258 193q-37 28 -37 73q0 18 7 34t19 28t28 19t35 7q21 0 41 -10q19 -11 34 -31l246 -313h-115z" />
    <glyph glyph-name="iacute" unicode="&#xed;" horiz-adv-x="543" 
d="M260 582q0 69 -61 69q-30 0 -60 -28q-14 -14 -24 -20q-11 -7 -17 -7q-32 0 -32 35q0 44 90 88q40 18 73 28q32 9 58 9q102 0 102 -99q0 -9 -5 -33q-6 -25 -15 -63l-88 -356q-2 -9 -3 -17q-2 -8 -2 -16q0 -45 37 -45q72 0 168 90q12 12 27 12q35 0 35 -32q0 -41 -131 -123
q-65 -42 -111 -62t-74 -20q-82 0 -82 94q0 29 21 113l90 356q2 8 3 14zM188 872l246 313q32 41 76 41q18 0 34 -7t28 -19t19 -28t7 -34q0 -46 -37 -73l-258 -193h-115z" />
    <glyph glyph-name="icircumflex" unicode="&#xee;" horiz-adv-x="543" 
d="M260 582q0 69 -61 69q-30 0 -60 -28q-14 -14 -24 -20q-11 -7 -17 -7q-32 0 -32 35q0 44 90 88q40 18 73 28q32 9 58 9q102 0 102 -99q0 -9 -5 -33q-6 -25 -15 -63l-88 -356q-2 -9 -3 -17q-2 -8 -2 -16q0 -45 37 -45q72 0 168 90q12 12 27 12q35 0 35 -32q0 -41 -131 -123
q-65 -42 -111 -62t-74 -20q-82 0 -82 94q0 29 21 113l90 356q2 8 3 14zM361 1159h65l191 -303h-91l-174 113l-223 -113h-90z" />
    <glyph glyph-name="idieresis" unicode="&#xef;" horiz-adv-x="543" 
d="M260 582q0 69 -61 69q-30 0 -60 -28q-14 -14 -24 -20q-11 -7 -17 -7q-32 0 -32 35q0 44 90 88q40 18 73 28q32 9 58 9q102 0 102 -99q0 -9 -5 -33q-6 -25 -15 -63l-88 -356q-2 -9 -3 -17q-2 -8 -2 -16q0 -45 37 -45q72 0 168 90q12 12 27 12q35 0 35 -32q0 -41 -131 -123
q-65 -42 -111 -62t-74 -20q-82 0 -82 94q0 29 21 113l90 356q2 8 3 14zM461 1067q19 0 36 -7t30 -19q12 -13 19 -29q7 -17 7 -35q0 -19 -7 -36t-19 -29q-13 -13 -30 -20t-36 -7q-18 0 -34 7q-17 7 -29 20q-13 12 -20 29t-7 36q0 37 27 64zM240 1067q37 0 64 -26
q26 -27 26 -64q0 -19 -7 -36t-19 -29q-13 -13 -29 -20q-17 -7 -35 -7q-19 0 -36 7t-29 20q-13 12 -20 29t-7 36q0 18 7 35q7 16 20 29q12 12 29 19z" />
    <glyph glyph-name="eth" unicode="&#xf0;" horiz-adv-x="979" 
d="M637 1065q-49 52 -148 106q-30 16 -30 43q0 39 43 39q46 0 129 -49q37 -21 66 -42q29 -22 51 -42q88 48 135 71t55 23q41 0 41 -43q0 -28 -35 -51l-135 -71q29 -51 43 -113q14 -63 14 -137q0 -274 -141 -523q-167 -286 -416 -286q-54 0 -99 18t-77 51t-49 79
q-18 45 -18 100q0 186 161 346q162 161 348 161q39 0 72 -8q32 -9 60 -26q5 34 8 64q2 30 2 56q0 85 -29 154q-176 -92 -186 -92q-43 0 -43 45q0 30 35 51zM680 594q-69 57 -152 57q-118 0 -209 -121q-79 -109 -79 -235q0 -70 34 -127q41 -62 111 -62q124 0 207 191
q17 40 40 114z" />
    <glyph glyph-name="ntilde" unicode="&#xf1;" horiz-adv-x="881" 
d="M645 154q0 -31 27 -31q49 0 108 47t68 47q33 0 33 -33q0 -43 -117 -116q-117 -72 -166 -72q-80 0 -80 90q0 20 5 45q5 24 16 55l96 289q8 25 12 47q4 21 4 41q0 68 -49 68q-54 0 -192 -217q-89 -140 -160 -277q-26 -50 -53 -121q-11 -24 -70 -24q-35 0 -35 37v4q0 2 2 4
l152 487q5 16 8 30q2 13 2 26q0 47 -35 47q-28 0 -69 -35q-36 -33 -50 -33q-36 0 -36 39q0 5 2 10q1 5 6 10q83 109 178 109q24 0 44 -12t34 -32q13 -20 21 -45q7 -25 7 -52q0 -19 -8 -57q-9 -38 -26 -97q218 330 383 330q102 0 102 -96q0 -26 -11 -69t-34 -103l-113 -310z
M472 1106q27 0 61 -11t76 -34q82 -43 121 -43q38 0 60 17t30 49h71q-9 -82 -73 -146q-65 -65 -146 -65q-54 0 -139 43q-84 43 -125 43q-73 0 -88 -64h-72q6 44 26 83q20 38 50 67q29 28 67 45z" />
    <glyph glyph-name="ograve" unicode="&#xf2;" horiz-adv-x="647" 
d="M217 -12q-35 0 -63 17q-28 16 -47 43q-20 27 -30 63q-11 36 -11 75q0 109 30 214q29 104 82 186q53 81 125 131q72 49 158 49q42 0 77 -15q34 -15 58 -42t38 -64q13 -37 13 -80q0 -76 -17 -148t-46 -136q-30 -64 -70 -118q-41 -54 -89 -93t-101 -60zM369 618
q-43 0 -79 -27t-61 -72q-26 -46 -40 -107q-15 -61 -15 -129q0 -36 10 -67q9 -31 26 -54t40 -36t49 -13q48 0 91 30q43 29 76 76q32 47 52 105q19 57 19 114zM583 881l-258 193q-37 28 -37 73q0 18 7 34t19 28t28 19t35 7q21 0 41 -10q19 -11 34 -31l246 -313h-115z" />
    <glyph glyph-name="oacute" unicode="&#xf3;" horiz-adv-x="647" 
d="M217 -12q-35 0 -63 17q-28 16 -47 43q-20 27 -30 63q-11 36 -11 75q0 109 30 214q29 104 82 186q53 81 125 131q72 49 158 49q42 0 77 -15q34 -15 58 -42t38 -64q13 -37 13 -80q0 -76 -17 -148t-46 -136q-30 -64 -70 -118q-41 -54 -89 -93t-101 -60zM369 618
q-43 0 -79 -27t-61 -72q-26 -46 -40 -107q-15 -61 -15 -129q0 -36 10 -67q9 -31 26 -54t40 -36t49 -13q48 0 91 30q43 29 76 76q32 47 52 105q19 57 19 114zM319 887l246 313q32 41 76 41q18 0 34 -7t28 -19t19 -28t7 -34q0 -46 -37 -73l-258 -193h-115z" />
    <glyph glyph-name="ocircumflex" unicode="&#xf4;" horiz-adv-x="647" 
d="M217 -12q-35 0 -63 17q-28 16 -47 43q-20 27 -30 63q-11 36 -11 75q0 109 30 214q29 104 82 186q53 81 125 131q72 49 158 49q42 0 77 -15q34 -15 58 -42t38 -64q13 -37 13 -80q0 -76 -17 -148t-46 -136q-30 -64 -70 -118q-41 -54 -89 -93t-101 -60zM369 618
q-43 0 -79 -27t-61 -72q-26 -46 -40 -107q-15 -61 -15 -129q0 -36 10 -67q9 -31 26 -54t40 -36t49 -13q48 0 91 30q43 29 76 76q32 47 52 105q19 57 19 114zM523 1190h65l191 -303h-91l-174 113l-223 -113h-90z" />
    <glyph glyph-name="otilde" unicode="&#xf5;" horiz-adv-x="647" 
d="M217 -12q-35 0 -63 17q-28 16 -47 43q-20 27 -30 63q-11 36 -11 75q0 109 30 214q29 104 82 186q53 81 125 131q72 49 158 49q42 0 77 -15q34 -15 58 -42t38 -64q13 -37 13 -80q0 -76 -17 -148t-46 -136q-30 -64 -70 -118q-41 -54 -89 -93t-101 -60zM369 618
q-43 0 -79 -27t-61 -72q-26 -46 -40 -107q-15 -61 -15 -129q0 -36 10 -67q9 -31 26 -54t40 -36t49 -13q48 0 91 30q43 29 76 76q32 47 52 105q19 57 19 114zM328 1104q27 0 61 -11t76 -34q82 -43 121 -43q38 0 60 17t30 49h71q-9 -82 -73 -146q-65 -65 -146 -65
q-54 0 -139 43q-84 43 -125 43q-73 0 -88 -64h-72q6 44 26 83q20 38 50 67q29 28 67 45z" />
    <glyph glyph-name="odieresis" unicode="&#xf6;" horiz-adv-x="647" 
d="M217 -12q-35 0 -63 17q-28 16 -47 43q-20 27 -30 63q-11 36 -11 75q0 109 30 214q29 104 82 186q53 81 125 131q72 49 158 49q42 0 77 -15q34 -15 58 -42t38 -64q13 -37 13 -80q0 -76 -17 -148t-46 -136q-30 -64 -70 -118q-41 -54 -89 -93t-101 -60zM369 618
q-43 0 -79 -27t-61 -72q-26 -46 -40 -107q-15 -61 -15 -129q0 -36 10 -67q9 -31 26 -54t40 -36t49 -13q48 0 91 30q43 29 76 76q32 47 52 105q19 57 19 114zM592 1069q19 0 36 -7t30 -19q12 -13 19 -29q7 -17 7 -35q0 -19 -7 -36t-19 -29q-13 -13 -30 -20t-36 -7
q-18 0 -34 7q-17 7 -29 20q-13 12 -20 29t-7 36q0 37 27 64zM371 1069q37 0 64 -26q26 -27 26 -64q0 -19 -7 -36t-19 -29q-13 -13 -29 -20q-17 -7 -35 -7q-19 0 -36 7t-29 20q-13 12 -20 29t-7 36q0 18 7 35q7 16 20 29q12 12 29 19z" />
    <glyph glyph-name="divide" unicode="&#xf7;" horiz-adv-x="932" 
d="M467 1016q22 0 43 -8q20 -9 36 -24q15 -16 25 -36q9 -21 9 -45q0 -22 -9 -42q-10 -21 -25 -36q-16 -16 -36 -25q-21 -9 -43 -9q-24 0 -44 9q-21 9 -36 25q-16 15 -24 36q-9 20 -9 42q0 24 9 45q8 20 24 36q15 15 36 24zM858 731v-172h-784v172h784zM467 500q22 0 43 -8
q20 -9 36 -24q15 -16 25 -36q9 -21 9 -45q0 -22 -9 -42q-10 -21 -25 -36q-16 -16 -36 -25q-21 -10 -43 -10q-24 0 -44 10q-21 9 -36 25q-16 15 -24 36q-9 20 -9 42q0 24 9 45q8 20 24 36q15 15 36 24z" />
    <glyph glyph-name="oslash" unicode="&#xf8;" horiz-adv-x="721" 
d="M252 -12q-63 0 -102 49l-46 -53l-38 32l55 68q-11 23 -16 49t-5 53q0 73 14 144q13 71 38 136q25 64 61 119q35 55 79 95t96 63q51 23 108 23q86 0 139 -61l47 57l39 -33l-57 -72q18 -39 18 -92q0 -76 -17 -148t-46 -136q-30 -64 -70 -118q-41 -54 -89 -93t-101 -60z
M526 573q-41 45 -123 45q-43 0 -79 -27t-62 -73t-40 -107q-15 -61 -15 -128q0 -20 3 -39t11 -39zM248 158q32 -45 86 -45q48 0 91 30q43 29 76 76q32 47 51 105q19 57 19 114q0 26 -4 48t-12 42z" />
    <glyph glyph-name="ugrave" unicode="&#xf9;" horiz-adv-x="922" 
d="M301 623q0 30 -27 30q-64 0 -143 -80q-14 -14 -31 -14q-34 0 -34 33q0 37 116 110q59 39 101 58q41 18 67 18q78 0 78 -90q0 -9 -4 -33q-5 -25 -16 -65l-78 -311q-8 -29 -11 -54q-4 -25 -4 -45q0 -59 41 -59q56 0 193 209q75 112 129 224q54 111 86 220h110l-176 -577
q-5 -17 -6 -31q-2 -14 -2 -25q0 -49 33 -49q20 0 43 14t51 41q55 58 68 58q37 0 37 -39q0 -14 -9 -23q-112 -149 -221 -149q-48 0 -80 47q-26 39 -26 92q0 19 11 65t34 121q-206 -329 -367 -329q-92 0 -92 104q0 23 9 63q8 40 24 97l90 334zM673 885l-258 193q-37 28 -37 73
q0 18 7 34t19 28t28 19t35 7q21 0 41 -10q19 -11 34 -31l246 -313h-115z" />
    <glyph glyph-name="uacute" unicode="&#xfa;" horiz-adv-x="922" 
d="M301 623q0 30 -27 30q-64 0 -143 -80q-14 -14 -31 -14q-34 0 -34 33q0 37 116 110q59 39 101 58q41 18 67 18q78 0 78 -90q0 -9 -4 -33q-5 -25 -16 -65l-78 -311q-8 -29 -11 -54q-4 -25 -4 -45q0 -59 41 -59q56 0 193 209q75 112 129 224q54 111 86 220h110l-176 -577
q-5 -17 -6 -31q-2 -14 -2 -25q0 -49 33 -49q20 0 43 14t51 41q55 58 68 58q37 0 37 -39q0 -14 -9 -23q-112 -149 -221 -149q-48 0 -80 47q-26 39 -26 92q0 19 11 65t34 121q-206 -329 -367 -329q-92 0 -92 104q0 23 9 63q8 40 24 97l90 334zM460 895l246 313q32 41 76 41
q18 0 34 -7t28 -19t19 -28t7 -34q0 -46 -37 -73l-258 -193h-115z" />
    <glyph glyph-name="ucircumflex" unicode="&#xfb;" horiz-adv-x="922" 
d="M301 623q0 30 -27 30q-64 0 -143 -80q-14 -14 -31 -14q-34 0 -34 33q0 37 116 110q59 39 101 58q41 18 67 18q78 0 78 -90q0 -9 -4 -33q-5 -25 -16 -65l-78 -311q-8 -29 -11 -54q-4 -25 -4 -45q0 -59 41 -59q56 0 193 209q75 112 129 224q54 111 86 220h110l-176 -577
q-5 -17 -6 -31q-2 -14 -2 -25q0 -49 33 -49q20 0 43 14t51 41q55 58 68 58q37 0 37 -39q0 -14 -9 -23q-112 -149 -221 -149q-48 0 -80 47q-26 39 -26 92q0 19 11 65t34 121q-206 -329 -367 -329q-92 0 -92 104q0 23 9 63q8 40 24 97l90 334zM631 1180h65l191 -303h-91
l-174 113l-223 -113h-90z" />
    <glyph glyph-name="udieresis" unicode="&#xfc;" horiz-adv-x="922" 
d="M301 623q0 30 -27 30q-64 0 -143 -80q-14 -14 -31 -14q-34 0 -34 33q0 37 116 110q59 39 101 58q41 18 67 18q78 0 78 -90q0 -9 -4 -33q-5 -25 -16 -65l-78 -311q-8 -29 -11 -54q-4 -25 -4 -45q0 -59 41 -59q56 0 193 209q75 112 129 224q54 111 86 220h110l-176 -577
q-5 -17 -6 -31q-2 -14 -2 -25q0 -49 33 -49q20 0 43 14t51 41q55 58 68 58q37 0 37 -39q0 -14 -9 -23q-112 -149 -221 -149q-48 0 -80 47q-26 39 -26 92q0 19 11 65t34 121q-206 -329 -367 -329q-92 0 -92 104q0 23 9 63q8 40 24 97l90 334zM725 1071q19 0 36 -7t30 -19
q12 -13 19 -29q7 -17 7 -35q0 -19 -7 -36t-19 -29q-13 -13 -30 -20t-36 -7q-18 0 -34 7q-17 7 -29 20q-13 12 -20 29t-7 36q0 37 27 64zM504 1071q37 0 64 -26q26 -27 26 -64q0 -19 -7 -36t-19 -29q-13 -13 -29 -20q-17 -7 -35 -7q-19 0 -36 7t-29 20q-13 12 -20 29t-7 36
q0 18 7 35q7 16 20 29q12 12 29 19z" />
    <glyph glyph-name="yacute" unicode="&#xfd;" horiz-adv-x="881" 
d="M190 520q0 -11 3 -29q2 -19 2 -30q0 -60 -45 -60q-50 0 -50 72q0 53 21 104q21 50 63 101q96 117 187 117q62 0 102 -64q35 -53 35 -121v-233q0 -131 84 -131q58 0 106 141q20 56 31 105q11 48 14 90q-71 15 -71 71q0 50 47 103q46 55 96 55q66 0 66 -98
q0 -173 -113 -396q-48 -96 -105 -181q-58 -86 -124 -165q-300 -348 -600 -348q-29 0 -55 9t-46 26q-19 17 -31 40t-12 52q0 18 7 34q7 17 19 29q12 13 28 21t34 8q52 0 94 -47q41 -47 76 -47q65 0 137 32q72 33 150 99q60 51 114 112t103 130q-73 25 -113 100
q-36 70 -36 150v147q0 23 -5 42t-16 36q-24 41 -63 41q-26 0 -50 -9t-42 -25q-19 -16 -30 -37zM456 907l246 313q32 41 76 41q18 0 34 -7t28 -19t19 -28t7 -34q0 -46 -37 -73l-258 -193h-115z" />
    <glyph glyph-name="thorn" unicode="&#xfe;" horiz-adv-x="795" 
d="M387 614q82 70 152 105q69 35 129 35q61 0 98 -58q14 -23 22 -51q7 -29 7 -63q0 -242 -125 -404q-138 -182 -330 -182q-66 0 -117 45l-139 -481q-2 -8 -3 -13t-1 -10q0 -63 63 -63h80q37 0 37 -35t-37 -35h-493q-37 0 -37 35t57 35h33q11 -2 19 -2h14q124 0 151 98
l424 1429q-59 -24 -69 -24q-43 0 -43 47q0 22 20 39l186 207q15 14 33 14q49 0 49 -49q0 -5 -44 -159zM264 186q67 -82 148 -82q112 0 190 134q64 115 64 239q0 150 -91 150q-116 0 -213 -154q-6 -8 -13 -21q-8 -13 -17 -30z" />
    <glyph glyph-name="ydieresis" unicode="&#xff;" horiz-adv-x="881" 
d="M190 520q0 -11 3 -29q2 -19 2 -30q0 -60 -45 -60q-50 0 -50 72q0 53 21 104q21 50 63 101q96 117 187 117q62 0 102 -64q35 -53 35 -121v-233q0 -131 84 -131q58 0 106 141q20 56 31 105q11 48 14 90q-71 15 -71 71q0 50 47 103q46 55 96 55q66 0 66 -98
q0 -173 -113 -396q-48 -96 -105 -181q-58 -86 -124 -165q-300 -348 -600 -348q-29 0 -55 9t-46 26q-19 17 -31 40t-12 52q0 18 7 34q7 17 19 29q12 13 28 21t34 8q52 0 94 -47q41 -47 76 -47q65 0 137 32q72 33 150 99q60 51 114 112t103 130q-73 25 -113 100
q-36 70 -36 150v147q0 23 -5 42t-16 36q-24 41 -63 41q-26 0 -50 -9t-42 -25q-19 -16 -30 -37zM743 1071q19 0 36 -7t30 -19q12 -13 19 -29q7 -17 7 -35q0 -19 -7 -36t-19 -29q-13 -13 -30 -20t-36 -7q-18 0 -34 7q-17 7 -29 20q-13 12 -20 29t-7 36q0 37 27 64zM522 1071
q37 0 64 -26q26 -27 26 -64q0 -19 -7 -36t-19 -29q-13 -13 -29 -20q-17 -7 -35 -7q-19 0 -36 7t-29 20q-13 12 -20 29t-7 36q0 18 7 35q7 16 20 29q12 12 29 19z" />
    <glyph glyph-name="dotlessi" unicode="&#x131;" horiz-adv-x="543" 
d="M260 582q0 69 -61 69q-30 0 -60 -28q-14 -14 -24 -20q-11 -7 -17 -7q-32 0 -32 35q0 44 90 88q40 18 73 28q32 9 58 9q102 0 102 -99q0 -9 -5 -33q-6 -25 -15 -63l-88 -356q-2 -9 -3 -17q-2 -8 -2 -16q0 -45 37 -45q72 0 168 90q12 12 27 12q35 0 35 -32q0 -41 -131 -123
q-65 -42 -111 -62t-74 -20q-82 0 -82 94q0 29 21 113l90 356q2 8 3 14z" />
    <glyph glyph-name="OE" unicode="&#x152;" horiz-adv-x="1608" 
d="M903 1237q106 0 197 -35h213q77 0 149 31q14 8 38 17q23 8 59 16q23 0 36 -14t13 -40q0 -3 -15 -73q-16 -70 -45 -207q-12 -53 -55 -53q-27 0 -33 39q-27 167 -149 167h-123l-111 -411h148q102 0 178 112q15 25 41 25q24 0 24 -23v-10l-94 -352q-9 -31 -43 -31
q-26 0 -26 31q0 34 -13 61q-13 26 -35 45q-23 18 -53 28q-31 9 -65 9h-90l-121 -452h168q218 0 397 274q30 49 68 49q36 0 36 -37q0 -18 -14 -45q-29 -45 -69 -110q-41 -66 -95 -156q-53 -92 -123 -92h-766q-200 0 -333 121q-131 122 -131 323q0 300 270 549zM975 1026
q-45 32 -94 49q-50 17 -107 17q-208 0 -352 -179q-139 -169 -139 -378q0 -162 98 -281q106 -127 262 -127q16 0 31 1q14 1 28 3q49 37 70 111l199 741q2 9 3 17t1 16v10z" />
    <glyph glyph-name="oe" unicode="&#x153;" horiz-adv-x="995" 
d="M217 -12q-74 0 -115 65q-36 58 -36 133q0 230 114 406q116 174 281 174q36 0 67 -12t55 -33t40 -51q15 -30 20 -66q114 170 250 170q43 0 73 -29q29 -30 29 -73q0 -133 -112 -238q-48 -45 -106 -78q-59 -33 -130 -53q-2 -17 -2 -35v-35q0 -44 25 -79q27 -43 67 -43
q58 0 107 43q51 43 59 43q33 0 33 -33q0 -14 -8 -27q-102 -153 -271 -153q-33 0 -61 13t-48 36q-21 22 -32 52q-12 29 -12 62zM369 618q-99 0 -154 -124q-41 -97 -41 -211q0 -64 31 -113q35 -57 94 -57q103 0 174 116q64 101 64 209zM655 381q207 70 207 215q0 66 -51 66
q-62 0 -109 -115q-17 -38 -28 -79z" />
    <glyph glyph-name="Scaron" unicode="&#x160;" horiz-adv-x="981" 
d="M797 1208q9 0 24 6t32 13l34 12q16 6 28 6q66 0 66 -59q0 -16 -15 -76q-16 -60 -48 -166q-13 -45 -48 -45q-44 0 -53 37q-2 5 -2 23v51q0 118 -182 118q-201 0 -201 -127q0 -108 162 -208q195 -121 250 -179q114 -113 114 -274q0 -186 -143 -287q-127 -92 -317 -92
q-37 0 -74 3t-72 11l-28 7q-20 5 -54 16q-29 8 -46 12q-18 4 -23 4q-6 0 -16 -1q-10 -2 -20 -3q-11 -2 -20 -3q-10 -1 -16 -1q-63 0 -63 51q0 17 18 41q43 61 66 119q23 57 43 119q17 45 57 45q53 0 53 -53q0 -6 -1 -15q-2 -10 -3 -20q-2 -10 -3 -19q-1 -10 -1 -16
q0 -43 18 -79q18 -37 48 -63q30 -27 70 -42q39 -15 83 -15q111 0 182 39q95 49 95 150q0 143 -177 258q-97 65 -154 105q-58 39 -75 55q-117 106 -117 241q0 152 131 238q116 78 271 78q11 0 29 -2q17 -3 36 -5q18 -3 35 -5zM585 1634l162 -170l236 170h90l-334 -360h-66
l-178 360h90z" />
    <glyph glyph-name="scaron" unicode="&#x161;" horiz-adv-x="625" 
d="M506 297q0 -72 -98 -188q-96 -117 -166 -117q-26 0 -53 6q-28 6 -56 20q-67 34 -67 78q0 15 9 33q8 18 21 34q12 15 28 26q15 10 30 10q35 0 63 -41q27 -39 53 -39q19 0 37 9t31 24t21 34q8 18 8 37q0 33 -74 137q-72 107 -72 170q0 94 98 168q91 68 189 68
q117 0 117 -90q0 -72 -66 -72q-22 0 -49 29q-25 31 -53 31q-21 0 -38 -9q-18 -10 -30 -25q-13 -15 -20 -34q-7 -20 -7 -41q0 -42 72 -123zM374 1255l162 -170l236 170h90l-334 -360h-66l-178 360h90z" />
    <glyph glyph-name="Ydieresis" unicode="&#x178;" horiz-adv-x="2513" 
d="M1804 94q-38 56 -63 125q-25 68 -33 152q-3 26 -3 101q-1 74 -1 198q0 58 -12 118q-12 59 -34 115q-23 55 -53 103q-31 48 -68 84t-79 57q-42 20 -86 20q-39 0 -82 -17q-43 -18 -79 -47q-36 -30 -59 -68q-24 -38 -24 -79q0 -36 14 -54t35 -26q21 -9 46 -13q24 -4 45 -12
t35 -24q14 -17 14 -51q0 -28 -15 -53t-38 -43q-24 -19 -52 -30q-29 -11 -57 -11q-37 0 -67 17q-31 16 -53 43q-23 27 -35 62q-13 35 -13 73q0 90 39 169t103 139q64 59 147 94q82 34 170 34q94 0 169 -42t128 -116q52 -74 80 -175t28 -220v-78q0 -128 17 -225
q17 -98 49 -164l510 842q-27 -7 -53 -7q-20 0 -49 9q-30 9 -59 20t-54 20t-37 9q-84 0 -102 -103q24 -3 46 -12t39 -23t27 -32q10 -19 10 -41q0 -78 -69 -78q-26 0 -49 13q-23 12 -40 33t-26 49q-10 28 -10 59q0 47 18 91q17 44 48 78q30 33 71 54q41 20 88 20q13 0 39 -5
q25 -5 53 -11q27 -6 52 -11t38 -5q76 0 115 71l64 -16q0 -23 -6 -43q-6 -21 -17 -44q-12 -23 -30 -52t-42 -68l-483 -799q-254 -418 -612 -625q-358 -206 -817 -206q-103 0 -196 19q-94 20 -164 55q-71 35 -112 83q-42 49 -42 107q0 40 18 74q17 35 48 60q31 26 72 41t89 15
q32 0 63 -9q31 -8 55 -23t39 -36q15 -20 15 -44q0 -31 -22 -52q-23 -20 -54 -20q-19 0 -33 8q-14 9 -25 19q-12 11 -22 19q-11 9 -24 9q-29 0 -51 -21q-23 -21 -23 -50q0 -39 33 -73q32 -34 85 -59q52 -25 118 -39t133 -14zM2144 1487q19 0 36 -7t30 -19q12 -13 19 -29
q7 -17 7 -35q0 -19 -7 -36t-19 -29q-13 -13 -30 -20t-36 -7q-18 0 -34 7q-17 7 -29 20q-13 12 -20 29t-7 36q0 37 27 64zM1923 1487q37 0 64 -26q26 -27 26 -64q0 -19 -7 -36t-19 -29q-13 -13 -29 -20q-17 -7 -35 -7q-19 0 -36 7t-29 20q-13 12 -20 29t-7 36q0 18 7 35
q7 16 20 29q12 12 29 19z" />
    <glyph glyph-name="Zcaron" unicode="&#x17d;" horiz-adv-x="1292" 
d="M842 1102q-28 0 -64 3q-37 2 -84 5q-55 5 -96 8q-42 2 -68 2q-68 0 -127 -20t-110 -62q-109 -89 -109 -219q0 -37 31 -37q4 0 12 4t19 9q11 4 23 8t24 4q18 0 35 -6t30 -17t21 -26t8 -33q0 -28 -13 -50q-14 -23 -35 -39q-22 -16 -50 -25t-56 -9q-35 0 -65 14t-53 38
t-36 56t-13 68q0 198 163 334q79 63 169 95q89 32 192 32q25 0 62 -2q36 -3 87 -8t88 -6q37 -2 62 -2q121 0 201 43q20 11 35 16q15 4 26 4q55 0 55 -57q0 -25 -14 -45l-799 -1073h649q41 0 72 14q41 18 41 51q0 11 -45 43q-43 34 -43 80q0 21 9 38t24 30q14 12 34 19
q19 7 40 7q24 0 46 -9q21 -9 37 -25t26 -37q9 -21 9 -46q0 -60 -23 -110t-71 -88q-96 -78 -217 -78h-715q-60 0 -98 -14q-9 -3 -16 -5q-8 -2 -13 -2q-55 0 -55 56q0 22 14 43l766 1026h-22zM643 1671l162 -170l236 170h90l-334 -360h-66l-178 360h90z" />
    <glyph glyph-name="zcaron" unicode="&#x17e;" horiz-adv-x="856" 
d="M432 674q-168 0 -252 -180q-11 -27 -33 -27q-34 0 -34 35q0 5 1 8t3 6q18 56 53 104t81 83q46 34 101 54q54 19 113 19h78q26 -2 45 -2h33q62 0 106 6l51 15q40 12 45 12q33 0 33 -35q0 -11 -6 -19q-6 -9 -19 -14q-18 -7 -36 -13q-19 -7 -36 -16q-18 -9 -34 -22
q-16 -14 -29 -33l-348 -495q-5 -8 -7 -14q-3 -7 -3 -15q0 -29 37 -29h151q134 0 174 66q10 14 16 46q6 31 9 79q6 67 53 67q53 0 53 -73q0 -122 -116 -207q-107 -76 -232 -76h-35q-21 0 -49 2q-26 2 -46 2h-34q-35 0 -63 -1q-28 -2 -51 -7q-8 -2 -23 -8q-15 -5 -35 -15
q-39 -18 -49 -18q-32 0 -32 35q0 18 20 31q31 18 63 37q31 18 50 44l399 568h-166zM434 1212l162 -170l236 170h90l-334 -360h-66l-178 360h90z" />
    <glyph glyph-name="florin" unicode="&#x192;" horiz-adv-x="1722" 
d="M1473 158q-51 -51 -119 -81q-69 -30 -144 -30q-38 -22 -81 -32q-44 -11 -91 -11h-22q-35 -17 -74 -26q-40 -9 -80 -9q-42 0 -81 9t-74 26h-23q-45 0 -88 11q-44 10 -84 32q-74 0 -143 30t-117 81q-36 26 -68 58q-33 31 -57 68t-38 79q-15 42 -15 88q0 68 31 128
q31 59 79 105q-23 46 -37 96t-14 101q0 112 59 210q58 98 158 173q99 72 230 114q131 41 282 41q150 0 282 -41q131 -42 230 -114q100 -75 159 -173q58 -98 58 -210q0 -51 -14 -101t-39 -96q48 -46 80 -105q31 -60 31 -128q0 -46 -14 -88q-15 -42 -39 -79t-56 -68zM1276 96
q47 9 89 33q42 23 74 57q31 34 50 78q18 43 18 94q0 41 -12 80q-13 38 -39 70q-2 5 -3 8t-1 6q0 8 7 15q6 6 14 6q3 0 8 -3t8 -8q29 -37 44 -81q15 -45 15 -93q0 -23 -3 -45q-3 -23 -9 -43q32 37 53 83q21 45 21 98q0 63 -32 117t-79 98q-4 4 -4 14q0 2 1 4t1 4q25 47 38 95
q13 47 13 98q0 103 -52 193q-52 89 -146 157q-94 69 -219 109t-269 40q-143 0 -268 -40q-126 -40 -219 -109q-93 -68 -147 -157q-54 -90 -54 -193q0 -51 14 -98q13 -48 39 -95q2 -2 2 -6q0 -5 -1 -9q-2 -5 -5 -7q-46 -44 -78 -98t-32 -117q0 -53 21 -98q21 -46 52 -83
q-5 20 -7 43q-3 22 -3 45q0 48 15 93q15 44 42 81q11 11 19 11q6 0 13 -6q7 -7 7 -15q0 -5 -6 -14q-26 -32 -38 -70q-13 -39 -13 -80q0 -51 19 -94q18 -44 50 -78t74 -57q41 -24 88 -33q-45 41 -72 96q-28 55 -28 121q0 51 18 98q18 46 50 87q10 10 16 10q8 0 15 -6
q6 -7 6 -17q0 -6 -7 -12q-27 -34 -42 -75t-15 -85q0 -54 21 -99q20 -46 55 -80q34 -35 80 -57q45 -23 96 -30q-53 42 -84 101t-31 131q0 22 19 22q8 0 14 -5q6 -6 6 -17q0 -60 26 -110q25 -50 67 -85q42 -36 96 -56q53 -20 110 -20q56 0 110 20q53 20 95 56q41 35 67 85
q25 50 25 110q0 11 7 17q6 5 14 5t14 -5q6 -6 6 -17q0 -72 -32 -131t-85 -101q51 7 97 30q46 22 81 57q35 34 56 80q20 45 20 99q0 44 -15 85t-44 75q-2 4 -2 12q0 10 5 17q4 6 13 6q8 0 15 -10q32 -41 50 -87q17 -47 17 -98q0 -66 -27 -121zM977 799v-15q0 -6 -2 -14
q6 2 14 2h17q21 0 44 -4q23 -5 42 -14q19 -10 33 -26q13 -16 16 -38q21 9 50 13q28 4 54 4q32 0 62 -8t53 -23q23 -16 37 -40t14 -56q0 -17 -5 -32q-5 -16 -13 -30q-3 -5 -8 -7q-6 -3 -11 -3q-8 0 -14 6t-6 14q0 7 6 13q6 9 9 18q3 8 3 21q0 38 -31 62t-77 24q-48 0 -86 -13
t-65 -32t-41 -41q-15 -23 -15 -41q0 -11 3 -22t12 -20t26 -14q16 -6 43 -6q15 0 30 3q15 2 29 5q2 2 4 2h4q21 0 21 -22q-3 -32 -21 -61q-18 -30 -47 -52q-26 -20 -61 -32q-36 -13 -74 -13q-46 0 -90 19q-45 18 -74 53q-31 -35 -75 -53q-44 -19 -89 -19q-40 0 -74 13
q-34 12 -63 32q-26 22 -44 52q-18 29 -23 61q0 11 6 17q6 5 14 5h2q2 0 4 -2q16 -3 31 -5q15 -3 31 -3q28 0 46 6q17 5 27 14q9 9 12 20t3 22q0 18 -15 40t-42 42q-28 19 -68 32t-90 13q-21 0 -39 -6q-19 -7 -33 -18q-15 -11 -23 -27t-8 -35q0 -13 3 -21q3 -9 10 -18
q4 -8 4 -13q0 -8 -6 -14q-7 -6 -15 -6q-11 0 -18 10q-8 14 -13 30q-6 15 -6 32q0 32 14 56t37 40q23 15 54 23q30 8 63 8q25 0 54 -4t49 -13q3 22 17 38q13 16 33 26q19 9 41 14q22 4 42 4h17q8 0 18 -2q-2 8 -2 17v18q0 25 3 48q2 23 7 40t11 27q5 10 11 10q8 0 15 -10
t10 -27q3 -11 5 -23q1 -12 3 -26l-37 -45h39q0 -31 -6 -56q17 -11 27 -26q10 -16 10 -35q0 -35 -18 -53q-19 -18 -42 -27q-23 -11 -41 -23q-18 -13 -18 -28q0 -18 14 -31q13 -13 34 -21q20 -9 44 -12q23 -4 43 -4t44 4q23 3 44 12q20 8 34 21q13 13 13 31q0 15 -17 28
q-18 12 -44 23q-23 9 -41 26t-18 54q0 19 10 35q9 15 26 26q-6 25 -6 62q0 52 11 88q6 17 11 27t13 10t13 -10t12 -27l8 -51l-39 -43h41zM1001 485q-29 -23 -68 -32q-40 -9 -71 -9q-15 0 -33 2q-19 2 -37 7q-19 5 -36 13q-18 8 -31 19q-32 -23 -69 -36t-74 -13q-11 0 -20 1
q-10 1 -21 3q20 -45 64 -68q44 -24 93 -24q42 0 83 19q40 19 63 57q8 8 18 8q5 0 10 -1q5 -2 7 -7q21 -38 63 -57q41 -19 84 -19q23 0 47 6q23 6 44 18t38 29q16 17 25 39q-8 -2 -18 -3t-21 -1q-37 0 -74 13zM715 748q-25 0 -44 -6q-20 -6 -34 -17q-12 -9 -20 -20
q-9 -11 -9 -23q0 -14 9 -26q8 -12 20 -21q14 -8 34 -14q19 -7 44 -7q23 0 43 7q19 6 33 14q14 9 22 21t8 26q0 12 -8 23t-22 20q-14 11 -33 17zM1010 748q-23 0 -43 -6t-35 -17q-13 -9 -21 -20t-8 -23q0 -14 8 -26t21 -21q15 -8 35 -14q20 -7 43 -7t42 7q19 6 33 14
q14 9 23 21q8 12 8 26q0 12 -8 23q-9 11 -23 20q-14 11 -33 17zM707 1047q-53 -12 -98 -30t-78 -44t-51 -61q-19 -36 -19 -83q0 -15 3 -28q3 -14 3 -33q0 -9 -6 -14q-7 -6 -15 -6q-6 0 -11 4q-5 3 -7 12q-6 33 -6 65q0 69 26 131t74 113q-37 22 -66 57q-29 34 -38 76v8
q0 10 6 15q6 4 12 4t12 -4q5 -4 7 -15q8 -32 28 -57q19 -25 46 -42q26 -17 57 -26q31 -10 63 -10q29 0 58 9q29 8 54 24q25 15 45 39q19 23 28 53q3 6 8 8t10 2q8 0 14 -2t8 -8q9 -30 29 -53q19 -24 44 -39q25 -16 55 -24q29 -9 59 -9q31 0 62 10q31 9 57 26t45 42t26 57
q2 11 9 15q6 4 12 4t12 -4q6 -5 6 -15v-8q-9 -40 -34 -72q-25 -33 -60 -55q50 -51 77 -114q27 -64 27 -136q0 -17 -1 -32q-1 -16 -3 -33q-3 -9 -8 -12q-6 -4 -12 -4q-9 0 -16 6t-7 18q3 16 6 30q3 13 3 27q0 49 -16 86q-17 36 -45 62q-29 25 -68 41t-84 24q-29 5 -57 13
q-28 7 -54 20t-48 32q-22 18 -38 44q-23 -40 -61 -66z" />
    <glyph glyph-name="circumflex" unicode="&#x2c6;" horiz-adv-x="754" 
d="M410 1198h65l191 -303h-91l-174 113l-223 -113h-90z" />
    <glyph glyph-name="caron" unicode="&#x2c7;" horiz-adv-x="725" 
d="M184 1255l162 -170l236 170h90l-334 -360h-66l-178 360h90z" />
    <glyph glyph-name="ring" unicode="&#x2da;" horiz-adv-x="438" 
d="M219 1186q30 0 57 -11q26 -12 46 -32t32 -46q11 -27 11 -57t-11 -56q-12 -26 -32 -46t-46 -31q-27 -12 -57 -12t-56 12q-27 11 -46 31q-20 20 -31 46q-12 26 -12 56t12 57q11 26 31 46q19 20 46 32zM219 1118q-15 0 -29 -6t-24 -16q-11 -11 -17 -25q-6 -15 -6 -31
q0 -31 23 -53q22 -22 53 -22q32 0 55 22t23 53q0 32 -23 55z" />
    <glyph glyph-name="tilde" unicode="&#x2dc;" horiz-adv-x="754" 
d="M279 1118q27 0 61 -11t76 -34q82 -43 121 -43q38 0 60 17t30 49h71q-9 -82 -73 -146q-65 -65 -146 -65q-54 0 -139 43q-84 43 -125 43q-73 0 -88 -64h-72q6 44 26 83q20 38 50 67q29 28 67 45z" />
    <glyph glyph-name="endash" unicode="&#x2013;" horiz-adv-x="1098" 
d="M285 403q-33 0 -101 -41q-66 -40 -88 -40q-30 0 -30 32q0 19 110 187q34 51 72 51q7 0 19 -2q11 -3 24 -6q12 -4 24 -6q12 -3 19 -3h555q51 0 98 39q45 39 76 39q35 0 35 -28q0 -26 -101 -185q-34 -53 -73 -53q-9 0 -23 3q-15 2 -30 5q-16 3 -30 6q-15 2 -24 2h-532z" />
    <glyph glyph-name="emdash" unicode="&#x2014;" horiz-adv-x="1855" 
d="M285 403q-33 0 -101 -41q-66 -40 -88 -40q-30 0 -30 32q0 19 110 187q34 51 72 51q7 0 19 -2q11 -3 24 -6q12 -4 24 -6q12 -3 19 -3h1313q51 0 98 39q45 39 76 39q34 0 34 -28q0 -13 -24 -58q-25 -46 -76 -127q-34 -53 -74 -53q-9 0 -23 3q-15 2 -30 5t-29 6q-15 2 -24 2
h-1290z" />
    <glyph glyph-name="quoteleft" unicode="&#x2018;" horiz-adv-x="522" 
d="M522 1315q-65 -23 -122 -56q-58 -34 -101 -73t-67 -80q-25 -42 -25 -82q0 -57 57 -70l66 68l76 -125l-125 -133q-46 3 -85 18q-40 15 -68 41q-29 25 -45 60q-17 34 -17 75q0 80 38 151t101 127t145 94q81 37 168 50z" />
    <glyph glyph-name="quoteright" unicode="&#x2019;" horiz-adv-x="522" 
d="M66 829q63 23 120 57q56 33 99 72q43 38 69 80q25 41 25 82q0 58 -57 70l-66 -68l-76 125l127 133q46 -3 86 -19q39 -16 68 -41q28 -26 45 -60q16 -34 16 -74q0 -80 -38 -151t-101 -127t-144 -93q-82 -38 -169 -51z" />
    <glyph glyph-name="quotesinglbase" unicode="&#x201a;" horiz-adv-x="522" 
d="M66 -276q55 20 104 46q49 27 94 62q115 89 115 182q0 58 -57 70l-66 -68l-76 125l127 133q90 -6 148 -55q67 -52 67 -139q0 -25 -6 -49q-30 -152 -164 -254q-118 -95 -282 -119z" />
    <glyph glyph-name="quotedblleft" unicode="&#x201c;" horiz-adv-x="911" 
d="M911 1315q-65 -23 -122 -56q-58 -34 -101 -73t-67 -80q-25 -42 -25 -82q0 -57 57 -70l66 68l76 -125l-125 -133q-46 3 -85 18q-40 15 -68 41q-29 25 -45 60q-17 34 -17 75q0 80 38 151t101 127t145 94q81 37 168 50zM522 1315q-65 -23 -122 -56q-58 -34 -101 -73t-67 -80
q-25 -42 -25 -82q0 -57 57 -70l66 68l76 -125l-125 -133q-46 3 -85 18q-40 15 -68 41q-29 25 -45 60q-17 34 -17 75q0 80 38 151t101 127t145 94q81 37 168 50z" />
    <glyph glyph-name="quotedblright" unicode="&#x201d;" horiz-adv-x="911" 
d="M66 829q63 23 120 57q56 33 99 72q43 38 69 80q25 41 25 82q0 58 -57 70l-66 -68l-76 125l127 133q46 -3 86 -19q39 -16 68 -41q28 -26 45 -60q16 -34 16 -74q0 -80 -38 -151t-101 -127t-144 -93q-82 -38 -169 -51zM455 829q63 23 120 57q57 33 100 72q42 38 68 80
q25 41 25 82q0 58 -57 70l-66 -68l-76 125l127 133q46 -3 86 -19q39 -16 68 -41q28 -26 45 -60q16 -34 16 -74q0 -80 -38 -151t-101 -127t-144 -93q-82 -38 -169 -51z" />
    <glyph glyph-name="quotedblbase" unicode="&#x201e;" horiz-adv-x="911" 
d="M66 -276q55 20 104 46q49 27 94 62q115 89 115 182q0 58 -57 70l-66 -68l-76 125l127 133q90 -6 148 -55q67 -52 67 -139q0 -25 -6 -49q-30 -152 -164 -254q-118 -95 -282 -119zM455 -276q55 20 104 46q49 27 94 62q115 89 115 182q0 58 -57 70l-66 -68l-76 125l127 133
q90 -6 148 -55q67 -52 67 -139q0 -25 -6 -49q-30 -152 -164 -254q-60 -48 -130 -78q-71 -29 -152 -41z" />
    <glyph glyph-name="dagger" unicode="&#x2020;" horiz-adv-x="971" 
d="M379 1204q32 13 59 34t47 50q40 -59 105 -84q-67 -134 -76 -309q168 6 301 80q24 -68 82 -111q-58 -42 -82 -112q-66 37 -141 57t-160 25q2 -51 8 -109t17 -121q27 -145 61 -217q-64 -116 -82 -346q-6 -102 -6 -363v-8h-53v107q0 224 -22 377q-23 152 -68 233
q37 72 61 217q11 63 18 121t9 109q-87 -5 -162 -25t-141 -57q-23 71 -80 112q57 43 80 111q133 -74 301 -80z" />
    <glyph glyph-name="daggerdbl" unicode="&#x2021;" horiz-adv-x="971" 
d="M815 1055q24 -68 82 -111q-29 -22 -49 -49q-21 -28 -33 -64q-66 38 -141 58q-75 19 -160 24q2 -58 22 -118q19 -60 54 -123q-35 -62 -54 -121q-20 -60 -22 -119q168 6 301 80q24 -68 82 -111q-58 -41 -82 -110q-133 74 -301 80q2 -35 7 -65t16 -56l53 -109
q-37 -69 -55 -163q-19 -94 -19 -216q0 -53 6 -96h-76q4 22 6 46q1 24 1 50q0 122 -18 216q-19 94 -56 163q25 48 38 75q13 26 15 34q20 50 23 121q-168 -6 -301 -80q-23 69 -80 110q57 43 80 111q133 -74 303 -80q-3 59 -23 119q-20 59 -55 121q35 63 55 123t23 118
q-87 -5 -162 -24q-75 -20 -141 -58q-22 70 -80 113q57 43 80 111q133 -74 301 -80q-2 34 -7 65q-5 30 -16 56q-2 8 -15 34t-38 74q32 13 59 34t47 50q40 -59 105 -84l-53 -108q-11 -26 -16 -56q-5 -31 -7 -65z" />
    <glyph glyph-name="bullet" unicode="&#x2022;" horiz-adv-x="805" 
d="M403 963q67 0 127 -26q59 -27 104 -72t71 -105t26 -127t-26 -127t-70 -105q-45 -45 -104 -71q-60 -27 -128 -27t-127 26q-60 26 -105 71t-71 105t-26 128t27 128q26 60 72 105q45 45 105 71z" />
    <glyph glyph-name="ellipsis" unicode="&#x2026;" horiz-adv-x="1161" 
d="M1087 176v-205l-194 76v205zM678 176v-205l-195 76v205zM268 176v-205l-194 76v205z" />
    <glyph glyph-name="perthousand" unicode="&#x2030;" horiz-adv-x="2142" 
d="M1886 616q55 0 102 -19t82 -52q34 -34 53 -81t19 -102q0 -72 -33 -140q-33 -69 -87 -123q-55 -54 -125 -86q-71 -33 -146 -33q-55 0 -102 19q-48 19 -82 53q-35 33 -54 79q-20 46 -20 100q0 75 34 145t90 123q55 53 126 85zM1858 483q-42 0 -83 -18q-41 -19 -73 -50
q-33 -31 -52 -71q-20 -41 -20 -84q0 -32 11 -58q11 -27 31 -47t48 -31q27 -11 60 -11q43 0 84 19q40 19 72 50t52 72q19 40 19 82q0 31 -11 58t-30 47q-20 20 -47 31zM1186 616q55 0 102 -19t81 -52q34 -34 54 -81q19 -47 19 -102q0 -72 -33 -140q-33 -69 -87 -123
q-55 -54 -125 -86q-71 -33 -146 -33q-56 0 -103 19t-81 53q-35 33 -54 79q-20 46 -20 100q0 75 34 145t90 123q55 53 126 85zM1157 483q-42 0 -83 -18q-41 -19 -73 -50t-51 -71q-20 -41 -20 -84q0 -32 11 -58q11 -27 31 -47q19 -20 47 -31q27 -11 60 -11q43 0 84 19t73 50
t52 72q19 40 19 82q0 31 -11 58t-31 47t-47 31zM457 1081q39 0 85 -18q45 -18 93 -39q47 -21 94 -39t90 -18q186 0 324 147h92l-748 -1108q-27 -39 -61 -39h-141q-33 0 -33 29q0 9 4 19q4 9 12 20l746 909q-51 -23 -103 -34t-106 -11t-103 12q13 -38 13 -82q0 -74 -33 -143
q-34 -69 -89 -122t-126 -85q-71 -33 -145 -33q-56 0 -102 19q-47 18 -81 52q-35 33 -54 80q-19 46 -19 101q0 73 34 142q33 69 88 123q55 53 126 86zM428 948q-42 0 -83 -18q-41 -19 -73 -50t-51 -71q-20 -41 -20 -84q0 -32 12 -58q11 -27 31 -46t47 -30t59 -11q42 0 83 19
q40 18 73 49q32 31 52 71t20 82q0 33 -11 60t-31 47q-20 19 -47 30z" />
    <glyph glyph-name="guilsinglleft" unicode="&#x2039;" horiz-adv-x="438" 
d="M438 748q-58 -157 -159 -277q21 -53 32 -112t11 -128v-36l-72 -17q-9 166 -184 293q225 125 309 291z" />
    <glyph glyph-name="guilsinglright" unicode="&#x203a;" horiz-adv-x="438" 
d="M66 195q29 78 69 147q39 69 90 129q-43 107 -43 238v18q0 10 2 21l70 14q9 -164 184 -291q-228 -127 -307 -293z" />
    <glyph glyph-name="Euro" unicode="&#x20ac;" horiz-adv-x="1098" 
d="M778 952q-235 0 -340 -321h480l-39 -68h-459q-9 -39 -12 -76h436l-39 -67h-399q2 -64 21 -116q18 -52 51 -89t82 -57q48 -21 110 -21q102 0 266 105l-31 -150q-180 -86 -330 -86q-173 0 -276 121q-48 57 -70 127t-22 166h-141l38 67h107q3 20 6 39t8 37h-131l41 68h113
q71 183 225 307q84 66 171 100q87 33 181 33q50 0 94 -11t82 -34q97 -53 97 -141q0 -22 -5 -41q-6 -20 -17 -35t-27 -24t-37 -9q-18 0 -29 8t-18 20t-11 27q-4 14 -8 27q-10 21 -28 38t-41 30q-23 12 -48 19z" />
    <glyph glyph-name="trademark" unicode="&#x2122;" horiz-adv-x="1642" 
d="M1376 1296q3 11 15 11h62q25 0 36 2q8 0 28 5t31 5q21 0 21 -21q0 -8 -49 -36q-50 -26 -50 -68v-334q0 -44 39 -59q39 -12 39 -27q0 -20 -24 -20h-195q-22 0 -22 20q0 11 39 31q40 22 40 72v325l-190 -430q-9 -18 -20 -18q-14 0 -23 18l-203 424v-346q0 -34 43 -49
q43 -12 43 -27q0 -20 -24 -20h-164q-23 0 -23 20q0 10 39 31q41 21 41 67v330q0 47 -37 53q-37 8 -37 25q0 27 31 27h119q9 0 12 -11l197 -415zM483 854q0 -41 95 -72q18 -6 18 -20q0 -23 -21 -23q-10 0 -29 3q-19 2 -41 6q-22 3 -43 6q-21 2 -34 2q-9 0 -23 -1
q-15 -2 -30 -3q-16 -2 -30 -3t-23 -1q-21 0 -21 22q0 8 12 15q12 6 35 14q49 15 49 47v401h-155q-97 0 -127 -114q-6 -21 -21 -21q-20 0 -20 21q0 34 43 167q9 27 30 27q4 0 16 -4q12 -5 27 -10q15 -6 32 -10q16 -5 28 -5h381q12 0 28 5q16 4 31 10q15 5 27 10q11 4 14 4
q22 0 31 -27q43 -133 43 -167q0 -21 -21 -21q-14 0 -20 21q-32 114 -127 114h-154v-393z" />
    </font>
</defs>
</svg>
